{"glyphs":{"0":{"ha":863,"x_min":149,"x_max":966,"o":"m 463 -17 q 777 122 650 -17 q 905 464 905 261 q 824 676 905 599 q 603 753 744 753 q 294 614 421 753 q 167 277 167 475 q 247 62 167 141 q 463 -17 326 -17 m 472 25 q 303 221 303 25 q 385 574 303 436 q 596 711 467 711 q 769 507 769 711 q 735 288 769 408 q 655 111 701 168 q 472 25 589 25 m 580 654 q 604 573 664 644 q 553 334 686 443 q 534 288 539 315 l 526 288 l 526 595 l 528 611 q 580 654 545 641 m 536 570 l 536 378 q 577 397 555 380 q 599 570 653 470 q 536 570 569 557 m 437 293 l 437 336 q 450 293 458 336 q 518 225 521 290 q 469 217 496 206 q 491 260 445 252 q 450 217 445 326 l 450 122 q 507 176 496 125 l 518 176 q 507 138 518 160 q 450 106 486 114 q 437 95 445 -3 l 437 109 q 401 277 323 168 l 437 293 m 437 263 l 434 274 q 437 125 388 201 l 437 263 m 225 264 l 225 435 q 244 406 236 425 q 274 259 320 349 q 233 381 307 349 q 231 319 228 357 l 231 240 q 179 216 214 216 q 225 264 149 275 m 231 593 l 231 764 q 250 734 242 753 q 280 588 326 677 q 239 710 313 677 q 237 648 234 686 l 237 569 q 185 545 220 545 q 231 593 155 604 m 823 441 l 823 612 q 842 582 834 601 q 872 435 918 525 q 831 557 905 525 q 829 495 826 533 l 829 416 q 777 392 812 392 q 823 441 747 452 m 871 51 l 871 222 q 890 192 882 211 q 920 45 966 135 q 880 168 953 135 q 877 105 874 143 l 877 26 q 825 2 861 2 q 871 51 795 62 "},"1":{"ha":615,"x_min":100,"x_max":707,"o":"m 100 0 l 519 0 l 517 42 l 456 42 q 398 85 398 42 q 418 201 398 94 l 485 536 l 536 753 l 243 715 l 243 673 l 305 669 q 365 633 365 664 q 351 534 365 607 l 283 195 q 243 61 258 81 q 166 42 229 42 l 119 42 l 100 0 m 590 684 l 612 681 q 582 442 682 559 l 582 431 q 593 388 585 412 q 696 309 674 393 q 628 198 707 236 q 606 57 666 100 q 514 87 552 35 l 511 100 q 585 136 525 160 q 552 68 612 84 q 628 130 633 38 l 617 195 l 614 201 q 454 339 465 179 q 560 491 484 423 q 590 684 517 594 m 604 640 q 571 499 549 583 q 625 583 606 529 q 604 640 631 616 m 568 434 q 595 206 397 250 l 614 217 l 609 236 l 606 258 l 595 304 l 593 317 l 587 339 l 585 350 q 593 222 492 288 q 579 388 444 296 q 568 434 579 410 m 604 350 q 623 239 604 323 l 625 225 l 631 220 q 671 296 674 241 q 604 350 658 342 m 224 358 l 224 643 l 235 643 q 254 597 237 621 q 302 350 387 496 l 300 358 q 235 551 376 496 l 235 326 q 208 290 227 307 q 129 301 164 258 q 224 358 142 385 m 332 98 l 332 269 q 351 239 342 258 q 380 92 427 182 q 340 214 413 182 q 337 152 334 190 l 337 73 q 286 49 321 49 q 332 98 256 109 m 416 518 l 416 689 q 435 659 427 678 q 465 513 511 602 q 424 635 497 602 q 421 572 418 610 l 421 494 q 370 469 405 469 q 416 518 340 529 "},"2":{"ha":831,"x_min":2,"x_max":795,"o":"m 83 0 l 675 0 l 718 109 l 206 109 l 370 205 q 704 425 634 361 q 774 576 774 490 q 700 705 774 657 q 499 753 625 753 q 254 716 397 753 l 233 561 l 275 561 q 481 711 317 711 q 587 670 544 711 q 630 568 630 629 q 120 109 630 381 l 83 0 m 357 600 q 506 526 441 597 q 547 507 522 515 q 579 529 563 513 q 563 572 585 553 q 503 570 533 551 q 568 594 514 616 q 549 475 655 518 q 425 532 479 475 l 381 562 q 346 564 365 567 q 351 505 302 524 q 392 518 368 518 q 403 494 400 510 q 305 502 354 453 q 357 600 286 567 m 711 361 l 711 404 q 724 361 732 404 q 792 293 795 358 q 743 285 770 274 q 765 328 719 320 q 724 285 719 393 l 724 190 q 781 244 770 193 l 792 244 q 781 206 792 228 q 724 174 760 182 q 711 163 719 65 l 711 176 q 675 345 597 236 l 711 361 m 711 331 l 708 342 q 711 193 662 269 l 711 331 m 105 443 l 146 443 l 176 435 q 26 161 330 288 l 32 172 q 165 302 124 204 q 86 421 200 446 q 73 389 70 408 q 124 345 127 380 q 59 323 105 313 q 105 443 2 399 m 252 413 q 284 399 271 416 q 268 370 284 380 q 252 413 222 375 m 252 334 q 284 321 271 337 q 268 291 284 302 q 252 334 222 296 m 661 473 l 661 644 q 680 614 671 633 q 709 468 755 557 q 669 590 742 557 q 666 528 663 566 l 666 449 q 614 425 650 425 q 661 473 585 484 m 216 722 l 216 892 q 235 863 227 882 q 264 716 311 806 q 224 838 297 806 q 221 776 218 814 l 221 697 q 170 673 205 673 q 216 722 140 732 "},"3":{"ha":860,"x_min":26,"x_max":850,"o":"m 26 -164 q 274 -218 145 -218 q 546 -123 430 -218 q 663 96 663 -29 q 452 334 663 269 q 729 598 729 448 q 662 710 729 668 q 483 753 594 753 q 231 713 377 753 l 208 561 l 250 561 q 444 711 290 711 q 554 671 511 711 q 597 569 597 631 q 533 435 597 498 q 373 348 469 372 q 254 353 316 353 l 207 248 q 263 252 241 252 q 464 194 387 252 q 541 41 541 135 q 477 -106 541 -44 q 325 -168 414 -168 q 115 -74 218 -168 l 26 -164 m 119 542 q 144 460 203 531 q 92 222 225 330 q 73 176 79 203 l 65 176 l 65 482 l 68 498 q 119 542 84 528 m 79 458 l 76 292 l 79 262 q 138 458 201 328 q 79 458 111 444 m 264 96 q 414 22 349 93 q 454 3 430 12 q 487 25 471 9 q 471 68 492 50 q 411 66 441 47 q 476 90 422 112 q 457 -29 563 14 q 332 28 387 -29 l 289 58 q 254 60 273 63 q 259 1 210 20 q 300 14 275 14 q 311 -10 308 6 q 213 -2 262 -51 q 264 96 194 63 m 694 425 l 694 468 q 708 425 716 468 q 776 357 779 422 l 773 354 q 722 351 749 338 q 751 395 708 387 q 708 362 700 446 l 708 259 l 711 251 q 765 308 754 259 q 760 264 789 300 q 708 237 741 245 q 694 229 703 129 q 689 245 694 237 l 678 243 l 681 248 q 659 408 583 311 l 694 425 m 694 395 l 692 406 q 694 256 646 332 l 694 395 m 361 655 l 401 655 l 431 647 q 282 373 586 500 l 288 384 q 420 514 380 416 q 342 633 456 658 q 328 601 326 620 q 380 557 382 593 q 315 536 361 525 q 361 655 258 612 m 507 625 q 540 612 526 628 q 524 582 540 593 q 507 625 477 587 m 507 547 q 540 533 526 549 q 524 503 540 514 q 507 547 477 509 m 594 37 l 594 208 q 613 178 605 197 q 643 32 689 121 q 602 154 675 121 q 600 92 597 130 l 600 13 q 548 -12 583 -12 q 594 37 518 48 m 755 724 l 755 895 q 774 865 766 884 q 804 718 850 808 q 764 840 837 808 q 761 778 758 816 l 761 699 q 709 675 745 675 q 755 724 680 734 "},"4":{"ha":1008,"x_min":43,"x_max":1010,"o":"m 549 27 q 501 -134 516 -109 q 436 -159 486 -159 l 377 -159 l 358 -201 l 765 -201 l 762 -159 l 703 -159 q 650 -121 650 -159 q 665 22 650 -82 l 854 14 l 885 104 l 683 113 l 810 753 l 739 736 l 54 104 l 43 48 l 549 27 m 567 118 l 149 137 l 663 598 l 567 118 m 893 770 l 915 767 q 885 528 985 645 l 885 517 q 896 474 888 498 q 999 395 977 479 q 931 284 1010 322 q 909 143 969 186 q 817 173 855 121 l 814 186 q 888 222 828 246 q 855 154 915 170 q 931 216 937 124 l 920 281 l 918 287 q 758 425 768 265 q 863 577 787 509 q 893 770 820 680 m 907 726 q 874 585 852 669 q 928 669 909 615 q 907 726 934 702 m 871 520 q 899 292 701 336 l 918 303 l 912 322 l 909 344 l 899 390 l 896 404 l 890 425 l 888 436 q 896 309 795 374 q 882 474 747 382 q 871 520 882 496 m 907 436 q 926 325 907 409 l 928 311 l 934 306 q 975 382 977 328 q 907 436 961 428 m 475 381 l 475 425 q 488 381 496 425 q 556 313 559 378 q 507 305 534 294 q 529 349 483 340 q 488 305 483 414 l 488 210 q 545 264 534 213 l 556 264 q 545 227 556 248 q 488 194 524 202 q 475 183 483 85 l 475 197 q 439 365 361 256 l 475 381 m 475 351 l 472 362 q 475 213 426 289 l 475 351 m 512 615 l 512 786 q 531 756 523 775 q 561 610 607 699 q 520 732 593 699 q 517 669 515 707 l 517 591 q 466 566 501 566 q 512 615 436 626 m 186 -144 l 186 27 q 205 -3 197 16 q 235 -149 281 -60 q 195 -27 268 -60 q 192 -90 189 -52 l 192 -168 q 140 -193 176 -193 q 186 -144 111 -133 m 618 73 l 618 244 q 637 214 629 233 q 667 68 713 157 q 626 190 699 157 q 623 127 621 165 l 623 49 q 572 24 607 24 q 618 73 542 84 m 712 543 l 712 714 q 731 684 723 703 q 761 538 807 627 q 720 660 793 627 q 718 597 715 635 l 718 519 q 666 494 701 494 q 712 543 636 554 "},"5":{"ha":901,"x_min":-81,"x_max":846,"o":"m 35 -163 q 256 -218 148 -218 q 558 -101 423 -218 q 693 159 693 16 q 597 347 693 275 q 349 419 502 419 q 258 410 309 419 l 318 619 l 760 619 l 806 736 l 279 736 l 191 290 q 300 301 251 301 q 561 112 561 301 q 491 -83 561 -7 q 313 -159 422 -159 q 118 -76 194 -159 l 35 -163 m 112 606 l 134 604 q 104 365 204 481 l 104 354 q 115 311 106 335 q 218 232 196 316 q 150 121 229 159 q 128 -20 188 23 q 36 9 74 -42 l 33 23 q 106 58 47 83 q 74 -9 134 7 q 150 53 155 -39 l 139 118 l 136 123 q -24 262 -13 102 q 82 414 6 346 q 112 606 39 517 m 125 563 q 93 422 71 506 q 147 506 128 452 q 125 563 153 538 m 90 357 q 117 129 -81 172 l 136 140 l 131 159 l 128 180 l 117 227 l 115 240 l 109 262 l 106 273 q 115 145 14 210 q 101 311 -35 218 q 90 357 101 332 m 125 273 q 144 161 125 245 l 147 148 l 153 142 q 193 218 196 164 q 125 273 180 264 m 708 557 l 708 600 q 722 557 730 600 q 789 489 792 554 q 741 481 768 470 q 762 524 716 516 q 722 481 716 589 l 722 386 q 779 440 768 389 l 789 440 q 779 402 789 424 q 722 370 757 378 q 708 359 716 261 l 708 372 q 673 541 594 432 l 708 557 m 708 527 l 705 538 q 708 389 659 465 l 708 527 m 623 113 l 623 283 q 642 254 634 273 q 672 107 718 197 q 631 229 705 197 q 629 167 626 205 l 629 88 q 577 64 612 64 q 623 113 547 123 m 751 -160 l 751 11 q 770 -19 762 0 q 800 -165 846 -76 q 760 -43 833 -76 q 757 -106 754 -68 l 757 -184 q 705 -209 741 -209 q 751 -160 675 -149 m 216 726 l 216 897 q 235 867 227 886 q 265 721 311 810 q 224 843 298 810 q 222 781 219 819 l 222 702 q 170 677 205 677 q 216 726 140 737 m 414 14 l 414 184 q 433 155 425 174 q 460 8 512 95 q 420 127 501 90 l 420 60 q 395 -33 433 -8 q 357 -11 363 -46 q 414 14 376 22 "},"6":{"ha":970,"x_min":165,"x_max":1088,"o":"m 873 770 l 911 913 q 730 954 813 954 q 337 762 508 954 q 166 320 166 570 q 244 74 166 165 q 453 -17 321 -17 q 722 109 605 -17 q 839 395 839 234 q 776 555 839 492 q 618 619 713 619 q 320 440 455 619 q 450 765 340 627 q 689 903 560 903 q 794 876 753 903 q 835 804 835 848 q 831 770 835 793 l 873 770 m 492 25 q 359 92 411 25 q 307 264 307 159 q 380 467 307 382 q 555 552 454 552 q 713 342 713 552 q 648 118 713 212 q 492 25 583 25 m 972 963 l 994 960 q 964 722 1064 838 l 964 711 q 975 667 966 692 q 1078 589 1056 673 q 1010 477 1088 515 q 988 336 1048 380 q 896 366 934 315 l 893 380 q 966 415 907 439 q 934 347 994 363 q 1010 410 1015 317 l 999 475 l 996 480 q 836 618 847 458 q 942 770 866 703 q 972 963 899 873 m 985 920 q 953 779 931 863 q 1007 863 988 808 q 985 920 1013 895 m 950 713 q 977 486 779 529 l 996 496 l 991 515 l 988 537 l 977 583 l 975 597 l 969 618 l 966 629 q 975 502 874 567 q 961 667 825 575 q 950 713 961 689 m 985 629 q 1004 518 985 602 l 1007 505 l 1013 499 q 1053 575 1056 521 q 985 629 1040 621 m 422 351 q 571 278 506 349 q 612 259 587 267 q 644 281 628 264 q 628 324 650 305 q 568 321 598 302 q 633 346 579 368 q 614 227 720 270 q 490 283 544 227 l 446 313 q 411 316 430 319 q 416 256 368 275 q 457 270 433 270 q 468 245 465 262 q 370 254 419 205 q 422 351 351 319 m 241 351 l 241 522 q 260 492 252 511 q 290 345 336 435 q 250 467 323 435 q 247 405 244 443 l 247 326 q 195 302 231 302 q 241 351 165 361 m 760 273 l 760 444 q 779 414 771 433 q 809 267 855 357 q 768 389 842 357 q 766 327 763 365 l 766 248 q 714 224 749 224 q 760 273 684 283 m 315 871 l 315 1042 q 334 1012 326 1031 q 363 865 410 955 q 323 987 396 955 q 320 925 317 963 l 320 846 q 269 822 304 822 q 315 871 239 882 m 641 703 l 641 874 q 660 844 652 863 q 690 698 736 787 q 649 820 722 787 q 646 758 644 795 l 646 679 q 595 654 630 654 q 641 703 565 714 m 874 51 l 874 222 q 893 192 885 211 q 923 45 969 135 q 882 168 956 135 q 880 105 877 143 l 880 26 q 828 2 863 2 q 874 51 798 62 "},"7":{"ha":946,"x_min":-19,"x_max":876,"o":"m 91 -218 l 250 -201 q 846 661 288 66 l 876 736 l 238 736 l 191 619 l 749 619 l 675 537 l 257 93 q 91 -218 118 -68 m 680 465 l 702 462 q 672 223 772 340 l 672 212 q 683 169 675 193 q 786 90 764 174 q 718 -21 797 17 q 696 -162 756 -119 q 604 -132 642 -184 l 602 -119 q 675 -83 615 -59 q 642 -151 702 -135 q 718 -89 724 -181 l 707 -24 l 705 -18 q 545 120 555 -40 q 650 272 574 204 q 680 465 607 375 m 694 421 q 661 280 640 364 q 715 364 696 310 q 694 421 721 397 m 659 215 q 686 -13 488 31 l 705 -2 l 699 17 l 696 39 l 686 85 l 683 98 l 677 120 l 675 131 q 683 3 583 68 q 669 169 534 77 q 659 215 669 191 m 694 131 q 713 20 694 104 l 715 6 l 721 1 q 762 77 764 22 q 694 131 748 123 m 385 414 l 385 585 q 404 555 395 574 q 433 408 479 498 q 393 530 466 498 q 390 468 387 506 l 390 389 q 338 365 374 365 q 385 414 309 425 m 95 496 l 95 667 q 114 637 106 656 q 144 491 190 581 q 103 613 176 581 q 100 551 98 589 l 100 472 q 49 448 84 448 q 95 496 19 507 m 202 -138 l 202 33 q 221 3 213 22 q 251 -144 297 -54 q 210 -22 283 -54 q 208 -84 205 -46 l 208 -163 q 156 -187 191 -187 q 202 -138 126 -127 m 57 49 l 57 220 q 76 190 68 209 q 106 43 152 133 q 65 165 138 133 q 62 103 60 141 l 62 24 q 11 0 46 0 q 57 49 -19 60 "},"8":{"ha":981,"x_min":123,"x_max":1072,"o":"m 395 498 q 132 197 132 357 q 208 44 132 106 q 396 -17 283 -17 q 664 75 545 -17 q 783 281 783 168 q 614 512 783 406 q 858 787 858 648 q 797 907 858 861 q 637 954 735 954 q 393 871 500 954 q 287 681 287 788 q 382 507 287 573 l 395 498 m 572 536 l 528 566 q 405 726 405 646 q 458 852 405 800 q 586 903 511 903 q 699 862 654 903 q 745 760 745 821 q 572 536 745 643 m 429 469 l 486 433 q 655 227 655 323 q 596 91 655 149 q 458 33 538 33 q 318 83 370 33 q 265 216 265 132 q 429 469 265 382 m 201 725 q 226 644 286 714 q 174 405 307 513 q 155 359 161 386 l 147 359 l 147 665 l 150 682 q 201 725 166 711 m 161 641 l 158 475 l 161 446 q 220 641 283 511 q 161 641 193 627 m 351 264 q 500 191 435 262 q 541 172 517 180 q 574 194 557 178 q 557 237 579 218 q 498 235 528 216 q 563 259 509 281 q 544 140 650 183 q 419 197 473 140 l 376 227 q 340 229 359 232 q 346 170 297 189 q 387 183 362 183 q 397 159 395 175 q 300 167 349 118 q 351 264 281 232 m 847 665 l 888 665 l 918 657 q 768 383 1072 511 l 774 394 q 907 524 866 427 q 828 644 942 668 q 814 611 812 630 q 866 568 869 603 q 801 546 847 535 q 847 665 744 622 m 994 635 q 1026 622 1013 638 q 1010 592 1026 603 q 994 635 964 597 m 994 557 q 1026 543 1013 559 q 1010 513 1026 524 q 994 557 964 519 m 548 690 l 548 861 q 567 831 559 850 q 597 684 643 774 q 556 806 629 774 q 553 744 551 782 l 553 665 q 502 641 537 641 q 548 690 472 701 m 199 160 l 199 331 q 218 301 210 320 q 248 155 294 244 q 207 277 280 244 q 204 214 201 252 l 204 136 q 153 111 188 111 q 199 160 123 171 m 715 230 l 715 401 q 734 371 726 390 q 764 224 810 314 q 723 347 796 314 q 720 284 718 322 l 720 205 q 669 181 704 181 q 715 230 639 241 m 349 642 l 349 812 q 368 783 359 802 q 397 636 444 726 q 357 758 430 726 q 354 696 351 734 l 354 617 q 302 593 338 593 q 349 642 273 652 "},"9":{"ha":862,"x_min":91,"x_max":841,"o":"m 130 -42 l 91 -185 q 270 -218 201 -218 q 664 -26 493 -218 q 834 416 834 165 q 756 662 834 571 q 547 753 679 753 q 278 626 395 753 q 161 336 161 500 q 224 173 161 238 q 385 109 288 109 q 685 289 549 109 q 554 -37 665 101 q 316 -176 444 -176 q 171 -70 171 -176 l 172 -42 l 130 -42 m 510 703 q 647 636 593 703 q 701 466 701 569 q 626 267 701 350 q 448 184 552 184 q 287 393 287 184 q 352 612 287 521 q 510 703 418 703 m 536 660 q 561 578 621 649 q 509 340 642 448 q 490 294 496 321 l 482 294 l 482 600 l 485 616 q 536 660 501 646 m 496 576 l 493 410 l 496 380 q 555 576 618 446 q 496 576 528 562 m 250 79 q 399 5 334 76 q 439 -14 415 -5 q 472 8 456 -8 q 456 52 477 33 q 396 49 426 30 q 461 73 407 95 q 442 -46 548 -3 q 317 11 372 -46 l 274 41 q 239 43 258 46 q 244 -16 195 3 q 285 -3 260 -3 q 296 -27 293 -11 q 198 -19 247 -68 q 250 79 179 46 m 220 302 l 220 473 q 239 443 231 462 q 269 296 315 386 q 229 418 302 386 q 226 356 223 394 l 226 277 q 174 253 210 253 q 220 302 144 313 m 746 271 l 746 441 q 765 412 757 431 q 795 265 841 355 q 754 387 827 355 q 751 325 749 363 l 751 246 q 700 222 735 222 q 746 271 670 281 m 189 678 l 189 849 q 208 819 200 838 q 238 673 284 762 q 197 795 271 762 q 195 732 192 770 l 195 654 q 143 629 178 629 q 189 678 113 689 "}," ":{"ha":461,"x_min":0,"x_max":0,"o":""},"!":{"ha":416,"x_min":111,"x_max":525,"o":"m 111 86 l 191 -17 l 296 58 l 216 168 l 111 86 m 216 262 l 254 275 l 409 801 l 454 1029 l 316 1004 l 275 801 l 216 262 m 362 229 l 362 514 l 373 514 q 392 468 376 492 q 441 221 525 368 l 438 229 q 373 422 514 368 l 373 197 q 346 161 365 178 q 267 172 302 129 q 362 229 281 256 "},"\"":{"ha":519,"x_min":268,"x_max":636,"o":"m 314 736 l 356 736 l 401 1071 l 268 1071 l 314 736 m 548 736 l 590 736 l 636 1071 l 502 1071 l 548 736 "},"#":{"ha":878,"x_min":114,"x_max":964,"o":"m 132 0 l 208 0 l 353 309 l 543 309 l 397 0 l 473 0 l 619 309 l 892 309 l 901 376 l 650 376 l 768 627 l 956 627 l 964 694 l 800 694 l 946 1004 l 870 1004 l 724 694 l 535 694 l 681 1004 l 605 1004 l 459 694 l 186 694 l 177 627 l 428 627 l 309 376 l 123 376 l 114 309 l 278 309 l 132 0 m 385 376 l 503 627 l 693 627 l 574 376 l 385 376 "},"$":{"ha":842,"x_min":77,"x_max":907,"o":"m 328 -100 l 370 -100 l 391 7 q 569 93 502 31 q 636 232 636 155 q 613 309 636 279 q 513 396 590 340 l 475 424 l 527 687 q 651 590 651 676 q 646 552 651 576 l 687 552 l 724 700 q 536 736 626 736 l 557 837 l 515 837 l 494 731 q 310 655 376 712 q 243 517 243 599 q 366 347 243 429 l 412 317 l 359 52 q 167 122 264 58 l 83 36 q 320 0 191 0 q 349 1 329 0 l 328 -100 m 438 450 l 415 469 q 346 570 346 525 q 485 686 346 669 l 438 450 m 401 56 l 448 289 l 471 272 q 533 178 533 229 q 401 56 533 78 m 191 353 l 191 396 q 205 353 213 396 q 273 285 275 350 q 224 277 251 266 q 245 320 199 312 q 205 277 199 385 l 205 182 q 262 236 251 184 l 273 236 q 262 198 273 220 q 205 165 240 174 q 191 155 199 57 l 191 168 q 156 336 77 228 l 191 353 m 191 323 l 189 334 q 191 184 142 260 l 191 323 m 744 495 l 744 780 l 755 780 q 774 734 758 758 q 823 487 907 633 l 820 495 q 755 688 896 633 l 755 463 q 728 427 747 444 q 649 438 684 395 q 744 495 663 522 "},"%":{"ha":1090,"x_min":123,"x_max":1136,"o":"m 363 502 q 551 596 474 502 q 629 825 629 690 q 582 956 629 907 q 455 1004 534 1004 q 270 909 347 1004 q 193 680 193 814 q 240 551 193 600 q 363 502 286 502 m 293 674 q 342 874 293 786 q 455 963 392 963 q 537 830 537 963 q 487 632 537 720 q 375 544 437 544 q 293 674 293 544 m 800 0 q 989 94 911 0 q 1066 323 1066 188 q 1019 454 1066 406 q 892 502 972 502 q 707 407 784 502 q 631 178 631 312 q 677 49 631 98 q 800 0 724 0 m 730 171 q 780 373 730 284 q 892 461 829 461 q 975 328 975 461 q 925 130 975 218 q 812 41 875 41 q 730 171 730 41 m 123 -25 l 212 -25 l 1136 1029 l 1047 1029 l 123 -25 m 406 660 l 406 945 l 417 945 q 436 899 420 923 q 485 652 569 798 l 482 660 q 417 852 558 798 l 417 627 q 390 592 409 608 q 311 603 347 559 q 406 660 325 687 m 846 157 l 846 442 l 857 442 q 876 396 859 420 q 924 149 1008 296 l 922 157 q 857 350 998 296 l 857 125 q 829 90 848 106 q 751 100 786 57 q 846 157 764 184 "},"&":{"ha":1120,"x_min":134,"x_max":1217,"o":"m 694 92 q 795 -3 758 20 q 895 -25 833 -25 q 1119 73 1000 -25 l 1129 123 q 1107 109 1115 114 q 966 50 1019 50 q 807 171 903 50 q 991 452 938 289 l 1013 452 q 1164 513 1084 452 l 1217 596 q 1010 552 1144 552 l 831 552 l 766 452 l 906 452 q 783 205 888 315 q 590 582 677 349 q 890 863 890 676 q 841 983 890 937 q 711 1029 791 1029 q 508 944 598 1029 q 417 751 417 858 q 454 591 417 693 q 134 243 134 461 q 213 52 134 128 q 408 -25 291 -25 q 694 92 549 -25 m 577 622 q 543 804 543 730 q 581 937 543 886 q 681 987 619 987 q 779 868 779 987 q 577 622 779 701 m 672 127 q 483 58 563 58 q 335 122 393 58 q 276 283 276 186 q 465 552 276 467 q 672 127 551 305 m 429 354 l 429 397 q 443 354 451 397 q 511 286 513 351 q 462 278 489 267 q 484 321 437 313 q 443 278 437 387 l 443 183 q 500 237 489 186 l 511 237 q 500 199 511 221 q 443 167 478 175 q 429 156 437 58 l 429 170 q 394 338 315 229 l 429 354 m 429 324 l 427 335 q 429 186 380 262 l 429 324 m 992 880 l 992 924 q 1006 880 1014 924 q 1074 812 1076 878 q 1025 804 1052 793 q 1046 848 1000 840 q 1006 804 1000 913 l 1006 709 q 1063 764 1052 712 l 1074 764 q 1063 726 1074 747 q 1006 693 1041 701 q 992 682 1000 585 l 992 696 q 957 864 878 755 l 992 880 m 992 850 l 989 861 q 992 712 943 788 l 992 850 "},"'":{"ha":318,"x_min":243,"x_max":410,"o":"m 306 703 l 347 703 l 410 1071 l 243 1071 l 306 703 "},"(":{"ha":490,"x_min":157,"x_max":633,"o":"m 367 -163 q 271 172 271 -37 q 315 516 271 319 q 424 852 359 713 q 622 1117 500 1019 l 633 1171 q 294 802 430 1055 q 157 290 157 549 q 359 -201 157 -45 l 367 -163 "},")":{"ha":490,"x_min":52,"x_max":528,"o":"m 318 1134 q 414 798 414 1006 q 370 454 414 652 q 261 118 326 257 q 63 -146 184 -48 l 52 -201 q 391 168 255 -85 q 528 682 528 421 q 326 1171 528 1016 l 318 1134 "},"*":{"ha":707,"x_min":225,"x_max":778,"o":"m 411 469 l 491 494 l 529 684 l 640 544 l 696 544 l 557 720 l 753 720 l 778 778 l 568 778 l 776 945 l 707 945 l 557 824 l 596 1029 l 516 1004 l 479 815 l 371 945 l 313 945 l 454 778 l 249 778 l 227 720 l 430 720 l 225 544 l 291 544 l 454 684 l 411 469 "},"+":{"ha":878,"x_min":144,"x_max":895,"o":"m 408 33 l 484 33 l 549 364 l 880 364 l 895 439 l 564 439 l 630 770 l 555 770 l 489 439 l 159 439 l 144 364 l 474 364 l 408 33 "},",":{"ha":393,"x_min":34,"x_max":332,"o":"m 98 120 l 199 -17 q 72 -159 178 -149 l 34 -201 q 247 -126 170 -201 q 332 85 325 -52 l 233 218 l 98 120 "},"-":{"ha":435,"x_min":132,"x_max":470,"o":"m 132 368 l 441 368 l 470 469 l 161 469 l 132 368 "},".":{"ha":393,"x_min":99,"x_max":335,"o":"m 99 121 l 199 -17 l 335 85 l 232 218 l 99 121 m 214 62 l 214 233 q 233 203 224 222 q 262 57 309 146 q 222 179 295 146 q 219 117 216 155 l 219 38 q 168 14 203 14 q 214 62 138 73 "},"/":{"ha":740,"x_min":-40,"x_max":913,"o":"m -40 -201 l 51 -201 l 913 1171 l 824 1171 l -40 -201 "},":":{"ha":381,"x_min":92,"x_max":434,"o":"m 92 121 l 191 -17 l 328 85 l 224 218 l 92 121 m 198 656 l 298 519 l 434 621 l 332 753 l 198 656 "},";":{"ha":378,"x_min":25,"x_max":432,"o":"m 89 120 l 190 -17 q 63 -159 169 -149 l 25 -201 q 238 -126 161 -201 q 323 85 316 -52 l 224 218 l 89 120 m 196 656 l 296 519 l 432 621 l 329 753 l 196 656 "},"<":{"ha":878,"x_min":151,"x_max":961,"o":"m 961 770 l 151 401 l 814 33 l 830 113 l 319 393 l 940 679 l 961 770 "},"=":{"ha":878,"x_min":120,"x_max":918,"o":"m 120 247 l 857 247 l 871 322 l 135 322 l 120 247 m 167 481 l 903 481 l 918 556 l 182 556 l 167 481 "},">":{"ha":878,"x_min":151,"x_max":961,"o":"m 151 33 l 961 401 l 298 770 l 282 691 l 793 410 l 172 125 l 151 33 "},"?":{"ha":637,"x_min":203,"x_max":760,"o":"m 203 82 l 286 -17 l 392 56 l 310 168 l 203 82 m 266 263 l 401 302 l 406 321 q 548 553 433 456 l 619 614 q 760 845 760 733 q 692 979 760 928 q 510 1029 623 1029 q 262 981 401 1029 l 229 820 l 271 820 q 467 987 313 987 q 574 942 533 987 q 614 823 614 897 q 453 526 614 665 l 425 502 q 266 263 279 377 m 414 625 l 414 909 l 425 909 q 444 863 428 888 q 493 616 577 763 l 490 625 q 425 817 566 763 l 425 592 q 398 557 417 573 q 319 568 355 524 q 414 625 333 652 m 589 269 l 589 553 l 600 553 q 618 507 602 532 q 667 260 751 407 l 665 269 q 600 461 741 407 l 600 236 q 572 201 591 217 q 494 212 529 168 q 589 269 507 296 "},"@":{"ha":1196,"x_min":161,"x_max":1251,"o":"m 847 30 l 832 68 q 612 17 719 17 q 319 125 434 17 q 203 400 203 233 q 386 806 203 625 q 795 987 568 987 q 1090 879 970 987 q 1209 611 1209 770 q 1129 364 1209 477 q 955 251 1049 251 q 886 314 886 251 q 894 380 886 341 l 971 768 l 908 768 q 890 773 894 772 q 778 795 810 795 q 534 657 646 795 q 422 358 422 519 q 547 201 422 201 q 808 431 673 201 l 823 431 l 817 402 q 794 294 794 307 q 912 200 794 200 q 1150 321 1048 200 q 1251 604 1251 441 q 1123 907 1251 785 q 802 1029 994 1029 q 328 810 518 1029 q 161 392 161 618 q 289 93 161 210 q 614 -25 416 -25 q 847 30 728 -25 m 829 555 q 584 284 682 284 q 520 391 520 284 q 582 631 520 535 q 734 728 643 728 q 857 699 802 728 l 829 555 "},"A":{"ha":1439,"x_min":62,"x_max":1434,"o":"m 62 57 q 279 -25 153 -25 q 507 49 411 -25 q 709 309 602 123 l 1079 309 l 1107 -25 l 1418 26 l 1427 71 q 1348 67 1359 67 q 1258 119 1283 67 q 1220 334 1234 171 l 1181 803 l 1172 1029 l 1034 1004 q 933 996 966 998 q 680 945 767 985 q 528 813 592 906 q 456 602 469 730 l 589 668 q 666 870 589 800 q 885 941 743 941 q 1012 932 938 941 l 720 428 q 510 133 597 216 q 322 50 422 50 q 153 149 218 50 l 62 57 m 739 359 l 1031 869 l 1074 359 l 739 359 m 371 716 l 393 713 q 363 475 463 591 l 363 464 q 374 420 366 445 q 477 342 455 426 q 409 231 488 269 q 387 90 447 133 q 295 119 333 68 l 292 133 q 366 168 306 193 q 333 100 393 117 q 409 163 414 71 l 398 228 l 395 233 q 235 372 246 212 q 341 524 265 456 q 371 716 298 627 m 385 673 q 352 532 330 616 q 385 673 441 613 m 349 467 q 376 239 178 282 l 395 250 l 390 269 l 387 290 l 376 336 l 374 350 l 368 372 l 366 382 q 374 255 273 320 q 360 420 224 328 q 349 467 360 442 m 385 382 q 404 271 385 355 l 406 258 l 412 252 l 431 263 q 385 382 496 353 m 1329 970 q 1353 889 1413 960 q 1301 650 1434 759 q 1282 604 1288 631 l 1274 604 l 1274 911 l 1277 927 q 1329 970 1293 957 m 1288 886 l 1285 721 l 1288 691 q 1348 886 1410 756 q 1288 886 1320 873 m 766 264 q 915 191 850 261 q 956 172 931 180 q 988 193 972 177 q 972 237 994 218 q 912 234 942 215 q 977 258 923 280 q 958 139 1064 182 q 833 196 888 139 l 790 226 q 755 229 774 231 q 760 169 711 188 q 801 182 777 182 q 812 158 809 174 q 714 166 763 117 q 766 264 695 231 m 1161 135 l 1161 306 q 1180 276 1172 295 q 1210 130 1256 219 q 1169 252 1242 219 q 1166 189 1164 227 l 1166 111 q 1115 86 1150 86 q 1161 135 1085 146 m 1116 677 l 1116 848 q 1135 818 1127 837 q 1165 671 1211 761 q 1124 793 1198 761 q 1122 731 1119 769 l 1122 652 q 1070 628 1105 628 q 1116 677 1040 688 "},"B":{"ha":1158,"x_min":142,"x_max":1181,"o":"m 142 0 l 414 -12 l 574 -17 q 926 73 783 -17 q 1069 294 1069 163 q 808 524 1069 440 q 1120 813 1120 606 q 1032 960 1120 916 q 739 1004 944 1004 q 304 906 449 1004 q 143 602 160 809 l 275 665 l 275 680 q 361 876 275 801 q 587 951 447 951 l 468 355 q 397 147 435 193 q 256 100 358 100 l 242 100 l 142 0 m 647 540 l 731 962 l 748 962 q 972 802 972 962 q 890 614 972 688 q 682 540 808 540 l 647 540 m 395 88 q 623 421 578 199 l 638 497 l 658 497 q 847 436 778 497 q 917 268 917 374 q 684 50 917 50 q 465 73 569 50 l 395 88 m 744 168 l 744 452 l 755 452 q 774 406 758 431 q 823 159 907 306 l 820 168 q 755 360 896 306 l 755 135 q 728 100 747 116 q 649 111 684 67 q 744 168 663 195 m 610 730 l 610 901 q 629 871 621 890 q 659 725 705 814 q 618 847 691 814 q 615 785 612 823 l 615 706 q 564 682 599 682 q 610 730 534 741 m 295 239 l 295 410 q 314 380 306 399 q 344 233 390 323 q 303 355 376 323 q 300 293 298 331 l 300 214 q 249 190 284 190 q 295 239 219 250 m 1038 726 l 1038 897 q 1057 867 1048 886 q 1086 720 1133 810 q 1046 842 1119 810 q 1043 780 1040 818 l 1043 701 q 991 677 1027 677 q 1038 726 962 736 m 356 621 l 356 792 q 375 762 367 781 q 405 616 451 705 q 364 738 437 705 q 361 675 359 713 l 361 597 q 310 572 345 572 q 356 621 280 632 m 967 193 l 967 364 q 986 334 978 353 q 1016 188 1062 277 q 975 310 1048 277 q 972 248 970 286 l 972 169 q 921 144 956 144 q 967 193 891 204 m 1086 26 l 1086 197 q 1105 167 1097 186 q 1135 20 1181 110 q 1094 142 1167 110 q 1091 80 1088 118 l 1091 1 q 1040 -23 1075 -23 q 1086 26 1010 37 "},"C":{"ha":1231,"x_min":10,"x_max":1080,"o":"m 903 62 l 916 126 q 596 50 747 50 q 385 134 462 50 q 308 365 308 218 q 357 622 308 486 q 483 849 406 758 q 755 987 600 987 q 922 951 858 987 q 987 855 987 914 q 980 803 987 835 l 1023 803 l 1080 989 q 789 1029 946 1029 q 342 831 527 1029 q 157 350 157 633 q 254 73 157 172 q 525 -25 350 -25 q 903 62 688 -25 m 686 869 l 727 869 l 757 861 q 608 587 911 714 l 613 597 q 746 728 705 630 q 667 847 781 871 q 654 814 651 833 q 705 771 708 806 q 640 749 686 739 q 686 869 583 825 m 833 839 q 865 825 852 842 q 849 795 865 806 q 833 839 803 801 m 833 760 q 865 747 852 763 q 849 717 865 728 q 833 760 803 722 m 64 369 q 89 288 149 358 q 37 49 170 157 q 18 3 24 30 l 10 3 l 10 309 l 13 326 q 64 369 29 355 m 24 285 l 21 119 l 24 90 q 83 285 146 155 q 24 285 56 271 m 472 275 l 472 560 l 483 560 q 502 514 486 538 q 551 267 635 414 l 548 275 q 483 468 624 414 l 483 243 q 456 208 475 224 q 377 218 412 175 q 472 275 391 302 m 243 397 l 243 568 q 262 538 254 557 q 292 392 338 481 q 251 514 324 481 q 248 452 245 490 l 248 373 q 197 349 232 349 q 243 397 167 408 m 167 803 l 167 974 q 186 944 178 963 q 216 798 262 887 q 175 920 248 887 q 172 857 170 895 l 172 779 q 121 754 156 754 q 167 803 91 814 "},"D":{"ha":1259,"x_min":142,"x_max":1381,"o":"m 143 0 l 477 -15 q 540 -17 524 -17 q 1131 158 917 -17 q 1345 644 1345 334 q 1244 919 1345 835 q 918 1004 1144 1004 l 722 1004 q 142 602 178 1004 l 274 665 l 274 680 q 360 876 274 801 q 586 951 446 951 l 458 307 q 397 145 435 191 q 286 100 359 100 q 271 101 277 100 q 253 102 257 102 l 243 100 l 143 0 m 388 85 q 550 228 501 155 q 627 442 599 300 l 730 962 l 815 962 q 1188 625 1188 962 q 1071 227 1188 406 q 926 86 1004 125 q 709 48 848 48 q 509 65 607 48 l 388 85 m 291 454 l 291 498 q 304 454 313 498 q 372 387 375 452 q 323 378 351 368 q 345 422 299 414 q 304 378 299 487 l 304 283 q 361 338 351 286 l 372 338 q 361 300 372 321 q 304 267 340 275 q 291 256 299 159 l 291 270 q 256 438 177 330 l 291 454 m 291 425 l 288 435 q 291 286 242 362 l 291 425 m 868 825 l 890 822 q 860 583 960 700 l 860 572 q 871 529 863 553 q 974 450 952 534 q 906 339 985 377 q 884 198 944 241 q 792 228 830 176 l 789 241 q 863 277 803 301 q 830 209 890 225 q 906 271 911 179 l 895 336 l 892 342 q 732 480 743 320 q 838 632 762 564 q 868 825 795 735 m 882 781 q 849 640 827 724 q 903 724 884 670 q 882 781 909 757 m 846 575 q 873 347 675 391 l 892 358 l 887 377 l 884 399 l 873 445 l 871 458 l 865 480 l 863 491 q 871 363 770 429 q 857 529 722 437 q 846 575 857 551 m 882 491 q 901 380 882 464 l 903 366 l 909 361 q 949 437 952 382 q 882 491 936 483 m 1213 330 l 1213 501 q 1232 471 1223 490 q 1261 325 1308 414 q 1221 447 1294 414 q 1218 385 1215 422 l 1218 306 q 1166 281 1202 281 q 1213 330 1137 341 m 515 304 l 515 475 q 534 446 526 465 q 564 299 610 389 q 524 421 597 389 q 521 359 518 397 l 521 280 q 469 256 505 256 q 515 304 439 315 m 622 764 l 622 935 q 641 905 633 924 q 671 758 717 848 q 630 880 703 848 q 627 818 625 856 l 627 739 q 576 715 611 715 q 622 764 546 774 m 1268 672 l 1268 843 q 1287 813 1279 832 q 1317 667 1363 756 q 1276 789 1350 756 q 1274 726 1271 764 l 1274 648 q 1222 623 1257 623 q 1268 672 1192 683 m 1286 92 l 1286 263 q 1305 233 1297 252 q 1335 87 1381 176 q 1294 209 1367 176 q 1291 146 1289 184 l 1291 68 q 1240 43 1275 43 q 1286 92 1210 103 "},"E":{"ha":1154,"x_min":142,"x_max":1132,"o":"m 142 0 l 733 -24 l 764 -25 q 990 96 870 -25 l 1001 151 q 794 75 905 75 l 723 77 l 397 90 q 553 233 505 161 q 625 429 602 305 l 640 502 l 673 502 q 883 482 729 502 l 952 552 l 650 552 l 728 954 l 749 954 q 973 933 911 954 q 1034 859 1034 913 q 1029 812 1034 838 l 1072 812 l 1132 1004 l 733 1004 q 305 905 450 1004 q 144 602 161 807 l 275 665 l 275 680 q 361 876 275 801 q 587 951 448 951 l 464 331 q 396 143 435 186 q 254 100 357 100 l 243 100 l 142 0 m 351 598 q 375 517 435 587 q 323 278 456 387 q 304 232 310 259 l 296 232 l 296 538 l 299 555 q 351 598 315 585 m 310 514 l 307 349 l 310 319 q 370 514 432 384 q 310 514 342 500 m 770 852 q 919 779 854 850 q 960 760 935 768 q 992 782 976 766 q 976 825 998 806 q 916 823 946 804 q 981 847 927 869 q 962 728 1068 771 q 838 785 892 728 l 794 814 q 759 817 778 820 q 764 758 715 777 q 805 771 781 771 q 816 747 813 763 q 718 755 767 706 q 770 852 699 820 m 840 336 l 840 379 q 853 336 861 379 q 921 268 924 333 q 872 260 899 249 q 894 303 848 295 q 853 260 848 368 l 853 165 q 910 219 899 168 l 921 219 q 910 181 921 203 q 853 149 888 157 q 840 138 848 40 l 840 151 q 804 319 726 211 l 840 336 m 840 306 l 837 317 q 840 168 791 243 l 840 306 m 532 358 l 532 529 q 551 499 543 518 q 581 353 627 442 q 541 475 614 442 q 538 412 535 450 l 538 334 q 486 309 522 309 q 532 358 456 369 m 606 692 l 606 863 q 625 833 617 852 q 655 687 701 777 q 614 809 688 777 q 612 747 609 785 l 612 668 q 560 644 595 644 q 606 692 530 703 "},"F":{"ha":1164,"x_min":1,"x_max":1243,"o":"m 493 465 l 602 465 l 555 227 q 443 -120 505 -22 q 273 -218 381 -218 q 100 -106 154 -218 l 1 -208 q 182 -285 81 -285 q 513 -135 371 -285 q 705 266 655 15 l 744 465 l 777 465 q 983 450 875 465 l 1050 519 l 755 519 l 841 954 l 870 954 q 1147 865 1147 954 q 1139 812 1147 839 l 1182 812 l 1243 1004 l 852 1004 q 417 907 561 1004 q 255 602 273 810 l 387 665 l 387 680 q 473 876 387 801 q 699 951 559 951 l 613 519 l 541 519 l 493 465 m 802 355 q 951 282 886 353 q 991 263 967 271 q 1024 285 1008 269 q 1008 328 1029 309 q 948 326 978 307 q 1013 350 959 372 q 994 231 1100 274 q 869 288 924 231 l 826 317 q 791 320 810 323 q 796 260 747 279 q 837 274 812 274 q 848 250 845 266 q 750 258 799 209 q 802 355 731 323 m 311 564 l 333 562 q 303 323 404 439 l 303 312 q 314 269 306 293 q 417 190 395 274 q 349 79 428 117 q 328 -62 387 -19 q 235 -33 273 -84 l 233 -19 q 306 16 246 41 q 273 -52 333 -35 q 349 11 355 -81 l 338 76 l 336 81 q 176 220 186 60 q 281 372 205 304 q 311 564 238 475 m 325 521 q 292 380 271 464 q 347 464 328 410 q 325 521 352 496 m 290 315 q 317 87 119 130 l 336 98 l 330 117 l 328 138 l 317 184 l 314 198 l 309 220 l 306 231 q 314 103 214 168 q 300 269 165 176 q 290 315 300 290 m 325 231 q 344 119 325 203 l 347 106 l 352 100 q 393 176 395 122 q 325 231 379 222 m 739 -133 l 739 38 q 758 8 749 27 q 787 -138 833 -49 q 747 -16 820 -49 q 744 -79 741 -41 l 744 -157 q 692 -182 728 -182 q 739 -133 663 -122 m 710 676 l 710 847 q 729 817 721 836 q 759 671 805 760 q 718 793 791 760 q 715 730 713 768 l 715 652 q 664 627 699 627 q 710 676 634 687 m 582 81 l 582 252 q 601 222 593 241 q 631 76 677 165 q 590 198 663 165 q 587 136 585 174 l 587 57 q 536 33 571 33 q 582 81 506 92 "},"G":{"ha":1171,"x_min":157,"x_max":1260,"o":"m 240 -218 q 475 -284 328 -284 q 781 -181 669 -284 q 937 141 892 -79 l 968 301 l 1021 511 l 779 511 q 534 393 656 511 l 526 346 q 743 422 623 422 l 863 422 l 795 84 q 636 63 730 63 q 396 148 484 63 q 308 380 308 233 q 446 804 308 621 q 766 987 584 987 q 937 950 872 987 q 1002 853 1002 913 q 1000 812 1002 836 l 1041 812 l 1095 991 q 800 1029 951 1029 q 346 837 534 1029 q 157 373 157 644 q 258 100 157 200 q 533 -1 359 -1 q 785 33 665 -1 q 779 7 781 16 q 702 -175 749 -123 q 564 -228 654 -228 q 355 -153 437 -228 l 240 -218 m 399 -32 q 548 -105 483 -35 q 589 -124 564 -116 q 621 -102 605 -119 q 605 -59 627 -78 q 545 -62 575 -81 q 610 -37 556 -16 q 591 -157 697 -113 q 467 -100 521 -157 l 423 -70 q 388 -67 407 -64 q 393 -127 345 -108 q 434 -113 410 -113 q 445 -138 442 -121 q 347 -130 396 -178 q 399 -32 328 -64 m 1143 951 l 1165 948 q 1135 709 1236 826 l 1135 699 q 1146 655 1138 680 q 1249 576 1227 661 q 1181 465 1260 503 q 1160 324 1219 368 q 1067 354 1105 302 l 1065 368 q 1138 403 1078 427 q 1105 335 1165 351 q 1181 397 1187 305 l 1171 463 l 1168 468 q 1008 606 1019 446 q 1114 758 1038 690 q 1143 951 1070 861 m 1157 907 q 1124 766 1103 850 q 1179 850 1160 796 q 1157 907 1184 883 m 1122 701 q 1149 473 951 517 l 1168 484 l 1162 503 l 1160 525 l 1149 571 l 1146 585 l 1141 606 l 1138 617 q 1146 490 1046 555 q 1133 655 997 563 q 1122 701 1133 677 m 1157 617 q 1176 506 1157 590 l 1179 492 l 1184 487 q 1225 563 1227 509 q 1157 617 1211 609 m 529 758 q 678 684 613 755 q 719 665 694 673 q 751 687 735 671 q 735 730 757 711 q 675 728 705 709 q 741 752 686 774 q 722 633 827 676 q 597 690 651 633 l 553 720 q 518 722 537 725 q 524 663 475 682 q 564 676 540 676 q 575 652 572 668 q 477 660 526 611 q 529 758 458 725 m 233 349 l 233 520 q 252 490 243 509 q 281 344 328 433 q 241 466 314 433 q 238 404 235 441 l 238 325 q 186 300 222 300 q 233 349 157 360 m 882 170 l 882 340 q 901 311 892 330 q 930 164 977 254 q 890 286 963 254 q 887 224 884 262 l 887 145 q 836 121 871 121 q 882 170 806 180 "},"H":{"ha":1355,"x_min":54,"x_max":1763,"o":"m 491 498 l 609 498 l 576 335 q 339 46 519 46 q 149 158 214 46 l 54 60 q 265 -17 140 -17 q 566 104 435 -17 q 735 417 696 225 l 751 498 l 1170 498 l 1065 -25 l 1408 35 l 1417 78 q 1322 71 1355 71 q 1246 140 1246 71 q 1280 357 1246 193 l 1389 864 q 1462 1069 1419 1009 q 1577 1130 1506 1130 q 1704 1070 1634 1130 l 1763 1171 q 1651 1188 1714 1188 q 1376 1072 1493 1188 q 1221 755 1260 955 l 1181 552 l 762 552 l 852 1004 l 815 1004 q 256 604 288 1004 l 388 669 l 388 678 q 464 868 388 789 q 649 947 541 947 q 697 941 663 947 l 620 552 l 537 552 l 491 498 m 1057 1204 l 1079 1202 q 1049 963 1149 1080 l 1049 952 q 1060 909 1052 933 q 1163 830 1141 914 q 1095 719 1174 757 q 1074 578 1133 621 q 981 608 1019 556 l 979 621 q 1052 656 992 681 q 1019 589 1079 605 q 1095 651 1101 559 l 1084 716 l 1082 722 q 922 860 932 700 q 1027 1012 951 944 q 1057 1204 984 1115 m 1071 1161 q 1038 1020 1017 1104 q 1071 1161 1128 1101 m 1036 955 q 1063 727 865 770 l 1082 738 l 1076 757 l 1074 779 l 1063 825 l 1060 838 l 1055 860 l 1052 871 q 1060 743 960 808 q 1046 909 911 817 q 1036 955 1046 930 m 1071 871 q 1090 760 1071 844 l 1093 746 l 1098 741 l 1117 751 q 1071 871 1182 841 m 1468 528 q 1492 447 1552 517 q 1440 208 1573 317 q 1421 162 1427 189 l 1413 162 l 1413 469 l 1416 485 q 1468 528 1432 515 m 1427 444 l 1424 279 l 1427 249 q 1487 444 1549 314 q 1427 444 1459 431 m 633 333 l 633 504 q 652 474 644 493 q 682 328 728 417 q 642 450 715 417 q 639 387 636 425 l 639 309 q 587 284 623 284 q 633 333 557 344 m 1164 119 l 1164 290 q 1183 260 1175 279 q 1213 114 1259 203 q 1173 236 1246 203 q 1170 174 1167 212 l 1170 95 q 1118 71 1154 71 q 1164 119 1088 130 m 1290 763 l 1290 934 q 1309 904 1301 923 q 1339 758 1385 847 q 1298 880 1371 847 q 1295 817 1293 855 l 1295 739 q 1244 714 1279 714 q 1290 763 1214 774 "},"I":{"ha":816,"x_min":8,"x_max":802,"o":"m 8 0 l 431 -17 l 529 83 l 265 90 q 493 423 449 203 l 589 903 l 699 903 l 802 1004 l 361 1004 l 262 903 l 446 903 l 336 350 q 270 151 307 201 q 155 100 233 100 l 110 100 l 8 0 m 257 583 l 257 868 l 268 868 q 287 822 271 846 q 336 575 420 722 l 333 583 q 268 776 409 722 l 268 551 q 241 515 260 532 q 162 526 197 483 q 257 583 176 610 m 475 254 q 625 181 559 252 q 665 162 641 170 q 698 184 682 168 q 682 227 703 208 q 622 224 652 205 q 687 249 633 271 q 668 130 774 173 q 543 186 597 130 l 500 216 q 465 219 484 222 q 470 159 421 178 q 511 173 486 173 q 522 149 519 165 q 424 157 473 108 q 475 254 405 222 m 391 368 l 391 539 q 410 509 402 528 q 440 363 486 452 q 399 485 473 452 q 397 422 394 460 l 397 344 q 345 319 380 319 q 391 368 315 379 m 503 819 l 503 990 q 522 960 514 979 q 552 814 598 903 q 511 936 585 903 q 509 873 506 911 l 509 795 q 457 770 492 770 q 503 819 427 830 "},"J":{"ha":1046,"x_min":-79,"x_max":928,"o":"m -79 -127 q 151 -218 24 -218 q 425 -99 313 -218 q 580 239 536 19 l 712 903 l 817 903 l 921 1004 l 484 1004 l 389 903 l 570 903 l 414 121 q 335 -99 383 -35 q 203 -163 288 -163 q 14 -33 75 -163 l -79 -127 m 161 313 l 201 313 l 231 304 q 82 31 386 158 l 87 41 q 220 172 180 74 q 142 291 256 315 q 128 258 125 277 q 180 215 182 250 q 115 193 161 182 q 161 313 58 269 m 307 283 q 340 269 326 286 q 323 239 340 250 q 307 283 277 245 m 307 204 q 340 191 326 207 q 323 161 340 172 q 307 204 277 166 m 812 869 l 833 866 q 804 627 904 744 l 804 616 q 814 573 806 597 q 918 494 896 578 q 850 383 928 421 q 828 242 888 286 q 736 272 774 220 l 733 286 q 806 321 747 345 q 774 253 833 269 q 850 315 855 223 l 839 380 l 836 386 q 676 524 687 364 q 782 676 706 608 q 812 869 739 779 m 825 825 q 793 684 771 768 q 847 768 828 714 q 825 825 852 801 m 790 619 q 817 391 619 435 l 836 402 l 831 421 l 828 443 l 817 489 l 814 503 l 809 524 l 806 535 q 814 408 714 473 q 801 573 665 481 q 790 619 801 595 m 825 535 q 844 424 825 508 l 847 410 l 852 405 q 893 481 896 427 q 825 535 880 527 m 458 70 l 458 241 q 477 211 469 230 q 507 64 553 154 q 466 186 539 154 q 463 124 460 162 l 463 45 q 412 21 447 21 q 458 70 382 81 m 588 725 l 588 896 q 607 866 599 885 q 637 720 683 809 q 596 842 669 809 q 593 779 591 817 l 593 701 q 542 676 577 676 q 588 725 512 736 "},"K":{"ha":1518,"x_min":54,"x_max":1499,"o":"m 54 62 q 264 -13 140 -13 q 565 109 433 -13 q 735 421 697 230 l 753 508 q 1008 87 916 200 q 1192 -25 1101 -25 q 1390 73 1273 -25 l 1400 124 q 1274 67 1310 67 q 1014 330 1164 67 q 883 556 908 513 q 1129 815 987 702 q 1350 928 1271 928 q 1406 904 1377 928 l 1499 1004 q 1410 1029 1456 1029 q 1109 854 1294 1029 l 755 518 l 851 1004 l 791 1004 q 409 901 547 1004 q 256 604 271 798 l 387 669 l 387 678 q 464 868 387 789 q 648 947 540 947 q 696 941 662 947 l 576 339 q 340 50 519 50 q 151 161 218 50 l 54 62 m 793 228 l 793 271 q 806 228 814 271 q 874 160 877 225 q 825 152 852 141 q 847 195 801 187 q 806 152 801 260 l 806 57 q 863 111 852 60 l 874 111 q 863 73 874 95 q 806 41 842 49 q 793 30 801 -68 l 793 43 q 758 212 679 103 l 793 228 m 793 198 l 790 209 q 793 60 744 136 l 793 198 m 463 831 l 484 828 q 454 589 555 706 l 454 578 q 465 535 457 559 q 568 456 547 541 q 500 345 579 383 q 479 204 538 248 q 387 234 425 182 l 384 248 q 457 283 397 307 q 425 215 484 231 q 500 277 506 185 l 490 342 l 487 348 q 327 486 338 326 q 433 638 357 570 q 463 831 389 741 m 476 787 q 444 646 422 730 q 498 730 479 676 q 476 787 503 763 m 441 581 q 468 353 270 397 l 487 364 l 481 383 l 479 405 l 468 451 l 465 465 l 460 486 l 457 497 q 465 370 365 435 q 452 535 316 443 q 441 581 452 557 m 476 497 q 495 386 476 470 l 498 372 l 503 367 q 544 443 547 389 q 476 497 530 489 m 724 776 l 724 947 q 743 917 735 936 q 773 770 819 860 q 732 892 806 860 q 730 830 727 868 l 730 751 q 678 727 713 727 q 724 776 648 787 m 1179 463 l 1179 633 q 1198 604 1190 623 q 1227 457 1274 547 q 1187 579 1260 547 q 1184 517 1181 555 l 1184 438 q 1133 414 1168 414 q 1179 463 1103 473 m 623 261 l 623 432 q 642 402 634 421 q 672 256 718 345 q 631 378 705 345 q 629 315 626 353 l 629 237 q 577 212 612 212 q 623 261 547 272 "},"L":{"ha":966,"x_min":-7,"x_max":934,"o":"m 12 0 l 649 -21 q 775 2 728 -21 q 918 110 823 26 l 928 161 q 641 85 804 85 l 262 91 q 417 224 367 149 q 494 440 467 300 l 557 752 q 728 971 600 971 q 859 845 859 971 q 857 816 859 833 l 900 816 l 934 985 q 789 1029 852 1029 q 540 929 650 1029 q 399 675 430 829 l 330 328 q 266 147 303 194 q 148 100 229 100 l 109 100 l 12 0 m 761 859 q 785 778 845 848 q 734 539 867 648 q 715 493 720 520 l 707 493 l 707 800 l 709 816 q 761 859 726 846 m 720 775 l 718 610 l 720 580 q 780 775 842 645 q 720 775 753 762 m 185 758 l 207 755 q 177 516 277 633 l 177 505 q 188 462 180 486 q 291 383 269 467 q 223 272 302 310 q 201 131 261 174 q 109 161 147 109 l 106 174 q 180 210 120 234 q 147 142 207 158 q 223 204 229 112 l 212 269 l 210 275 q 50 413 60 253 q 155 565 79 497 q 185 758 112 668 m 199 714 q 166 573 144 657 q 220 657 201 603 q 199 714 226 690 m 163 508 q 191 280 -7 323 l 210 291 l 204 310 l 201 332 l 191 378 l 188 391 l 182 413 l 180 424 q 188 296 87 361 q 174 462 39 370 q 163 508 174 484 m 199 424 q 218 313 199 397 l 220 299 l 226 294 q 267 370 269 315 q 199 424 253 416 m 388 315 l 388 486 q 407 456 399 475 q 437 309 483 399 q 396 431 469 399 q 393 369 391 407 l 393 290 q 342 266 377 266 q 388 315 312 326 m 469 644 l 469 814 q 488 785 479 804 q 517 638 564 728 q 477 760 550 728 q 474 698 471 736 l 477 665 l 474 657 l 474 619 q 422 595 458 595 q 469 644 393 654 "},"M":{"ha":1609,"x_min":54,"x_max":1603,"o":"m 54 62 q 264 -13 145 -13 q 708 499 606 -13 l 764 776 q 893 117 893 382 l 893 98 l 963 109 l 1427 852 l 1251 -31 l 1586 35 l 1595 79 q 1499 71 1535 71 q 1426 131 1426 71 q 1440 249 1426 175 l 1551 803 l 1603 1021 l 1457 1004 l 1013 286 q 829 1004 955 654 l 774 1004 q 406 899 543 1004 q 255 604 269 793 l 387 669 q 461 867 387 787 q 648 947 536 947 q 696 941 661 947 l 568 297 q 484 117 545 185 q 342 50 422 50 q 151 162 220 50 l 54 62 m 1034 984 q 1183 911 1118 981 q 1223 892 1199 900 q 1256 913 1240 897 q 1240 957 1261 938 q 1180 954 1210 935 q 1245 979 1191 1000 q 1226 859 1332 903 q 1101 916 1156 859 l 1058 946 q 1023 949 1042 951 q 1028 889 979 908 q 1069 903 1044 903 q 1080 878 1077 895 q 982 886 1031 838 q 1034 984 963 951 m 416 290 l 416 575 l 427 575 q 446 529 430 553 q 495 282 579 429 l 492 290 q 427 483 568 429 l 427 258 q 400 222 419 239 q 321 233 357 190 q 416 290 335 317 m 1147 56 l 1147 340 l 1158 340 q 1177 294 1161 319 q 1226 47 1310 194 l 1223 56 q 1158 248 1299 194 l 1158 23 q 1131 -12 1150 4 q 1053 -1 1088 -45 q 1147 56 1066 83 m 750 829 l 750 1000 q 769 970 761 989 q 799 823 845 913 q 758 945 831 913 q 755 883 753 921 l 755 804 q 704 780 739 780 q 750 829 674 840 m 1353 85 l 1353 256 q 1372 227 1364 245 q 1402 80 1448 170 q 1361 202 1434 170 q 1358 140 1356 178 l 1358 61 q 1307 37 1342 37 q 1353 85 1277 96 m 1485 787 l 1485 958 q 1504 928 1496 947 q 1534 781 1580 871 q 1493 903 1567 871 q 1491 841 1488 879 l 1491 762 q 1439 738 1474 738 q 1485 787 1409 798 "},"N":{"ha":1378,"x_min":54,"x_max":1765,"o":"m 54 64 q 266 -13 149 -13 q 548 120 432 -13 q 713 500 663 253 l 764 762 q 874 551 808 669 l 1040 256 q 1183 -30 1158 47 l 1270 0 l 1301 201 l 1403 711 q 1600 966 1453 966 q 1716 919 1655 966 l 1765 1010 q 1666 1029 1716 1029 q 1426 919 1525 1029 q 1286 605 1326 808 l 1208 213 q 1076 469 1166 311 l 989 622 q 806 1004 876 825 l 741 1004 q 402 894 536 1004 q 255 604 269 784 l 387 669 q 461 867 387 787 q 647 947 536 947 q 696 941 661 947 l 568 298 q 484 118 545 185 q 341 50 422 50 q 151 163 220 50 l 54 64 m 784 753 l 784 935 l 798 935 l 798 859 l 800 854 q 846 867 819 862 l 846 683 l 833 683 l 833 762 q 784 753 814 762 m 830 838 l 798 827 q 806 789 789 797 q 830 838 844 794 m 1146 414 l 1146 596 l 1160 596 l 1160 520 l 1162 515 q 1208 528 1181 523 l 1208 344 l 1195 344 l 1195 422 q 1146 414 1176 422 m 1192 498 l 1160 488 q 1168 450 1152 458 q 1192 498 1206 455 m 451 781 l 473 778 q 443 539 543 656 l 443 528 q 454 485 446 509 q 557 406 535 490 q 489 295 568 333 q 467 154 527 197 q 375 184 413 132 l 372 197 q 446 233 386 257 q 413 165 473 181 q 489 227 494 135 l 478 292 l 475 298 q 315 436 326 276 q 421 588 345 520 q 451 781 378 691 m 465 737 q 432 596 410 680 q 486 680 467 626 q 465 737 492 713 m 429 531 q 456 303 258 347 l 475 314 l 470 333 l 467 355 l 456 401 l 454 414 l 448 436 l 446 447 q 454 319 353 385 q 440 485 304 393 q 429 531 440 507 m 465 447 q 484 336 465 420 l 486 322 l 492 317 q 532 393 535 338 q 465 447 519 439 m 1217 96 l 1217 267 q 1236 237 1227 256 q 1265 91 1312 180 q 1225 213 1298 180 q 1222 151 1219 189 l 1222 72 q 1171 47 1206 47 q 1217 96 1141 107 m 1489 520 l 1489 691 q 1508 661 1500 680 q 1538 515 1584 604 q 1497 637 1571 604 q 1495 574 1492 612 l 1495 496 q 1443 471 1478 471 q 1489 520 1413 531 "},"O":{"ha":1144,"x_min":157,"x_max":1271,"o":"m 519 -25 q 947 174 768 -25 q 1126 650 1126 372 q 1029 927 1126 825 q 767 1029 932 1029 q 341 828 524 1029 q 157 360 157 627 q 255 79 157 182 q 519 -25 352 -25 m 545 21 q 314 359 314 21 q 441 802 314 617 q 744 986 568 986 q 974 655 974 986 q 848 208 974 394 q 545 21 722 21 m 617 829 q 766 756 701 827 q 807 737 783 745 q 840 759 823 743 q 823 802 845 783 q 764 800 793 781 q 829 824 774 846 q 810 705 916 748 q 685 762 739 705 l 642 791 q 606 794 625 797 q 612 734 563 753 q 652 748 628 748 q 663 724 661 740 q 566 732 614 683 q 617 829 547 797 m 1154 517 l 1176 515 q 1146 276 1246 393 l 1146 265 q 1157 222 1149 246 q 1260 143 1238 227 q 1192 32 1271 70 q 1171 -109 1230 -66 q 1078 -79 1116 -131 l 1076 -66 q 1149 -31 1089 -6 q 1116 -98 1176 -82 q 1192 -36 1198 -128 l 1181 29 l 1179 35 q 1019 173 1029 13 q 1124 325 1048 257 q 1154 517 1081 428 m 1168 474 q 1135 333 1114 417 q 1190 417 1171 363 q 1168 474 1195 450 m 1133 268 q 1160 40 962 83 l 1179 51 l 1173 70 l 1171 92 l 1160 138 l 1157 151 l 1152 173 l 1149 184 q 1157 56 1057 121 q 1143 222 1008 130 q 1133 268 1143 243 m 1168 184 q 1187 73 1168 157 l 1190 59 l 1195 54 q 1236 130 1238 75 q 1168 184 1222 176 m 508 490 l 549 490 l 578 481 q 429 208 733 335 l 435 218 q 568 349 527 251 q 489 468 603 492 q 475 435 473 454 q 527 392 530 427 q 462 370 508 359 q 508 490 405 446 m 654 460 q 687 446 673 463 q 671 416 687 427 q 654 460 625 422 m 654 381 q 687 368 673 384 q 671 338 687 349 q 654 381 625 343 m 236 345 l 236 516 q 255 486 247 505 q 285 340 331 429 q 244 462 317 429 q 241 399 239 437 l 241 321 q 190 296 225 296 q 236 345 160 356 m 1051 562 l 1051 732 q 1070 703 1062 722 q 1100 556 1146 646 q 1059 678 1133 646 q 1057 616 1054 654 l 1057 537 q 1005 513 1040 513 q 1051 562 975 572 "},"P":{"ha":1171,"x_min":142,"x_max":1161,"o":"m 142 0 l 565 -17 l 659 83 l 397 89 q 622 413 581 206 l 731 962 q 1002 771 1002 962 q 914 559 1002 644 q 696 473 826 473 l 684 473 l 658 431 l 676 431 q 928 487 818 431 q 1087 626 1024 536 q 1150 803 1150 716 q 1058 958 1150 911 q 751 1004 966 1004 q 307 908 451 1004 q 143 602 162 812 l 275 665 l 275 680 q 361 876 275 801 q 587 951 448 951 l 471 368 q 402 153 439 206 q 286 100 366 100 l 256 100 l 243 100 l 142 0 m 336 782 l 357 779 q 328 541 428 657 l 328 530 q 338 486 330 511 q 441 408 420 492 q 374 296 452 334 q 352 155 412 199 q 260 185 298 134 l 257 199 q 330 234 271 258 q 298 166 357 182 q 374 229 379 136 l 363 294 l 360 299 q 200 437 211 277 q 306 589 230 522 q 336 782 262 692 m 349 739 q 317 597 295 682 q 349 739 406 679 m 314 532 q 341 304 143 348 l 360 315 l 355 334 l 352 356 l 341 402 l 338 416 l 333 437 l 330 448 q 338 321 238 386 q 325 486 189 394 q 314 532 325 508 m 349 448 q 368 337 349 421 l 371 323 l 376 318 l 395 329 q 349 448 460 418 m 686 203 l 686 374 q 705 345 696 363 q 734 198 781 288 q 694 320 767 288 q 691 258 688 296 l 691 179 q 640 155 675 155 q 686 203 610 214 m 772 706 l 772 877 q 791 847 783 866 q 821 701 867 790 q 781 823 854 790 q 778 760 775 798 l 778 682 q 726 657 762 657 q 772 706 696 717 m 534 414 l 534 585 q 553 555 545 574 q 583 409 629 498 q 542 531 615 498 q 539 469 536 507 l 539 390 q 488 366 523 366 q 534 414 458 425 m 1066 728 l 1066 899 q 1085 869 1077 888 q 1115 723 1161 812 q 1074 845 1147 812 q 1072 783 1069 821 l 1072 704 q 1020 680 1055 680 q 1066 728 990 739 "},"Q":{"ha":1064,"x_min":-29,"x_max":1181,"o":"m 86 53 l 791 -227 q 947 -268 893 -268 q 1171 -161 1045 -268 l 1181 -108 q 990 -172 1077 -172 q 801 -125 913 -172 l 380 46 q 871 301 698 132 q 1044 696 1044 471 q 947 932 1044 836 q 711 1029 851 1029 q 350 861 511 1029 q 188 486 188 694 q 241 309 188 376 q 382 243 294 243 q 593 323 486 243 l 605 381 q 450 326 524 326 q 325 511 325 326 q 430 845 325 702 q 677 987 536 987 q 830 907 769 987 q 890 707 890 827 q 828 441 890 576 q 669 227 766 307 q 275 87 522 106 l 166 131 l 86 53 m 66 162 l 66 447 l 77 447 q 96 401 79 425 q 144 154 229 300 l 142 162 q 77 355 218 300 l 77 130 q 50 94 68 111 q -29 105 6 62 q 66 162 -16 189 m 540 871 q 689 798 624 869 q 730 779 705 787 q 762 801 746 785 q 746 844 768 825 q 686 842 716 823 q 751 866 697 888 q 732 747 838 790 q 608 804 662 747 l 564 833 q 529 836 548 839 q 534 777 486 795 q 575 790 551 790 q 586 766 583 782 q 488 774 537 725 q 540 871 469 839 m 907 480 l 907 651 q 926 621 918 640 q 956 475 1002 564 q 916 597 989 564 q 913 534 910 572 l 913 456 q 861 431 897 431 q 907 480 831 491 m 865 -3 l 865 168 q 884 138 876 157 q 914 -8 960 81 q 873 114 947 81 q 871 52 868 90 l 871 -27 q 819 -52 854 -52 q 865 -3 789 8 m 495 454 l 495 625 q 514 595 506 614 q 544 449 590 538 q 503 571 576 538 q 500 509 498 547 l 500 430 q 449 406 484 406 q 495 454 419 465 "},"R":{"ha":1269,"x_min":142,"x_max":1348,"o":"m 142 0 l 568 -17 l 661 83 l 396 89 q 621 408 581 206 l 633 469 l 762 469 l 914 187 q 1116 -17 1025 -17 q 1335 136 1187 -17 l 1348 200 q 1183 80 1229 80 q 1054 226 1141 80 l 891 499 q 1155 807 1155 627 q 1063 960 1155 916 q 743 1004 972 1004 q 306 907 450 1004 q 144 602 162 810 l 275 665 l 275 680 q 361 876 275 801 q 587 951 448 951 l 462 319 q 399 147 437 197 q 292 96 361 96 q 266 98 277 96 q 252 100 255 100 l 243 100 l 142 0 m 642 511 l 732 962 l 758 962 q 1006 789 1006 962 q 821 511 1006 602 l 642 511 m 1112 586 l 1153 586 l 1183 578 q 1034 304 1337 431 l 1039 315 q 1172 445 1131 347 q 1093 564 1207 589 q 1080 532 1077 551 q 1131 488 1134 524 q 1066 467 1112 456 q 1112 586 1009 543 m 1259 556 q 1291 543 1278 559 q 1275 513 1291 524 q 1259 556 1229 518 m 1259 477 q 1291 464 1278 480 q 1275 434 1291 445 q 1259 477 1229 439 m 751 842 q 901 768 836 839 q 941 749 917 758 q 974 771 958 755 q 958 814 979 795 q 898 812 928 793 q 963 836 909 858 q 944 717 1050 760 q 819 774 873 717 l 776 804 q 741 806 760 809 q 746 747 697 766 q 787 760 762 760 q 798 736 795 752 q 700 744 749 695 q 751 842 681 809 m 338 451 l 338 736 l 349 736 q 368 690 352 714 q 417 443 501 589 l 414 451 q 349 644 490 589 l 349 418 q 322 383 341 399 q 243 394 279 351 q 338 451 257 478 m 753 79 l 753 363 l 764 363 q 783 317 767 342 q 832 71 916 217 l 829 79 q 764 271 905 217 l 764 46 q 737 11 756 27 q 659 22 694 -22 q 753 79 672 106 m 526 311 l 526 481 q 545 452 536 471 q 574 305 621 395 q 534 427 607 395 q 531 365 528 403 l 531 286 q 479 262 515 262 q 526 311 450 321 m 1080 734 l 1080 905 q 1099 875 1091 894 q 1129 728 1175 818 q 1088 850 1162 818 q 1086 788 1083 826 l 1086 709 q 1034 685 1069 685 q 1080 734 1004 745 "},"S":{"ha":958,"x_min":79,"x_max":1009,"o":"m 79 38 q 337 -25 204 -25 q 636 68 511 -25 q 762 293 762 162 q 628 507 762 393 l 548 576 q 422 701 452 658 q 392 795 392 743 q 452 923 392 871 q 599 975 511 975 q 735 936 684 975 q 787 832 787 897 q 785 803 787 824 l 828 803 l 862 973 q 641 1029 735 1029 q 385 938 492 1029 q 278 719 278 846 q 303 617 278 655 q 435 486 329 579 l 531 401 q 642 221 642 302 q 583 86 642 138 q 431 33 524 33 q 173 134 298 33 l 79 38 m 330 422 l 330 465 q 343 422 351 465 q 411 354 414 419 q 362 346 389 335 q 384 389 338 381 q 343 346 338 454 l 343 251 q 400 305 389 254 l 411 305 q 400 267 411 289 q 343 235 378 243 q 330 224 338 126 l 330 237 q 294 406 216 297 l 330 422 m 330 392 l 327 403 q 330 254 281 330 l 330 392 m 892 965 l 914 962 q 884 724 985 840 l 884 713 q 895 669 887 694 q 998 591 977 675 q 930 479 1009 517 q 909 338 968 382 q 817 368 854 317 l 814 382 q 887 417 827 441 q 854 349 914 366 q 930 412 936 319 l 920 477 l 917 482 q 757 621 768 460 q 863 772 787 705 q 892 965 819 876 m 906 922 q 873 781 852 865 q 928 865 909 810 q 906 922 933 897 m 871 715 q 898 488 700 531 l 917 498 l 911 517 l 909 539 l 898 585 l 895 599 l 890 621 l 887 631 q 895 504 795 569 q 882 669 746 577 q 871 715 882 691 m 906 631 q 925 520 906 604 l 928 507 l 933 501 q 974 577 977 523 q 906 631 960 623 m 239 883 l 239 1168 l 250 1168 q 269 1122 252 1146 q 317 875 401 1021 l 315 883 q 250 1076 391 1021 l 250 850 q 222 815 241 831 q 144 826 179 783 q 239 883 157 910 m 883 90 l 883 261 q 902 231 894 250 q 932 85 978 174 q 891 207 964 174 q 888 144 886 182 l 888 66 q 837 41 872 41 q 883 90 807 101 "},"T":{"ha":1142,"x_min":132,"x_max":1400,"o":"m 262 0 l 686 -17 l 781 83 l 519 89 q 673 230 624 156 q 747 431 722 303 l 842 903 l 909 903 q 1217 981 1082 903 q 1400 1185 1353 1059 l 1299 1144 q 1213 1029 1276 1055 q 956 1004 1150 1004 l 668 1004 q 304 887 449 1004 q 132 571 160 770 l 273 637 q 267 697 267 673 q 528 903 267 903 l 699 903 l 591 359 q 524 150 560 203 q 412 96 488 96 q 373 98 381 96 l 363 100 l 262 0 m 439 587 q 464 506 524 576 q 412 267 545 376 q 393 221 399 248 l 385 221 l 385 528 l 388 544 q 439 587 404 574 m 399 503 l 396 338 l 399 308 q 458 503 521 373 q 399 503 431 490 m 971 831 l 993 829 q 963 590 1063 707 l 963 579 q 974 536 966 560 q 1077 457 1055 541 q 1009 346 1088 384 q 987 205 1047 248 q 895 235 933 183 l 892 248 q 966 283 906 308 q 933 216 993 232 q 1009 278 1015 186 l 998 343 l 996 349 q 836 487 846 327 q 941 639 865 571 q 971 831 898 742 m 985 788 q 952 647 930 731 q 1006 731 987 677 q 985 788 1012 764 m 949 582 q 977 354 779 397 l 996 365 l 990 384 l 987 406 l 977 452 l 974 465 l 968 487 l 966 498 q 974 370 873 435 q 960 536 825 444 q 949 582 960 557 m 985 498 q 1004 387 985 471 l 1006 373 l 1012 368 q 1053 444 1055 389 q 985 498 1039 490 m 720 667 l 720 838 q 739 808 730 827 q 768 661 814 751 q 728 783 801 751 q 725 721 722 759 l 725 642 q 673 618 709 618 q 720 667 644 677 m 508 1037 l 508 1208 q 527 1178 519 1197 q 557 1031 603 1121 q 516 1154 589 1121 q 513 1091 511 1129 l 513 1013 q 462 988 497 988 q 508 1037 432 1048 "},"U":{"ha":1284,"x_min":140,"x_max":1345,"o":"m 987 -25 l 1333 35 l 1342 78 q 1261 71 1293 71 q 1171 144 1171 71 q 1197 317 1171 184 l 1294 803 l 1345 1021 l 1192 1004 l 1055 318 q 916 122 996 193 q 754 52 836 52 q 633 114 676 52 q 589 286 589 176 q 633 598 589 387 q 739 1004 677 810 l 690 1004 q 140 604 170 1004 l 271 669 q 346 867 271 787 q 532 947 420 947 q 581 941 546 947 q 485 568 526 766 q 444 283 444 370 q 515 59 444 142 q 707 -25 587 -25 q 1029 184 879 -25 l 987 -25 m 491 333 l 491 515 l 505 515 l 505 439 l 507 433 q 553 447 526 441 l 553 262 l 540 262 l 540 341 q 491 333 521 341 m 537 417 l 505 406 q 513 368 496 376 q 537 417 551 374 m 994 793 l 994 975 l 1008 975 l 1008 896 q 1048 907 1027 899 l 1057 907 l 1057 722 l 1043 722 l 1043 801 q 994 793 1024 801 m 1040 877 l 1008 866 q 1016 828 1000 836 q 1040 877 1054 833 m 732 335 q 882 262 817 332 q 922 243 898 251 q 955 264 939 248 q 939 308 960 289 q 879 305 909 286 q 944 330 890 351 q 925 210 1031 254 q 800 267 854 210 l 757 297 q 722 300 741 302 q 727 240 678 259 q 768 254 743 254 q 779 229 776 245 q 681 237 730 189 q 732 335 662 302 m 595 755 l 595 926 q 614 897 606 916 q 644 750 690 840 q 603 872 676 840 q 600 810 597 848 l 600 731 q 549 707 584 707 q 595 755 519 766 m 1127 277 l 1127 448 q 1146 418 1138 437 q 1176 272 1222 361 q 1135 394 1208 361 q 1133 332 1130 370 l 1133 253 q 1081 229 1116 229 q 1127 277 1051 288 m 1207 729 l 1207 900 q 1226 870 1218 889 q 1256 724 1302 813 q 1215 846 1289 813 q 1213 783 1210 821 l 1213 705 q 1161 680 1196 680 q 1207 729 1131 740 "},"V":{"ha":1166,"x_min":85,"x_max":1438,"o":"m 692 -17 l 764 0 l 1373 962 l 1430 962 l 1438 1004 l 1147 1004 l 1139 962 l 1193 962 q 1254 937 1254 962 q 1057 551 1254 859 l 840 211 q 414 1188 840 1188 q 85 954 235 1188 l 119 936 q 353 1105 221 1105 q 601 890 500 1105 q 696 160 696 686 l 692 -17 m 254 942 q 404 869 338 939 q 444 850 420 858 q 477 871 460 855 q 460 915 482 896 q 401 912 431 893 q 466 937 412 958 q 447 817 553 861 q 322 874 376 817 l 279 904 q 243 907 262 909 q 249 847 200 866 q 290 861 265 861 q 300 836 298 852 q 203 844 252 795 q 254 942 184 909 m 941 1158 l 962 1156 q 932 917 1033 1034 l 932 906 q 943 863 935 887 q 1046 784 1025 868 q 979 673 1057 711 q 957 532 1017 575 q 865 562 903 510 l 862 575 q 935 610 876 635 q 903 543 962 559 q 979 605 984 513 l 968 670 l 965 675 q 805 814 816 654 q 911 966 835 898 q 941 1158 867 1069 m 954 1115 q 922 974 900 1058 q 976 1058 957 1004 q 954 1115 981 1090 m 919 909 q 946 681 748 724 l 965 692 l 960 711 l 957 732 l 946 779 l 943 792 l 938 814 l 935 825 q 943 697 843 762 q 930 863 794 770 q 919 909 930 884 m 954 825 q 973 713 954 798 l 976 700 l 981 694 q 1022 770 1025 716 q 954 825 1008 817 m 1066 312 l 1107 312 l 1137 304 q 987 30 1291 157 l 993 41 q 1126 171 1085 73 q 1047 290 1161 315 q 1034 258 1031 277 q 1085 214 1088 250 q 1020 193 1066 182 q 1066 312 963 269 m 1213 282 q 1245 269 1232 285 q 1229 239 1245 250 q 1213 282 1183 244 m 1213 203 q 1245 190 1232 206 q 1229 160 1245 171 q 1213 203 1183 165 m 758 393 l 758 564 q 777 534 768 553 q 806 387 852 477 q 766 509 839 477 q 763 447 760 485 l 763 368 q 711 344 747 344 q 758 393 682 404 "},"W":{"ha":1512,"x_min":74,"x_max":1788,"o":"m 628 -17 l 698 0 l 1083 772 q 1152 66 1152 452 l 1150 -17 l 1219 0 l 1717 962 l 1780 962 l 1788 1004 l 1503 1004 l 1495 962 l 1519 962 q 1596 928 1596 962 q 1428 509 1596 841 l 1282 224 q 1230 696 1255 528 l 1216 782 q 1188 992 1199 888 l 1123 974 l 776 268 l 774 352 q 689 967 774 778 q 396 1188 591 1188 q 74 975 244 1188 l 104 956 q 336 1105 214 1105 q 563 923 486 1105 q 640 387 640 741 l 628 -17 m 416 959 q 441 878 500 948 q 389 639 522 747 q 370 593 376 620 l 362 593 l 362 899 l 365 916 q 416 959 381 945 m 376 875 l 373 709 l 376 680 q 435 875 498 745 q 376 875 408 861 m 1374 1236 l 1396 1234 q 1366 995 1466 1112 l 1366 984 q 1377 941 1369 965 q 1480 862 1458 946 q 1412 751 1491 789 q 1390 610 1450 653 q 1298 640 1336 588 l 1295 653 q 1369 688 1309 713 q 1336 621 1396 637 q 1412 683 1417 591 l 1401 748 l 1398 753 q 1238 892 1249 732 q 1344 1044 1268 976 q 1374 1236 1301 1147 m 1388 1193 q 1355 1052 1333 1136 q 1409 1136 1390 1082 q 1388 1193 1415 1168 m 1352 987 q 1379 759 1181 802 l 1398 770 l 1393 789 l 1390 810 l 1379 857 l 1377 870 l 1371 892 l 1369 903 q 1377 775 1276 840 q 1363 941 1227 848 q 1352 987 1363 962 m 1388 903 q 1407 791 1388 876 l 1409 778 l 1415 772 q 1455 848 1458 794 q 1388 903 1442 895 m 925 282 l 966 282 l 996 274 q 846 0 1150 127 l 852 11 q 985 141 944 43 q 906 260 1020 285 q 892 228 890 247 q 944 184 947 220 q 879 163 925 152 q 925 282 822 239 m 1072 252 q 1104 239 1090 255 q 1088 209 1104 220 q 1072 252 1042 214 m 1072 174 q 1104 160 1090 176 q 1088 130 1104 141 q 1072 174 1042 136 m 692 260 l 692 431 q 711 401 703 420 q 741 255 787 345 q 700 377 773 345 q 697 315 694 353 l 697 236 q 646 212 681 212 q 692 260 616 271 m 1205 139 l 1205 310 q 1224 280 1216 299 q 1254 134 1300 223 q 1213 256 1286 223 q 1211 193 1208 231 l 1211 115 q 1159 90 1194 90 q 1205 139 1129 150 "},"X":{"ha":1232,"x_min":7,"x_max":1228,"o":"m 565 477 l 458 354 q 171 106 242 106 q 115 142 138 106 l 7 35 q 125 -25 63 -25 q 373 161 222 -25 l 584 421 l 669 174 q 857 -25 739 -25 q 1050 106 956 -25 l 1065 182 q 923 68 978 68 q 806 243 865 68 l 699 559 l 793 667 q 1069 901 998 901 q 1114 887 1088 901 l 1228 1002 q 1145 1029 1192 1029 q 845 817 1019 1029 l 681 616 l 621 792 q 422 1029 542 1029 q 226 883 327 1029 l 210 796 q 363 930 315 930 q 471 760 414 930 l 565 477 m 272 821 l 294 818 q 264 579 364 696 l 264 568 q 275 525 267 549 q 378 446 356 530 q 310 335 389 373 q 288 194 348 237 q 196 224 234 172 l 193 237 q 267 273 207 297 q 234 205 294 221 q 310 267 315 175 l 299 332 l 296 338 q 136 476 147 316 q 242 628 166 560 q 272 821 199 731 m 286 777 q 253 636 231 720 q 286 777 342 718 m 250 571 q 277 343 79 387 l 296 354 l 291 373 l 288 395 l 277 441 l 275 454 l 269 476 l 267 487 q 275 359 174 425 q 261 525 125 433 q 250 571 261 547 m 286 487 q 304 376 286 460 l 307 362 l 313 357 l 332 368 q 286 487 397 457 m 648 988 q 798 915 732 985 q 838 896 814 904 q 871 918 854 901 q 854 961 876 942 q 795 958 825 939 q 860 983 806 1004 q 841 863 947 907 q 716 920 770 863 l 673 950 q 637 953 656 956 q 643 893 594 912 q 684 907 659 907 q 694 882 692 899 q 597 890 646 842 q 648 988 578 956 m 627 488 l 627 659 q 646 629 638 648 q 676 483 722 572 q 635 605 709 572 q 633 543 630 581 l 633 464 q 581 439 616 439 q 627 488 551 499 m 1006 355 l 1006 526 q 1025 496 1017 515 q 1055 349 1101 439 q 1015 471 1088 439 q 1012 409 1009 447 l 1012 330 q 960 306 996 306 q 1006 355 930 366 "},"Y":{"ha":1135,"x_min":149,"x_max":1197,"o":"m 273 -223 q 493 -284 377 -284 q 1002 271 864 -284 l 1135 803 l 1197 1017 l 1040 1004 l 896 433 q 759 245 830 323 q 654 168 688 168 q 601 301 611 168 l 573 673 q 516 947 558 865 q 392 1029 475 1029 q 204 920 314 1029 l 193 865 q 335 945 283 945 q 424 742 408 945 l 464 237 q 572 38 479 38 q 869 331 688 38 l 812 102 q 558 -230 730 -230 q 366 -134 446 -230 l 273 -223 m 730 704 l 730 989 l 741 989 q 760 943 744 967 q 809 696 893 842 l 806 704 q 741 897 882 842 l 741 671 q 714 636 733 652 q 635 647 671 604 q 730 704 649 731 m 341 547 l 363 544 q 333 305 433 422 l 333 294 q 344 251 336 275 q 447 172 425 256 q 379 61 458 99 q 357 -80 417 -37 q 265 -50 303 -102 l 262 -37 q 336 -1 276 23 q 303 -69 363 -53 q 379 -7 385 -99 l 368 58 l 366 64 q 205 202 216 42 q 311 354 235 286 q 341 547 268 457 m 355 503 q 322 362 300 446 q 376 446 357 392 q 355 503 382 479 m 319 297 q 347 69 149 113 l 366 80 l 360 99 l 357 121 l 347 167 l 344 180 l 338 202 l 336 213 q 344 85 243 151 q 330 251 195 159 q 319 297 330 273 m 355 213 q 374 102 355 186 l 376 88 l 382 83 q 422 159 425 104 q 355 213 409 205 m 530 274 l 530 445 q 549 415 541 434 q 578 269 625 358 q 538 391 611 358 q 535 328 532 366 l 535 250 q 484 225 519 225 q 530 274 454 285 m 1025 646 l 1025 817 q 1044 787 1036 806 q 1074 640 1120 730 q 1033 762 1106 730 q 1030 700 1027 738 l 1030 621 q 979 597 1014 597 q 1025 646 949 656 m 901 111 l 901 281 q 920 252 911 271 q 949 105 996 195 q 909 227 982 195 q 906 165 903 203 l 906 86 q 854 62 890 62 q 901 111 825 121 "},"Z":{"ha":1031,"x_min":26,"x_max":1034,"o":"m 57 -17 q 309 33 229 33 q 441 17 367 33 l 532 -3 q 687 -25 635 -25 q 913 127 799 -25 l 927 195 q 742 87 845 87 q 669 96 716 87 q 606 109 619 106 l 485 130 q 369 142 410 142 q 219 122 303 142 l 959 911 l 977 1004 q 794 970 898 970 q 614 990 704 970 l 536 1008 q 450 1021 477 1021 q 241 928 345 1021 l 229 873 q 353 914 300 914 q 433 901 378 914 q 473 890 450 897 l 548 873 q 694 852 633 852 q 829 867 754 852 l 75 72 l 57 -17 m 315 789 l 355 789 l 385 781 q 236 507 540 634 l 241 517 q 374 648 334 550 q 296 767 410 791 q 282 734 279 753 q 334 691 336 726 q 269 669 315 659 q 315 789 212 745 m 461 759 q 494 745 480 762 q 477 715 494 726 q 461 759 431 721 m 461 680 q 494 667 480 683 q 477 637 494 648 q 461 680 431 642 m 917 855 l 939 852 q 909 614 1009 730 l 909 603 q 920 559 911 584 q 1023 481 1001 565 q 955 370 1034 408 q 933 229 993 272 q 841 258 879 207 l 838 272 q 911 307 852 332 q 879 239 939 256 q 955 302 960 210 l 944 367 l 941 372 q 781 511 792 351 q 887 663 811 595 q 917 855 844 766 m 930 812 q 898 671 876 755 q 952 755 933 701 q 930 812 958 787 m 895 606 q 922 378 724 421 l 941 389 l 936 408 l 933 429 l 922 475 l 920 489 l 914 511 l 911 522 q 920 394 819 459 q 906 559 770 467 q 895 606 906 581 m 930 522 q 949 410 930 494 l 952 397 l 958 391 q 998 467 1001 413 q 930 522 985 513 m 580 420 l 621 420 l 650 412 q 501 138 805 265 l 507 149 q 640 279 599 181 q 561 398 675 422 q 547 366 545 385 q 599 322 602 357 q 534 300 580 290 q 580 420 477 376 m 726 390 q 759 376 745 393 q 743 347 759 357 q 726 390 696 352 m 726 311 q 759 298 745 314 q 743 268 759 279 q 726 311 696 273 m 102 337 l 102 508 q 121 478 113 497 q 151 332 197 421 q 110 454 183 421 q 107 391 104 429 l 107 313 q 56 288 91 288 q 102 337 26 348 "},"[":{"ha":490,"x_min":105,"x_max":713,"o":"m 105 -201 l 439 -201 l 448 -159 l 231 -159 l 487 1130 l 705 1130 l 713 1171 l 378 1171 l 105 -201 "},"\\":{"ha":705,"x_min":248,"x_max":648,"o":"m 578 -201 l 648 -201 l 317 1171 l 248 1171 l 578 -201 "},"]":{"ha":490,"x_min":-30,"x_max":578,"o":"m 578 1171 l 243 1171 l 235 1130 l 452 1130 l 196 -159 l -22 -159 l -30 -201 l 305 -201 l 578 1171 "},"^":{"ha":878,"x_min":125,"x_max":861,"o":"m 125 268 l 215 268 l 613 834 l 781 268 l 861 268 l 640 1004 l 125 268 "},"_":{"ha":694,"x_min":50,"x_max":627,"o":"m 50 -88 l 610 -88 l 627 0 l 67 0 l 50 -88 "},"`":{"ha":812,"x_min":539,"x_max":766,"o":"m 766 924 q 620 1113 704 1029 l 539 1050 q 680 870 631 968 l 766 924 "},"a":{"ha":1010,"x_min":110,"x_max":995,"o":"m 667 368 l 634 201 q 618 85 618 119 q 716 -17 618 -17 q 983 142 834 -17 l 995 205 q 793 56 861 56 q 753 99 753 56 q 768 201 753 122 l 834 536 l 883 736 q 680 745 777 745 q 283 549 446 745 q 125 162 125 359 q 269 -17 125 -17 q 471 91 363 -17 q 655 368 578 198 l 667 368 m 722 640 l 691 486 q 499 206 608 328 q 331 83 389 83 q 269 190 269 83 q 355 522 269 337 q 553 677 429 677 q 722 640 636 677 m 460 583 l 501 583 l 531 575 q 382 301 686 429 l 387 312 q 520 442 479 345 q 441 562 555 586 q 428 529 425 548 q 479 486 482 521 q 414 464 460 453 q 460 583 357 540 m 607 553 q 640 540 626 556 q 623 510 640 521 q 607 553 577 515 m 607 475 q 640 461 626 477 q 623 431 640 442 q 607 475 577 437 m 882 408 l 882 451 q 896 408 904 451 q 964 340 966 405 q 915 332 942 321 q 937 375 890 367 q 896 332 890 440 l 896 237 q 953 291 942 239 l 964 291 q 953 253 964 275 q 896 220 931 229 q 882 210 890 112 l 882 223 q 847 391 768 283 l 882 408 m 882 378 l 880 389 q 882 239 833 315 l 882 378 m 186 151 l 186 322 q 205 292 197 311 q 235 146 281 235 q 194 268 267 235 q 191 205 189 243 l 191 127 q 140 102 175 102 q 186 151 110 162 "},"b":{"ha":951,"x_min":-31,"x_max":903,"o":"m 126 0 l 246 -6 q 334 -8 299 -8 q 728 186 566 -8 q 884 574 884 376 q 741 753 884 753 q 539 646 646 753 q 353 368 431 539 l 342 368 l 415 736 q 512 1035 458 956 q 674 1113 566 1113 q 810 1077 731 1113 l 903 1174 q 781 1188 848 1188 q 452 1052 587 1188 q 268 669 317 915 l 174 201 l 126 0 m 288 96 l 318 250 q 511 530 401 408 q 678 652 621 652 q 741 546 741 652 q 654 214 741 399 q 457 58 580 58 q 288 96 372 58 m 162 1179 l 184 1176 q 154 937 254 1054 l 154 926 q 165 883 157 907 q 268 804 246 888 q 200 693 279 731 q 178 552 238 595 q 86 582 124 530 l 83 595 q 157 631 97 655 q 124 563 184 579 q 200 625 205 533 l 189 690 l 186 696 q 26 834 37 674 q 132 986 56 918 q 162 1179 89 1089 m 176 1135 q 143 994 121 1078 q 176 1135 233 1076 m 140 929 q 168 701 -31 745 l 186 712 l 181 731 l 178 753 l 168 799 l 165 812 l 159 834 l 157 845 q 165 718 64 783 q 151 883 16 791 q 140 929 151 905 m 176 845 q 195 734 176 818 l 197 720 l 203 715 l 222 726 q 176 845 287 815 m 395 321 q 545 248 479 318 q 585 229 561 237 q 618 250 602 234 q 602 294 623 275 q 542 291 572 272 q 607 315 553 337 q 588 196 694 239 q 463 253 517 196 l 420 283 q 385 286 404 288 q 390 226 341 245 q 431 239 406 239 q 441 215 439 231 q 344 223 393 174 q 395 321 325 288 m 265 355 l 265 526 q 284 496 276 515 q 314 349 360 439 q 273 471 347 439 q 271 409 268 447 l 271 330 q 219 306 254 306 q 265 355 189 366 m 785 393 l 785 564 q 804 534 795 553 q 833 388 880 477 q 793 510 866 477 q 790 448 787 486 l 790 369 q 739 345 774 345 q 785 393 709 404 "},"c":{"ha":951,"x_min":92,"x_max":928,"o":"m 729 186 q 424 63 554 63 q 287 247 287 63 q 366 567 287 439 q 565 694 446 694 q 692 601 692 694 q 685 554 692 586 l 683 544 l 725 544 l 770 718 q 614 753 692 753 q 286 588 435 753 q 136 225 136 422 q 196 50 136 116 q 354 -17 256 -17 q 719 134 496 -17 l 729 186 m 551 238 l 551 523 l 562 523 q 581 477 565 501 q 630 230 714 376 l 627 238 q 562 431 703 376 l 562 205 q 535 170 554 186 q 456 181 492 138 q 551 238 470 265 m 168 586 l 168 757 q 187 727 179 746 q 217 581 263 670 q 176 703 250 670 q 174 640 171 678 l 174 562 q 122 537 157 537 q 168 586 92 597 m 833 513 l 833 684 q 852 654 844 673 q 882 508 928 597 q 841 630 914 597 q 838 568 836 606 l 838 489 q 787 465 822 465 q 833 513 757 524 "},"d":{"ha":1243,"x_min":116,"x_max":1367,"o":"m 667 368 l 634 201 q 618 85 618 119 q 716 -17 618 -17 q 982 142 834 -17 l 995 205 q 792 56 860 56 q 752 100 752 56 q 768 201 752 122 l 875 738 q 973 1034 918 955 q 1137 1113 1028 1113 q 1274 1078 1193 1113 l 1367 1174 q 1244 1188 1312 1188 q 948 1082 1082 1188 q 826 950 869 1021 q 743 745 783 879 q 526 724 601 745 q 377 643 452 703 q 196 418 266 552 q 125 163 125 285 q 269 -17 125 -17 q 470 90 363 -17 q 655 368 577 197 l 667 368 m 722 640 l 691 486 q 499 206 608 329 q 331 83 389 83 q 268 190 268 83 q 355 522 268 337 q 552 677 429 677 q 722 640 637 677 m 528 1027 l 568 1027 l 598 1019 q 449 745 753 872 l 454 755 q 587 886 547 788 q 509 1005 623 1029 q 495 972 492 991 q 547 929 549 964 q 481 907 528 897 q 528 1027 425 983 m 674 997 q 707 983 693 1000 q 690 954 707 964 q 674 997 644 959 m 674 918 q 707 905 693 921 q 690 875 707 886 q 674 918 644 880 m 1072 886 l 1094 884 q 1064 645 1164 762 l 1064 634 q 1075 591 1067 615 q 1178 512 1156 596 q 1110 401 1189 439 q 1088 260 1148 303 q 996 290 1034 238 l 994 303 q 1067 338 1007 363 q 1034 271 1094 287 q 1110 333 1116 241 l 1099 398 l 1097 404 q 937 542 947 382 q 1042 694 966 626 q 1072 886 999 797 m 1086 843 q 1053 702 1031 786 q 1107 786 1088 732 q 1086 843 1113 819 m 1050 637 q 1078 409 880 452 l 1097 420 l 1091 439 l 1088 460 l 1078 507 l 1075 520 l 1069 542 l 1067 553 q 1075 425 975 490 q 1061 591 926 498 q 1050 637 1061 612 m 1086 553 q 1105 441 1086 526 l 1107 428 l 1113 422 q 1154 498 1156 444 q 1086 553 1140 545 m 192 130 l 192 300 q 211 271 203 290 q 241 124 287 214 q 200 246 273 214 q 197 184 195 222 l 197 105 q 146 81 181 81 q 192 130 116 140 m 443 363 l 443 534 q 462 504 454 523 q 492 357 538 447 q 451 479 524 447 q 448 417 446 455 l 448 338 q 397 314 432 314 q 443 363 367 374 "},"e":{"ha":911,"x_min":-120,"x_max":804,"o":"m 730 185 q 425 61 550 61 q 279 259 279 61 l 280 290 q 597 383 465 290 q 730 607 730 477 q 693 713 730 672 q 595 753 656 753 q 283 585 429 753 q 136 225 136 416 q 196 51 136 118 q 353 -17 256 -17 q 720 133 505 -17 l 730 185 m 281 332 q 372 577 296 469 q 529 685 448 685 q 604 581 604 685 q 519 410 604 476 q 281 332 433 344 m 720 441 l 720 484 q 734 441 742 484 q 802 373 804 438 q 753 365 780 354 q 774 408 728 400 q 734 365 728 473 l 734 270 q 791 324 780 273 l 802 324 q 791 286 802 308 q 734 254 769 262 q 720 243 728 145 l 720 256 q 685 425 606 316 l 720 441 m 720 411 l 718 422 q 720 273 671 349 l 720 411 m 73 867 l 94 864 q 64 625 165 742 l 64 614 q 75 571 67 595 q 178 492 157 576 q 111 381 189 419 q 89 240 149 283 q -3 270 35 218 l -6 283 q 67 319 7 343 q 35 251 94 267 q 111 313 116 221 l 100 378 l 97 384 q -63 522 -52 362 q 43 674 -33 606 q 73 867 -1 777 m 86 823 q 54 682 32 766 q 108 766 89 712 q 86 823 113 799 m 51 617 q 78 389 -120 433 l 97 400 l 92 419 l 89 441 l 78 487 l 75 500 l 70 522 l 67 533 q 75 406 -25 471 q 62 571 -74 479 q 51 617 62 593 m 86 533 q 105 422 86 506 l 108 408 l 113 403 q 154 479 157 425 q 86 533 140 525 "},"f":{"ha":959,"x_min":-289,"x_max":923,"o":"m -289 -443 q -178 -452 -231 -452 q 157 -307 24 -452 q 336 103 291 -163 l 435 686 l 470 686 q 643 676 557 686 l 698 736 l 444 736 l 464 833 q 545 1053 496 993 q 696 1113 595 1113 q 826 1074 763 1113 l 923 1177 q 814 1188 873 1188 q 490 1065 629 1188 q 311 745 350 942 l 309 736 l 195 736 l 147 686 l 299 686 l 169 -85 q 91 -302 143 -237 q -59 -368 38 -368 q -192 -342 -127 -368 l -289 -443 m 469 4 q 494 -77 553 -7 q 442 -316 575 -208 q 423 -362 429 -335 l 415 -362 l 415 -56 l 418 -39 q 469 4 434 -9 m 429 -80 l 426 -245 l 429 -275 q 488 -80 551 -210 q 429 -80 461 -94 m 87 729 l 109 726 q 79 488 179 604 l 79 477 q 90 433 81 458 q 193 355 171 439 q 125 243 203 281 q 103 102 163 146 q 11 132 49 81 l 8 146 q 81 181 22 205 q 49 113 109 130 q 125 176 130 83 l 114 241 l 111 246 q -49 385 -38 224 q 57 536 -19 469 q 87 729 14 640 m 100 686 q 68 545 46 629 q 122 629 103 574 q 100 686 127 661 m 65 479 q 92 252 -106 295 l 111 262 l 106 281 l 103 303 l 92 349 l 90 363 l 84 385 l 81 395 q 90 268 -11 333 q 76 433 -60 341 q 65 479 76 455 m 100 395 q 119 284 100 368 l 122 271 l 127 265 q 168 341 171 287 q 100 395 155 387 m 354 591 l 354 762 q 373 732 365 751 q 403 585 449 675 q 362 707 435 675 q 359 645 357 683 l 359 566 q 308 542 343 542 q 354 591 278 602 "},"g":{"ha":1025,"x_min":-39,"x_max":997,"o":"m 211 11 q -39 -284 -39 -135 q 35 -405 -39 -359 q 229 -452 110 -452 q 553 -321 412 -452 q 686 -139 648 -232 q 761 195 724 -45 q 794 378 770 254 l 826 536 l 874 736 q 685 745 730 745 q 292 562 450 745 q 130 174 130 375 q 211 11 130 52 m 712 637 l 682 486 q 328 100 461 100 q 267 196 267 100 q 308 409 267 284 q 397 597 348 533 q 550 677 460 677 q 712 637 631 677 m 659 368 l 605 0 q 505 -299 575 -204 q 313 -393 435 -393 q 153 -346 219 -393 q 87 -230 87 -298 q 264 -2 87 -125 q 475 112 375 15 q 648 368 576 209 l 659 368 m 170 136 l 170 318 l 183 318 l 183 242 l 186 237 q 232 250 205 245 l 232 66 l 218 66 l 218 144 q 170 136 199 144 m 216 220 l 183 210 q 191 172 175 180 q 216 220 229 177 m 437 -229 l 437 -47 l 450 -47 l 450 -123 l 453 -129 q 499 -115 472 -121 l 499 -300 l 486 -300 l 486 -221 q 437 -229 467 -221 m 483 -145 l 450 -156 q 458 -194 442 -186 q 483 -145 496 -189 m 419 543 q 568 470 503 541 q 609 451 585 459 q 642 473 625 456 q 625 516 647 497 q 566 513 595 494 q 631 538 576 559 q 612 418 718 462 q 487 475 541 418 l 444 505 q 408 508 427 511 q 414 448 365 467 q 454 462 430 462 q 465 437 463 454 q 368 446 416 397 q 419 543 349 511 m 834 -58 l 834 227 l 845 227 q 864 180 848 205 q 913 -66 997 80 l 910 -58 q 845 134 986 80 l 845 -91 q 818 -126 837 -110 q 739 -115 774 -159 q 834 -58 753 -31 m 160 541 l 160 826 l 171 826 q 190 780 174 804 q 239 533 323 680 l 236 541 q 171 734 312 680 l 171 509 q 144 473 163 490 q 65 484 100 441 q 160 541 79 568 "},"h":{"ha":1023,"x_min":117,"x_max":996,"o":"m 117 -8 l 260 0 l 309 242 q 669 653 540 653 q 709 598 709 653 q 702 533 709 572 l 635 201 q 620 85 620 119 q 718 -17 620 -17 q 984 142 836 -17 l 996 205 q 794 56 862 56 q 754 99 754 56 q 770 201 754 123 l 836 532 q 847 629 847 589 q 735 753 847 753 q 536 647 644 753 q 345 368 429 542 l 334 368 l 408 736 q 505 1035 451 956 q 667 1113 559 1113 q 803 1077 724 1113 l 896 1174 q 774 1188 841 1188 q 445 1052 580 1188 q 260 669 309 915 l 168 201 l 117 -8 m 637 960 q 787 886 722 957 q 827 867 803 876 q 860 889 844 873 q 844 932 865 913 q 784 930 814 911 q 849 954 795 976 q 830 835 936 878 q 705 892 760 835 l 662 922 q 627 924 646 927 q 632 865 583 884 q 673 878 648 878 q 684 854 681 870 q 586 862 635 813 q 637 960 567 927 m 507 545 l 528 543 q 498 304 599 420 l 498 293 q 509 250 501 274 q 612 171 591 255 q 545 60 623 98 q 523 -81 583 -38 q 431 -52 469 -103 l 428 -38 q 501 -3 441 22 q 469 -71 528 -54 q 545 -8 550 -100 l 534 57 l 531 62 q 371 201 382 41 q 477 353 401 285 q 507 545 433 456 m 520 502 q 488 361 466 445 q 542 445 523 391 q 520 502 547 477 m 485 296 q 512 68 314 111 l 531 79 l 526 98 l 523 119 l 512 165 l 509 179 l 504 201 l 501 212 q 509 84 409 149 q 496 250 360 157 q 485 296 496 271 m 520 212 q 539 100 520 184 l 542 87 l 547 81 q 588 157 591 103 q 520 212 574 203 "},"i":{"ha":633,"x_min":115,"x_max":730,"o":"m 601 205 q 399 56 466 56 q 359 100 359 56 q 374 201 359 122 l 441 536 l 492 753 l 161 644 l 153 602 q 262 626 231 626 q 306 569 306 626 q 287 435 306 536 l 240 199 q 224 85 224 120 q 322 -17 224 -17 q 589 142 440 -17 l 601 205 m 352 871 l 530 963 l 589 1088 l 397 963 l 352 871 m 605 926 l 627 923 q 597 684 697 801 l 597 673 q 608 630 600 654 q 711 551 689 635 q 643 440 722 478 q 621 299 681 342 q 529 329 567 277 l 526 342 q 600 378 540 402 q 567 310 627 326 q 643 372 648 280 l 632 437 l 629 443 q 469 581 480 421 q 575 733 499 665 q 605 926 532 836 m 618 882 q 586 741 564 825 q 618 882 675 823 m 583 676 q 610 448 412 492 l 629 459 l 624 478 l 621 500 l 610 546 l 608 559 l 602 581 l 600 592 q 608 465 507 530 q 594 630 458 538 q 583 676 594 652 m 618 592 q 637 481 618 565 l 640 467 l 646 462 l 665 473 q 618 592 730 562 m 210 772 l 210 1057 l 221 1057 q 240 1011 224 1036 q 289 764 373 911 l 286 772 q 221 965 362 911 l 221 740 q 194 705 213 721 q 115 715 151 672 q 210 772 129 800 "},"j":{"ha":909,"x_min":-296,"x_max":583,"o":"m -296 -437 q -180 -452 -241 -452 q 145 -323 7 -452 q 269 -156 227 -248 q 347 115 311 -65 l 430 536 l 481 753 l 150 644 l 142 602 q 251 626 220 626 q 294 569 294 626 q 276 435 294 536 l 171 -94 q -63 -376 115 -376 q -204 -341 -134 -376 l -296 -437 m 336 871 l 515 963 l 575 1088 l 381 963 l 336 871 m 118 823 l 118 1107 l 129 1107 q 148 1061 132 1086 q 197 814 281 961 l 194 823 q 129 1015 270 961 l 129 790 q 102 755 121 771 q 23 766 58 722 q 118 823 37 850 m -141 -127 q 8 -200 -57 -130 q 49 -219 24 -211 q 81 -197 65 -214 q 65 -154 87 -173 q 5 -157 35 -176 q 71 -132 16 -111 q 52 -252 157 -208 q -73 -195 -19 -252 l -117 -165 q -152 -162 -133 -159 q -146 -222 -195 -203 q -106 -208 -130 -208 q -95 -233 -98 -216 q -193 -224 -144 -273 q -141 -127 -212 -159 m 420 -240 l 420 45 l 431 45 q 450 -1 433 23 q 498 -248 583 -102 l 496 -240 q 431 -47 572 -102 l 431 -273 q 404 -308 422 -292 q 325 -297 360 -340 q 420 -240 338 -213 "},"k":{"ha":969,"x_min":122,"x_max":974,"o":"m 122 -8 l 266 0 l 332 330 q 560 47 494 111 q 691 -17 626 -17 q 907 109 772 -17 l 916 157 q 769 75 828 75 q 484 342 676 75 q 750 449 656 371 q 844 642 844 527 q 729 753 844 753 q 521 666 625 753 q 353 440 417 580 l 345 440 l 412 736 q 470 961 451 907 q 524 1051 490 1015 q 672 1113 582 1113 q 808 1077 728 1113 l 901 1174 q 779 1188 846 1188 q 449 1052 585 1188 q 265 669 314 915 l 172 201 l 122 -8 m 339 368 q 658 686 543 686 q 711 619 711 686 q 607 437 711 514 q 361 359 503 359 l 338 359 l 339 368 m 749 422 l 789 422 l 819 414 q 670 140 974 268 q 716 170 684 159 q 746 192 727 181 q 765 208 760 205 q 789 238 776 219 q 800 387 836 309 q 732 401 773 414 q 735 360 697 376 q 768 319 770 357 q 686 322 727 279 q 749 422 675 393 m 895 393 q 928 379 914 395 q 911 349 928 360 q 895 393 865 355 m 895 314 q 928 300 914 317 q 911 271 928 281 q 895 314 865 276 m 526 947 q 675 874 610 945 q 716 855 692 863 q 749 877 732 861 q 732 920 754 901 q 673 918 703 899 q 738 942 684 964 q 719 823 825 866 q 594 880 648 823 l 551 909 q 515 912 534 915 q 521 852 472 871 q 562 866 537 866 q 572 842 570 858 q 475 850 524 801 q 526 947 456 915 m 222 91 l 222 262 q 241 232 233 251 q 271 85 317 175 q 230 208 303 175 q 227 145 224 183 l 227 66 q 176 42 211 42 q 222 91 146 102 "},"l":{"ha":693,"x_min":-25,"x_max":904,"o":"m 545 209 q 509 177 519 186 q 334 56 379 56 q 294 99 294 56 q 309 201 294 123 l 416 736 q 513 1034 459 956 q 675 1113 568 1113 q 811 1077 732 1113 l 904 1174 q 782 1188 850 1188 q 453 1052 588 1188 q 269 669 317 915 l 176 201 q 161 87 161 130 q 258 -17 161 -17 q 533 146 373 -17 l 545 209 m 627 918 l 627 961 q 641 918 649 961 q 709 850 711 915 q 660 842 687 831 q 682 885 635 877 q 641 842 635 950 l 641 747 q 698 801 687 749 l 709 801 q 698 763 709 785 q 641 730 676 739 q 627 720 635 622 l 627 733 q 592 901 513 793 l 627 918 m 627 888 l 625 899 q 627 749 578 825 l 627 888 m 270 1174 q 294 1093 354 1163 q 243 854 376 962 q 224 808 229 835 l 216 808 l 216 1114 l 218 1131 q 270 1174 235 1160 m 229 1090 q 229 1025 224 1063 l 227 1017 l 227 897 q 289 1090 357 954 q 229 1090 262 1076 m 89 347 l 89 390 q 102 347 111 390 q 170 279 173 344 q 121 271 149 260 q 143 314 97 306 q 102 271 97 379 l 102 176 q 159 230 149 178 l 170 230 q 159 192 170 214 q 102 159 138 168 q 89 149 97 51 l 89 162 q 54 330 -25 222 l 89 347 m 89 317 l 86 328 q 89 178 40 254 l 89 317 "},"m":{"ha":1510,"x_min":73,"x_max":1497,"o":"m 182 -8 l 325 0 l 374 240 q 568 534 469 414 q 718 653 667 653 q 759 595 759 653 q 750 530 759 575 l 644 -8 l 777 0 l 827 245 q 1169 653 1051 653 q 1211 597 1211 653 q 1202 532 1211 576 l 1136 201 q 1120 85 1120 119 q 1218 -17 1120 -17 q 1485 142 1337 -17 l 1497 205 q 1295 56 1362 56 q 1255 99 1255 56 q 1270 201 1255 123 l 1336 532 q 1347 625 1347 587 q 1227 753 1347 753 q 1039 645 1141 753 q 861 368 937 538 l 852 368 l 884 533 q 896 627 896 588 q 865 717 896 681 q 789 753 834 753 q 599 649 702 753 q 410 368 496 545 l 400 368 l 433 536 q 449 650 449 616 q 351 753 449 753 q 85 593 233 753 l 73 531 q 275 680 208 680 q 315 637 315 680 q 299 536 315 614 l 233 201 l 182 -8 m 550 370 q 574 289 634 359 q 523 50 656 159 q 504 4 509 31 l 496 4 l 496 311 l 498 327 q 550 370 515 357 m 509 286 l 507 121 l 509 91 q 569 286 631 156 q 509 286 542 273 m 954 844 l 954 887 q 968 844 976 887 q 1036 776 1038 841 q 987 768 1014 757 q 1008 811 962 803 q 968 768 962 876 l 968 673 q 1025 727 1014 675 l 1036 727 q 1025 689 1036 711 q 968 656 1003 665 q 954 646 962 548 l 954 659 q 919 827 840 719 l 954 844 m 954 814 l 951 825 q 954 675 905 751 l 954 814 m 1038 275 l 1038 559 l 1048 559 q 1067 513 1051 538 q 1116 267 1200 413 l 1114 275 q 1048 467 1190 413 l 1048 242 q 1021 207 1040 223 q 943 218 978 174 q 1038 275 956 302 "},"n":{"ha":1085,"x_min":54,"x_max":1062,"o":"m 182 -8 l 326 0 l 375 242 q 734 653 605 653 q 775 598 775 653 q 767 533 775 572 l 701 201 q 685 85 685 119 q 783 -17 685 -17 q 1049 142 901 -17 l 1062 205 q 859 56 927 56 q 819 99 819 56 q 835 201 819 122 l 901 532 q 912 629 912 589 q 801 753 912 753 q 602 647 709 753 q 410 368 495 542 l 400 368 l 433 536 q 449 651 449 616 q 351 753 449 753 q 85 593 233 753 l 73 531 q 275 680 208 680 q 315 637 315 680 q 299 536 315 614 l 233 201 l 182 -8 m 108 464 q 132 382 192 453 q 81 144 214 252 q 62 98 67 125 l 54 98 l 54 404 l 56 420 q 108 464 73 450 m 67 380 l 64 214 l 67 184 q 127 380 189 250 q 67 380 100 366 m 412 110 q 561 37 496 107 q 602 18 577 26 q 634 39 618 23 q 618 83 640 64 q 558 80 588 61 q 623 104 569 126 q 604 -15 710 28 q 479 42 534 -15 l 436 72 q 401 75 420 77 q 406 15 357 34 q 447 28 422 28 q 458 4 455 20 q 360 12 409 -37 q 412 110 341 77 m 522 823 l 522 867 q 536 823 544 867 q 604 755 606 821 q 555 747 582 736 q 576 791 530 783 q 536 747 530 856 l 536 652 q 593 707 582 655 l 604 707 q 593 669 604 690 q 536 636 571 644 q 522 625 530 528 l 522 639 q 487 807 408 699 l 522 823 m 522 793 l 519 804 q 522 655 473 731 l 522 793 "},"o":{"ha":789,"x_min":26,"x_max":763,"o":"m 284 -21 q 615 142 467 -21 q 763 508 763 305 q 702 681 763 613 q 547 749 641 749 q 224 583 372 749 q 77 222 77 417 q 136 48 77 118 q 284 -21 195 -21 m 421 42 q 285 262 285 42 q 362 563 285 429 q 537 696 440 696 q 674 471 674 696 q 598 171 674 300 q 421 42 522 42 m 185 233 l 185 414 l 199 414 l 199 338 l 201 333 q 248 347 220 341 l 248 162 l 234 162 l 234 241 q 185 233 215 241 m 231 317 l 199 306 q 207 268 191 276 q 231 317 245 273 m 541 500 l 541 682 l 554 682 l 554 606 l 557 601 q 603 614 576 609 l 603 430 l 589 430 l 589 509 q 541 500 570 509 m 587 585 l 554 574 q 562 536 546 544 q 587 585 600 541 m 375 320 q 524 247 459 317 q 565 228 541 236 q 597 250 581 233 q 581 293 603 274 q 522 290 551 271 q 587 315 532 336 q 568 195 673 239 q 443 252 497 195 l 399 282 q 364 285 383 288 q 370 225 321 244 q 410 239 386 239 q 421 214 418 231 q 323 222 372 174 q 375 320 304 288 m 121 600 l 121 884 l 132 884 q 151 838 135 863 q 200 591 284 738 l 197 600 q 132 792 273 738 l 132 567 q 105 532 124 548 q 26 543 62 499 q 121 600 40 627 "},"p":{"ha":918,"x_min":-538,"x_max":694,"o":"m -538 -418 q -434 -430 -483 -430 q -107 -314 -239 -430 q 79 22 25 -197 q 102 19 94 20 q 179 12 160 12 q 529 199 364 12 q 694 595 694 386 q 550 774 694 774 q 348 668 456 774 q 163 390 241 561 l 152 390 l 185 555 l 237 774 l -94 666 l -103 624 q 7 648 -24 648 q 50 591 50 648 q 32 457 50 557 l -73 -68 q -302 -355 -130 -355 q -446 -321 -377 -355 l -538 -418 m 131 130 l 161 283 q 355 564 245 441 q 522 686 464 686 q 585 580 585 686 q 497 248 585 433 q 300 92 423 92 q 131 130 216 92 m 239 142 l 239 324 l 253 324 l 253 248 l 256 243 q 302 256 275 251 l 302 72 l 288 72 l 288 151 q 239 142 269 151 m 286 220 l 254 210 q 262 172 245 180 q 286 220 300 177 m 604 460 l 604 642 l 618 642 l 618 566 l 621 560 q 667 574 640 568 l 667 389 l 653 389 l 653 468 q 604 460 634 468 m 650 538 l 617 528 q 625 490 609 498 q 650 538 663 495 m 319 912 l 319 956 q 333 912 341 956 q 401 844 404 909 q 352 836 379 825 q 374 880 328 871 q 333 836 328 945 l 333 741 q 390 795 379 744 l 401 795 q 390 758 401 779 q 333 725 368 733 q 319 714 328 616 l 319 728 q 284 896 205 787 l 319 912 m 309 888 l 306 899 q 309 750 260 826 l 309 888 m 292 -60 l 333 -60 l 363 -68 q 214 -342 517 -214 l 219 -331 q 352 -201 311 -298 q 273 -81 387 -57 q 260 -114 257 -95 q 311 -157 314 -122 q 246 -179 292 -190 q 292 -60 189 -103 m 450 -124 q 483 -138 469 -121 q 467 -168 483 -157 q 450 -124 420 -162 m 456 -197 q 489 -211 475 -195 q 473 -241 489 -230 q 456 -197 427 -235 "},"q":{"ha":1104,"x_min":37,"x_max":1027,"o":"m 659 368 l 539 -234 l 488 -452 l 826 -351 l 836 -303 q 724 -326 764 -326 q 677 -267 677 -326 q 705 -73 677 -213 l 827 536 l 875 736 q 677 745 758 745 q 282 549 444 745 q 125 162 125 359 q 267 -17 125 -17 q 467 91 359 -17 q 650 368 574 199 l 659 368 m 713 639 l 682 486 q 519 238 653 416 q 330 83 404 83 q 268 189 268 83 q 355 522 268 336 q 548 677 429 677 q 713 639 639 677 m 902 400 l 924 397 q 894 159 994 275 l 894 148 q 905 104 897 129 q 1008 26 986 110 q 940 -85 1019 -47 q 918 -227 978 -183 q 826 -197 864 -248 l 823 -183 q 897 -148 837 -123 q 864 -216 924 -199 q 940 -153 945 -245 l 929 -88 l 926 -83 q 766 56 777 -104 q 872 208 796 140 q 902 400 829 311 m 916 357 q 883 216 861 300 q 916 357 972 297 m 880 151 q 907 -77 709 -34 l 926 -66 l 921 -47 l 918 -26 l 907 20 l 905 34 l 899 56 l 897 66 q 905 -61 804 4 q 891 104 755 12 q 880 151 891 126 m 916 66 q 935 -45 916 39 l 937 -58 l 943 -64 l 962 -53 q 916 66 1027 37 m 387 -195 l 387 -24 q 406 -54 397 -35 q 435 -200 481 -111 q 395 -78 468 -111 q 392 -140 389 -102 l 392 -219 q 340 -243 376 -243 q 387 -195 311 -184 m 113 524 l 113 695 q 132 665 124 684 q 162 519 208 608 q 121 641 195 608 q 119 578 116 616 l 119 500 q 67 475 102 475 q 113 524 37 535 m 520 382 l 520 553 q 539 523 531 542 q 569 376 615 466 q 528 498 602 466 q 526 436 523 474 l 526 357 q 474 333 509 333 q 520 382 444 393 m 595 -334 l 595 -163 q 614 -193 606 -174 q 644 -340 690 -250 q 603 -218 676 -250 q 600 -280 597 -242 l 600 -359 q 549 -383 584 -383 q 595 -334 519 -323 m 194 129 l 194 300 q 213 270 205 289 q 243 123 289 213 q 202 245 275 213 q 199 183 197 221 l 199 104 q 148 80 183 80 q 194 129 118 140 "},"r":{"ha":964,"x_min":6,"x_max":895,"o":"m 191 -8 l 335 0 l 385 248 q 736 636 604 636 q 804 610 764 636 l 895 732 q 810 753 857 753 q 608 645 718 753 q 417 368 498 538 l 408 368 l 441 532 q 453 642 453 592 q 355 753 453 753 q 83 585 240 753 l 71 524 q 277 677 205 677 q 317 619 317 677 q 307 532 317 583 l 241 201 l 191 -8 m 621 223 l 621 508 l 631 508 q 650 462 634 486 q 699 215 783 361 l 696 223 q 631 416 772 361 l 631 191 q 604 155 623 172 q 526 166 561 123 q 621 223 539 250 m 476 838 q 625 764 560 835 q 666 745 642 753 q 699 767 682 751 q 682 810 704 791 q 623 808 652 789 q 688 832 633 854 q 669 713 774 756 q 544 770 598 713 l 500 800 q 465 802 484 805 q 471 743 422 762 q 511 756 487 756 q 522 732 519 748 q 425 740 473 691 q 476 838 406 805 m 101 208 l 101 492 l 112 492 q 131 446 115 471 q 180 199 264 346 l 177 208 q 112 400 253 346 l 112 175 q 85 140 104 156 q 6 151 41 107 q 101 208 20 235 "},"s":{"ha":780,"x_min":-82,"x_max":756,"o":"m 47 23 q 237 -17 151 -17 q 456 54 359 -17 q 552 216 552 125 q 461 385 552 282 l 406 446 q 327 589 327 535 q 459 694 327 694 q 577 603 577 694 q 576 589 577 595 l 574 577 l 616 577 l 646 727 q 508 753 570 753 q 308 681 395 753 q 220 517 220 610 q 311 352 220 451 l 372 284 q 449 153 449 201 q 410 80 449 109 q 315 50 372 50 q 136 115 224 50 l 47 23 m 179 342 q 212 328 198 345 q 195 298 212 309 q 179 342 149 304 m 172 269 q 204 256 191 272 q 188 226 204 237 q 172 269 142 231 m 21 399 l 62 399 l 92 391 q -58 117 246 244 l -52 127 q 81 258 40 160 q 2 377 116 401 q -12 345 -14 363 q 40 301 43 336 q -25 279 21 269 q 21 399 -82 355 m 479 622 l 479 665 q 492 622 500 665 q 560 554 563 619 q 511 546 538 535 q 533 589 487 581 q 492 546 487 654 l 492 451 q 549 505 538 454 l 560 505 q 549 467 560 489 q 492 435 528 443 q 479 424 487 326 l 479 437 q 444 606 365 497 l 479 622 m 479 592 l 476 603 q 479 454 430 530 l 479 592 m 593 53 l 593 338 l 604 338 q 623 292 607 316 q 672 45 756 191 l 669 53 q 604 245 745 191 l 604 20 q 577 -15 596 1 q 498 -4 534 -47 q 593 53 512 80 "},"t":{"ha":817,"x_min":-56,"x_max":708,"o":"m 309 686 l 218 231 q 203 111 203 156 q 318 -17 203 -17 q 571 113 439 -17 l 583 176 q 383 67 456 67 q 336 121 336 67 q 350 222 336 150 l 442 686 l 497 686 q 652 677 565 686 l 708 736 l 452 736 l 497 962 l 357 928 l 318 736 l 200 736 l 153 686 l 309 686 m 566 582 l 566 625 q 579 582 587 625 q 647 514 650 579 q 598 506 625 495 q 620 549 574 541 q 579 506 574 614 l 579 411 q 636 465 625 414 l 647 465 q 636 427 647 449 q 579 395 614 403 q 566 384 574 286 l 566 397 q 530 566 452 457 l 566 582 m 566 552 l 563 563 q 566 414 517 490 l 566 552 m 165 767 l 165 1052 l 176 1052 q 195 1006 179 1030 q 244 759 328 905 l 241 767 q 176 960 317 905 l 176 734 q 149 699 168 715 q 71 710 106 667 q 165 767 84 794 m 47 484 l 87 484 l 117 475 q -32 201 272 329 l -26 212 q 106 342 66 245 q 28 462 142 486 q 14 429 12 448 q 66 386 68 421 q 1 364 47 353 q 47 484 -56 440 m 193 454 q 226 440 212 456 q 210 410 226 421 q 193 454 163 416 m 193 375 q 226 361 212 378 q 210 332 226 342 q 193 375 163 337 "},"u":{"ha":1118,"x_min":72,"x_max":1158,"o":"m 718 368 l 684 201 q 667 85 667 120 q 766 -17 667 -17 q 1032 142 884 -17 l 1044 205 q 842 56 909 56 q 802 99 802 56 q 818 201 802 123 l 884 536 l 935 745 l 791 736 l 742 493 q 552 207 655 330 q 397 83 448 83 q 357 138 357 83 q 366 202 357 157 l 433 536 q 449 651 449 617 q 351 753 449 753 q 84 593 232 753 l 72 531 q 274 680 208 680 q 314 637 314 680 q 298 536 314 614 l 233 203 q 222 111 222 148 q 330 -17 222 -17 q 706 368 513 -17 l 718 368 m 545 651 q 570 570 629 640 q 518 331 651 439 q 499 285 505 312 l 491 285 l 491 591 l 494 608 q 545 651 510 637 m 505 567 l 502 401 l 505 372 q 564 567 627 437 q 505 567 537 553 m 492 842 q 641 768 576 839 q 682 749 657 758 q 714 771 698 755 q 698 814 720 795 q 638 812 668 793 q 703 836 649 858 q 684 717 790 760 q 559 774 614 717 l 516 804 q 481 806 500 809 q 486 747 437 766 q 527 760 503 760 q 538 736 535 752 q 440 744 489 695 q 492 842 421 809 m 932 471 l 973 471 l 1003 463 q 854 189 1158 317 l 859 200 q 992 330 951 233 q 913 450 1027 474 q 900 417 897 436 q 951 374 954 409 q 886 352 932 341 q 932 471 829 428 m 1079 441 q 1112 428 1098 444 q 1095 398 1112 409 q 1079 441 1049 404 m 1079 363 q 1112 349 1098 366 q 1095 319 1112 330 q 1079 363 1049 325 m 289 188 l 289 359 q 308 329 300 348 q 338 182 384 272 q 297 304 370 272 q 294 242 292 280 l 294 163 q 243 139 278 139 q 289 188 213 199 "},"v":{"ha":1021,"x_min":41,"x_max":984,"o":"m 420 -17 l 493 0 l 736 283 q 938 534 891 463 q 984 663 984 606 q 951 753 984 703 l 806 736 q 850 623 850 687 q 603 189 850 488 l 547 122 l 547 159 q 312 753 547 753 q 83 591 206 753 l 64 490 q 243 653 158 653 q 375 498 326 653 q 424 75 424 343 l 420 -17 m 111 406 q 260 332 195 403 q 301 313 277 321 q 334 335 317 319 q 317 378 339 359 q 258 376 288 357 q 323 400 269 422 q 304 281 410 324 q 179 338 233 281 l 136 368 q 100 370 119 373 q 106 311 57 330 q 146 324 122 324 q 157 300 155 316 q 60 308 109 259 q 111 406 41 373 m 655 961 l 677 958 q 647 720 747 836 l 647 709 q 658 665 650 690 q 761 587 739 671 q 693 475 772 513 q 671 334 731 378 q 579 364 617 313 l 576 378 q 650 413 590 437 q 617 345 677 361 q 693 408 699 315 l 682 473 l 680 478 q 519 616 530 456 q 625 768 549 701 q 655 961 582 871 m 669 918 q 636 777 614 861 q 690 861 671 806 q 669 918 696 893 m 633 711 q 661 484 463 527 l 680 494 l 674 513 l 671 535 l 661 581 l 658 595 l 652 616 l 650 627 q 658 500 557 565 q 644 665 509 573 q 633 711 644 687 m 669 627 q 688 516 669 600 l 690 503 l 696 497 q 736 573 739 519 q 669 627 723 619 "},"w":{"ha":1324,"x_min":70,"x_max":1316,"o":"m 401 -17 l 475 0 q 785 517 622 178 q 820 65 820 341 l 818 -17 l 886 0 l 1013 174 l 1049 223 q 1254 524 1192 415 q 1316 687 1316 633 q 1305 745 1316 713 l 1153 736 q 1183 637 1183 680 q 1114 422 1183 564 q 945 153 1044 281 q 853 745 945 447 l 790 730 q 528 136 758 465 l 528 205 q 320 753 528 753 q 87 583 208 753 l 70 491 q 255 656 176 656 q 372 538 339 656 q 405 117 405 420 q 401 -17 405 50 m 438 198 l 438 380 l 452 380 l 452 304 l 454 298 q 500 312 473 307 l 500 127 l 487 127 l 487 206 q 438 198 468 206 m 484 282 l 452 271 q 460 233 444 241 q 484 282 498 239 m 1015 553 l 1015 734 l 1029 734 l 1029 659 l 1031 653 q 1078 667 1050 661 l 1078 482 l 1064 482 l 1064 561 q 1015 553 1045 561 m 1061 637 l 1029 626 q 1037 588 1021 596 q 1061 637 1075 593 m 517 748 q 667 675 602 745 q 707 656 683 664 q 740 677 724 661 q 724 721 745 702 q 664 718 694 699 q 729 743 675 764 q 710 623 816 667 q 585 680 640 623 l 542 710 q 507 713 526 715 q 512 653 463 672 q 553 667 528 667 q 564 642 561 659 q 466 650 515 602 q 517 748 447 715 m 283 300 l 283 343 q 296 300 304 343 q 364 232 367 297 q 315 224 342 213 q 337 267 291 259 q 296 224 291 332 l 296 129 q 353 183 342 132 l 364 183 q 353 145 364 167 q 296 113 332 121 q 283 102 291 4 l 283 115 q 248 283 169 175 l 283 300 m 283 270 l 280 281 q 283 132 234 208 l 283 270 "},"x":{"ha":1059,"x_min":94,"x_max":1086,"o":"m 94 0 q 166 -17 138 -17 q 473 233 277 -17 l 528 302 l 615 95 q 739 -17 663 -17 q 923 97 819 -17 l 939 178 q 805 77 853 77 q 734 162 770 77 l 633 399 l 665 438 q 930 624 817 624 q 983 607 956 624 l 1053 730 q 983 753 1017 753 q 659 500 857 753 l 614 444 l 537 621 q 414 753 479 753 q 244 623 343 753 l 227 534 q 350 644 309 644 q 418 562 383 644 l 510 345 l 469 296 q 211 110 314 110 q 154 124 179 110 l 94 0 m 309 519 q 333 437 393 508 q 281 199 414 307 q 262 153 268 180 l 254 153 l 254 459 l 257 475 q 309 519 273 505 m 268 435 l 265 269 l 268 239 q 328 435 390 304 q 268 435 300 421 m 659 670 l 659 955 l 669 955 q 688 909 672 933 q 737 662 821 808 l 734 670 q 669 863 810 808 l 669 637 q 642 602 661 618 q 564 613 599 570 q 659 670 577 697 m 861 441 l 901 441 l 931 433 q 782 159 1086 287 l 787 170 q 920 300 880 203 q 842 420 956 444 q 828 387 825 406 q 880 344 882 379 q 814 322 861 311 q 861 441 758 398 m 1007 412 q 1040 398 1026 414 q 1023 368 1040 379 q 1007 412 977 374 m 1007 333 q 1040 319 1026 336 q 1023 290 1040 300 q 1007 333 977 295 "},"y":{"ha":1008,"x_min":36,"x_max":985,"o":"m 167 -432 q 291 -452 218 -452 q 614 -323 482 -452 q 806 51 746 -194 l 925 533 l 985 745 l 841 736 l 789 519 q 638 268 652 290 q 519 151 562 151 q 468 272 484 151 l 439 498 q 396 704 419 655 q 319 753 373 753 q 117 612 224 753 l 104 543 q 240 661 198 661 q 302 515 283 661 l 334 251 q 377 53 353 106 q 452 0 402 0 q 581 103 499 0 q 743 368 663 207 l 751 368 l 646 -65 q 551 -309 604 -242 q 404 -376 498 -376 q 260 -337 328 -376 l 167 -432 m 229 309 l 250 306 q 220 67 321 184 l 220 56 q 231 13 223 37 q 334 -66 313 18 q 267 -177 345 -139 q 245 -318 304 -275 q 153 -288 191 -340 l 150 -275 q 223 -239 163 -215 q 191 -307 250 -291 q 267 -245 272 -337 l 256 -180 l 253 -174 q 93 -36 104 -196 q 199 116 123 48 q 229 309 155 219 m 242 265 q 210 124 188 208 q 242 265 299 205 m 207 59 q 234 -169 36 -125 l 253 -158 l 248 -139 l 245 -117 l 234 -71 l 231 -58 l 226 -36 l 223 -25 q 231 -153 131 -87 q 218 13 82 -79 q 207 59 218 35 m 242 -25 q 261 -136 242 -52 l 264 -150 l 269 -155 l 288 -144 q 242 -25 353 -55 m 751 100 l 751 271 q 770 241 762 260 q 800 94 846 184 q 759 216 832 184 q 756 154 753 192 l 756 75 q 705 51 740 51 q 751 100 675 111 m 365 503 l 365 674 q 384 644 376 663 q 414 498 460 587 q 373 620 446 587 q 370 557 368 595 l 370 479 q 319 454 354 454 q 365 503 289 514 m 808 -346 l 808 -175 q 827 -205 819 -186 q 857 -351 903 -262 q 816 -229 889 -262 q 813 -292 810 -254 l 813 -370 q 762 -395 797 -395 q 808 -346 732 -335 m 511 816 q 661 743 595 813 q 701 724 677 732 q 734 745 718 729 q 718 789 739 770 q 658 786 688 767 q 723 810 669 832 q 704 691 810 734 q 579 748 633 691 l 536 778 q 500 781 519 783 q 506 721 457 740 q 547 734 522 734 q 557 710 555 726 q 460 718 509 669 q 511 816 441 783 "},"z":{"ha":845,"x_min":97,"x_max":848,"o":"m 97 -17 q 280 8 175 8 q 385 3 341 8 l 434 -1 q 527 -8 496 -8 q 798 143 653 -8 l 811 208 q 546 108 701 108 q 456 115 502 108 l 411 121 q 332 125 382 125 q 265 121 306 125 l 813 640 l 848 753 q 682 727 776 727 q 603 732 648 727 l 545 740 q 474 745 504 745 q 224 623 363 745 l 212 564 q 404 646 309 646 q 473 640 433 646 l 557 631 q 664 621 635 621 q 711 623 680 621 l 132 94 l 97 -17 m 196 271 l 196 555 l 207 555 q 226 509 210 534 q 275 262 359 409 l 272 271 q 207 463 348 409 l 207 238 q 180 203 199 219 q 101 214 136 170 q 196 271 115 298 m 538 354 q 687 281 622 351 q 728 262 703 270 q 760 283 744 267 q 744 327 766 308 q 684 324 714 305 q 749 349 695 370 q 730 229 836 273 q 606 286 660 229 l 562 316 q 527 319 546 321 q 532 259 484 278 q 573 273 549 273 q 584 248 581 264 q 486 256 535 208 q 538 354 467 321 m 605 935 l 605 979 q 618 935 627 979 q 686 867 689 932 q 637 859 665 848 q 659 903 613 895 q 618 859 613 968 l 618 764 q 675 819 665 767 l 686 819 q 675 781 686 802 q 618 748 654 756 q 605 737 613 640 l 605 751 q 570 919 491 810 l 605 935 m 605 905 l 602 916 q 605 767 556 843 l 605 905 "},"{":{"ha":490,"x_min":149,"x_max":656,"o":"m 656 1171 q 450 1097 515 1164 q 374 880 385 1029 l 366 747 q 322 547 355 593 q 188 502 290 502 l 157 502 l 149 460 l 184 460 q 291 385 291 460 q 258 251 291 345 l 211 112 q 177 -37 177 15 q 383 -201 177 -175 l 392 -159 q 286 -61 286 -138 q 311 39 286 -32 l 353 168 q 387 315 387 265 q 285 475 387 425 q 436 600 392 520 q 489 838 481 679 l 493 930 q 532 1081 498 1038 q 649 1131 566 1124 l 656 1171 "},"|":{"ha":334,"x_min":81,"x_max":427,"o":"m 81 -201 l 174 -201 l 427 1071 l 334 1071 l 81 -201 "},"}":{"ha":490,"x_min":26,"x_max":533,"o":"m 26 -201 q 234 -126 169 -193 q 308 90 298 -59 l 317 223 q 360 423 327 378 q 495 469 393 469 l 525 469 l 533 511 l 499 511 q 392 586 392 511 q 425 720 392 625 l 472 859 q 505 1008 505 956 q 299 1171 505 1147 l 291 1130 q 397 1031 397 1107 q 372 931 397 1002 l 329 803 q 296 655 296 705 q 398 495 296 546 q 246 371 291 450 q 194 133 201 291 l 189 41 q 151 -110 184 -66 q 34 -159 117 -154 l 26 -201 "},"~":{"ha":878,"x_min":130,"x_max":907,"o":"m 130 297 l 172 297 q 307 436 228 436 q 448 374 343 436 l 523 332 q 684 276 620 276 q 907 498 840 276 l 865 498 q 731 366 808 366 q 590 420 684 366 l 515 463 q 352 528 403 528 q 130 297 189 528 "},"":{"ha":694,"x_min":62,"x_max":1434,"o":"m 62 57 q 279 -25 153 -25 q 507 49 411 -25 q 709 309 602 123 l 1079 309 l 1107 -25 l 1418 26 l 1427 71 q 1348 67 1359 67 q 1258 119 1283 67 q 1220 334 1234 171 l 1181 803 l 1172 1029 l 1034 1004 q 933 996 966 998 q 680 945 767 985 q 528 813 592 906 q 456 602 469 730 l 589 668 q 666 870 589 800 q 885 941 743 941 q 1012 932 938 941 l 720 428 q 510 133 597 216 q 322 50 422 50 q 153 149 218 50 l 62 57 m 739 359 l 1031 869 l 1074 359 l 739 359 m 371 716 l 393 713 q 363 475 463 591 l 363 464 q 374 420 366 445 q 477 342 455 426 q 409 231 488 269 q 387 90 447 133 q 295 119 333 68 l 292 133 q 366 168 306 193 q 333 100 393 117 q 409 163 414 71 l 398 228 l 395 233 q 235 372 246 212 q 341 524 265 456 q 371 716 298 627 m 385 673 q 352 532 330 616 q 385 673 441 613 m 349 467 q 376 239 178 282 l 395 250 l 390 269 l 387 290 l 376 336 l 374 350 l 368 372 l 366 382 q 374 255 273 320 q 360 420 224 328 q 349 467 360 442 m 385 382 q 404 271 385 355 l 406 258 l 412 252 l 431 263 q 385 382 496 353 m 1329 970 q 1353 889 1413 960 q 1301 650 1434 759 q 1282 604 1288 631 l 1274 604 l 1274 911 l 1277 927 q 1329 970 1293 957 m 1288 886 l 1285 721 l 1288 691 q 1348 886 1410 756 q 1288 886 1320 873 m 766 264 q 915 191 850 261 q 956 172 931 180 q 988 193 972 177 q 972 237 994 218 q 912 234 942 215 q 977 258 923 280 q 958 139 1064 182 q 833 196 888 139 l 790 226 q 755 229 774 231 q 760 169 711 188 q 801 182 777 182 q 812 158 809 174 q 714 166 763 117 q 766 264 695 231 m 1161 135 l 1161 306 q 1180 276 1172 295 q 1210 130 1256 219 q 1169 252 1242 219 q 1166 189 1164 227 l 1166 111 q 1115 86 1150 86 q 1161 135 1085 146 m 1116 677 l 1116 848 q 1135 818 1127 837 q 1165 671 1211 761 q 1124 793 1198 761 q 1122 731 1119 769 l 1122 652 q 1070 628 1105 628 q 1116 677 1040 688 m 899 1088 l 1003 1162 l 922 1272 l 816 1191 l 899 1088 m 1223 1088 l 1328 1164 l 1247 1272 l 1141 1193 l 1223 1088 "},"":{"ha":1354,"x_min":62,"x_max":1427,"o":"m 62 57 q 279 -25 153 -25 q 507 49 411 -25 q 709 309 602 123 l 1079 309 l 1107 -25 l 1418 26 l 1427 71 q 1348 67 1359 67 q 1258 119 1283 67 q 1220 334 1234 171 l 1181 803 l 1176 1026 q 1204 1101 1204 1061 q 1173 1175 1204 1144 q 1099 1205 1142 1205 q 1025 1174 1056 1205 q 995 1101 995 1143 q 1053 1009 995 1040 l 1034 1004 q 933 996 966 998 q 680 945 767 985 q 528 813 592 906 q 456 602 469 730 l 589 668 q 666 870 589 800 q 885 941 743 941 q 1012 932 938 941 l 720 428 q 510 133 597 216 q 322 50 422 50 q 153 149 218 50 l 62 57 m 739 359 l 1031 869 l 1074 359 l 739 359 m 1041 1100 q 1099 1159 1041 1159 q 1158 1100 1158 1159 q 1099 1042 1158 1042 q 1041 1100 1041 1042 "},"":{"ha":949,"x_min":157,"x_max":1080,"o":"m 903 62 l 916 126 q 596 50 747 50 q 385 134 462 50 q 308 365 308 218 q 357 622 308 486 q 483 849 406 758 q 755 987 600 987 q 922 951 858 987 q 987 855 987 914 q 980 803 987 835 l 1023 803 l 1080 989 q 789 1029 946 1029 q 340 829 523 1029 q 157 337 157 629 q 243 77 157 164 q 513 -26 329 -11 l 459 -106 q 551 -163 551 -111 q 492 -212 551 -212 q 435 -191 466 -212 l 382 -263 q 446 -268 412 -268 q 564 -227 511 -268 q 617 -138 617 -186 q 549 -62 617 -80 l 574 -24 q 903 62 727 -10 "},"":{"ha":694,"x_min":142,"x_max":1132,"o":"m 142 0 l 733 -24 l 764 -25 q 990 96 870 -25 l 1001 151 q 794 75 905 75 l 723 77 l 397 90 q 553 233 505 161 q 625 429 602 305 l 640 502 l 673 502 q 883 482 729 502 l 952 552 l 650 552 l 728 954 l 749 954 q 973 933 911 954 q 1034 859 1034 913 q 1029 812 1034 838 l 1072 812 l 1132 1004 l 733 1004 q 305 905 450 1004 q 144 602 161 807 l 275 665 l 275 680 q 361 876 275 801 q 587 951 448 951 l 464 331 q 396 143 435 186 q 254 100 357 100 l 243 100 l 142 0 m 351 598 q 375 517 435 587 q 323 278 456 387 q 304 232 310 259 l 296 232 l 296 538 l 299 555 q 351 598 315 585 m 310 514 l 307 349 l 310 319 q 370 514 432 384 q 310 514 342 500 m 770 852 q 919 779 854 850 q 960 760 935 768 q 992 782 976 766 q 976 825 998 806 q 916 823 946 804 q 981 847 927 869 q 962 728 1068 771 q 838 785 892 728 l 794 814 q 759 817 778 820 q 764 758 715 777 q 805 771 781 771 q 816 747 813 763 q 718 755 767 706 q 770 852 699 820 m 840 336 l 840 379 q 853 336 861 379 q 921 268 924 333 q 872 260 899 249 q 894 303 848 295 q 853 260 848 368 l 853 165 q 910 219 899 168 l 921 219 q 910 181 921 203 q 853 149 888 157 q 840 138 848 40 l 840 151 q 804 319 726 211 l 840 336 m 840 306 l 837 317 q 840 168 791 243 l 840 306 m 532 358 l 532 529 q 551 499 543 518 q 581 353 627 442 q 541 475 614 442 q 538 412 535 450 l 538 334 q 486 309 522 309 q 532 358 456 369 m 606 692 l 606 863 q 625 833 617 852 q 655 687 701 777 q 614 809 688 777 q 612 747 609 785 l 612 668 q 560 644 595 644 q 606 692 530 703 m 771 1088 q 1013 1222 844 1137 l 1057 1331 q 793 1149 884 1225 l 771 1088 "},"":{"ha":694,"x_min":54,"x_max":1765,"o":"m 54 64 q 266 -13 149 -13 q 548 120 432 -13 q 713 500 663 253 l 764 762 q 874 551 808 669 l 1040 256 q 1183 -30 1158 47 l 1270 0 l 1301 201 l 1403 711 q 1600 966 1453 966 q 1716 919 1655 966 l 1765 1010 q 1666 1029 1716 1029 q 1426 919 1525 1029 q 1286 605 1326 808 l 1208 213 q 1076 469 1166 311 l 989 622 q 806 1004 876 825 l 741 1004 q 402 894 536 1004 q 255 604 269 784 l 387 669 q 461 867 387 787 q 647 947 536 947 q 696 941 661 947 l 568 298 q 484 118 545 185 q 341 50 422 50 q 151 163 220 50 l 54 64 m 784 753 l 784 935 l 798 935 l 798 859 l 800 854 q 846 867 819 862 l 846 683 l 833 683 l 833 762 q 784 753 814 762 m 830 838 l 798 827 q 806 789 789 797 q 830 838 844 794 m 1146 414 l 1146 596 l 1160 596 l 1160 520 l 1162 515 q 1208 528 1181 523 l 1208 344 l 1195 344 l 1195 422 q 1146 414 1176 422 m 1192 498 l 1160 488 q 1168 450 1152 458 q 1192 498 1206 455 m 451 781 l 473 778 q 443 539 543 656 l 443 528 q 454 485 446 509 q 557 406 535 490 q 489 295 568 333 q 467 154 527 197 q 375 184 413 132 l 372 197 q 446 233 386 257 q 413 165 473 181 q 489 227 494 135 l 478 292 l 475 298 q 315 436 326 276 q 421 588 345 520 q 451 781 378 691 m 465 737 q 432 596 410 680 q 486 680 467 626 q 465 737 492 713 m 429 531 q 456 303 258 347 l 475 314 l 470 333 l 467 355 l 456 401 l 454 414 l 448 436 l 446 447 q 454 319 353 385 q 440 485 304 393 q 429 531 440 507 m 465 447 q 484 336 465 420 l 486 322 l 492 317 q 532 393 535 338 q 465 447 519 439 m 1217 96 l 1217 267 q 1236 237 1227 256 q 1265 91 1312 180 q 1225 213 1298 180 q 1222 151 1219 189 l 1222 72 q 1171 47 1206 47 q 1217 96 1141 107 m 1489 520 l 1489 691 q 1508 661 1500 680 q 1538 515 1584 604 q 1497 637 1571 604 q 1495 574 1492 612 l 1495 496 q 1443 471 1478 471 q 1489 520 1413 531 m 976 1097 q 1040 1156 1000 1156 q 1110 1132 1065 1156 l 1141 1114 q 1233 1088 1190 1088 q 1379 1255 1355 1088 l 1335 1242 q 1265 1175 1304 1175 q 1189 1203 1239 1175 l 1166 1216 q 1079 1246 1112 1246 q 981 1203 1023 1246 q 928 1088 939 1159 l 976 1097 "},"":{"ha":694,"x_min":157,"x_max":1271,"o":"m 519 -25 q 947 174 768 -25 q 1126 650 1126 372 q 1029 927 1126 825 q 767 1029 932 1029 q 341 828 524 1029 q 157 360 157 627 q 255 79 157 182 q 519 -25 352 -25 m 545 21 q 314 359 314 21 q 441 802 314 617 q 744 986 568 986 q 974 655 974 986 q 848 208 974 394 q 545 21 722 21 m 617 829 q 766 756 701 827 q 807 737 783 745 q 840 759 823 743 q 823 802 845 783 q 764 800 793 781 q 829 824 774 846 q 810 705 916 748 q 685 762 739 705 l 642 791 q 606 794 625 797 q 612 734 563 753 q 652 748 628 748 q 663 724 661 740 q 566 732 614 683 q 617 829 547 797 m 1154 517 l 1176 515 q 1146 276 1246 393 l 1146 265 q 1157 222 1149 246 q 1260 143 1238 227 q 1192 32 1271 70 q 1171 -109 1230 -66 q 1078 -79 1116 -131 l 1076 -66 q 1149 -31 1089 -6 q 1116 -98 1176 -82 q 1192 -36 1198 -128 l 1181 29 l 1179 35 q 1019 173 1029 13 q 1124 325 1048 257 q 1154 517 1081 428 m 1168 474 q 1135 333 1114 417 q 1190 417 1171 363 q 1168 474 1195 450 m 1133 268 q 1160 40 962 83 l 1179 51 l 1173 70 l 1171 92 l 1160 138 l 1157 151 l 1152 173 l 1149 184 q 1157 56 1057 121 q 1143 222 1008 130 q 1133 268 1143 243 m 1168 184 q 1187 73 1168 157 l 1190 59 l 1195 54 q 1236 130 1238 75 q 1168 184 1222 176 m 508 490 l 549 490 l 578 481 q 429 208 733 335 l 435 218 q 568 349 527 251 q 489 468 603 492 q 475 435 473 454 q 527 392 530 427 q 462 370 508 359 q 508 490 405 446 m 654 460 q 687 446 673 463 q 671 416 687 427 q 654 460 625 422 m 654 381 q 687 368 673 384 q 671 338 687 349 q 654 381 625 343 m 236 345 l 236 516 q 255 486 247 505 q 285 340 331 429 q 244 462 317 429 q 241 399 239 437 l 241 321 q 190 296 225 296 q 236 345 160 356 m 1051 562 l 1051 732 q 1070 703 1062 722 q 1100 556 1146 646 q 1059 678 1133 646 q 1057 616 1054 654 l 1057 537 q 1005 513 1040 513 q 1051 562 975 572 m 631 1088 l 735 1162 l 654 1272 l 548 1191 l 631 1088 m 956 1088 l 1060 1164 l 979 1272 l 873 1193 l 956 1088 "},"":{"ha":694,"x_min":140,"x_max":1345,"o":"m 987 -25 l 1333 35 l 1342 78 q 1261 71 1293 71 q 1171 144 1171 71 q 1197 317 1171 184 l 1294 803 l 1345 1021 l 1192 1004 l 1055 318 q 916 122 996 193 q 754 52 836 52 q 633 114 676 52 q 589 286 589 176 q 633 598 589 387 q 739 1004 677 810 l 690 1004 q 140 604 170 1004 l 271 669 q 346 867 271 787 q 532 947 420 947 q 581 941 546 947 q 485 568 526 766 q 444 283 444 370 q 515 59 444 142 q 707 -25 587 -25 q 1029 184 879 -25 l 987 -25 m 491 333 l 491 515 l 505 515 l 505 439 l 507 433 q 553 447 526 441 l 553 262 l 540 262 l 540 341 q 491 333 521 341 m 537 417 l 505 406 q 513 368 496 376 q 537 417 551 374 m 994 793 l 994 975 l 1008 975 l 1008 896 q 1048 907 1027 899 l 1057 907 l 1057 722 l 1043 722 l 1043 801 q 994 793 1024 801 m 1040 877 l 1008 866 q 1016 828 1000 836 q 1040 877 1054 833 m 732 335 q 882 262 817 332 q 922 243 898 251 q 955 264 939 248 q 939 308 960 289 q 879 305 909 286 q 944 330 890 351 q 925 210 1031 254 q 800 267 854 210 l 757 297 q 722 300 741 302 q 727 240 678 259 q 768 254 743 254 q 779 229 776 245 q 681 237 730 189 q 732 335 662 302 m 595 755 l 595 926 q 614 897 606 916 q 644 750 690 840 q 603 872 676 840 q 600 810 597 848 l 600 731 q 549 707 584 707 q 595 755 519 766 m 1127 277 l 1127 448 q 1146 418 1138 437 q 1176 272 1222 361 q 1135 394 1208 361 q 1133 332 1130 370 l 1133 253 q 1081 229 1116 229 q 1127 277 1051 288 m 1207 729 l 1207 900 q 1226 870 1218 889 q 1256 724 1302 813 q 1215 846 1289 813 q 1213 783 1210 821 l 1213 705 q 1161 680 1196 680 q 1207 729 1131 740 m 798 1088 l 903 1162 l 822 1272 l 715 1191 l 798 1088 m 1123 1088 l 1227 1164 l 1147 1272 l 1040 1193 l 1123 1088 "},"":{"ha":694,"x_min":110,"x_max":995,"o":"m 667 368 l 634 201 q 618 85 618 119 q 716 -17 618 -17 q 983 142 834 -17 l 995 205 q 793 56 861 56 q 753 99 753 56 q 768 201 753 122 l 834 536 l 883 736 q 680 745 777 745 q 283 549 446 745 q 125 162 125 359 q 269 -17 125 -17 q 471 91 363 -17 q 655 368 578 198 l 667 368 m 722 640 l 691 486 q 499 206 608 328 q 331 83 389 83 q 269 190 269 83 q 355 522 269 337 q 553 677 429 677 q 722 640 636 677 m 460 583 l 501 583 l 531 575 q 382 301 686 429 l 387 312 q 520 442 479 345 q 441 562 555 586 q 428 529 425 548 q 479 486 482 521 q 414 464 460 453 q 460 583 357 540 m 607 553 q 640 540 626 556 q 623 510 640 521 q 607 553 577 515 m 607 475 q 640 461 626 477 q 623 431 640 442 q 607 475 577 437 m 882 408 l 882 451 q 896 408 904 451 q 964 340 966 405 q 915 332 942 321 q 937 375 890 367 q 896 332 890 440 l 896 237 q 953 291 942 239 l 964 291 q 953 253 964 275 q 896 220 931 229 q 882 210 890 112 l 882 223 q 847 391 768 283 l 882 408 m 882 378 l 880 389 q 882 239 833 315 l 882 378 m 186 151 l 186 322 q 205 292 197 311 q 235 146 281 235 q 194 268 267 235 q 191 205 189 243 l 191 127 q 140 102 175 102 q 186 151 110 162 m 638 870 q 880 1004 711 920 l 924 1113 q 660 931 751 1008 l 638 870 "},"":{"ha":694,"x_min":110,"x_max":995,"o":"m 667 368 l 634 201 q 618 85 618 119 q 716 -17 618 -17 q 983 142 834 -17 l 995 205 q 793 56 861 56 q 753 99 753 56 q 768 201 753 122 l 834 536 l 883 736 q 680 745 777 745 q 283 549 446 745 q 125 162 125 359 q 269 -17 125 -17 q 471 91 363 -17 q 655 368 578 198 l 667 368 m 722 640 l 691 486 q 499 206 608 328 q 331 83 389 83 q 269 190 269 83 q 355 522 269 337 q 553 677 429 677 q 722 640 636 677 m 460 583 l 501 583 l 531 575 q 382 301 686 429 l 387 312 q 520 442 479 345 q 441 562 555 586 q 428 529 425 548 q 479 486 482 521 q 414 464 460 453 q 460 583 357 540 m 607 553 q 640 540 626 556 q 623 510 640 521 q 607 553 577 515 m 607 475 q 640 461 626 477 q 623 431 640 442 q 607 475 577 437 m 882 408 l 882 451 q 896 408 904 451 q 964 340 966 405 q 915 332 942 321 q 937 375 890 367 q 896 332 890 440 l 896 237 q 953 291 942 239 l 964 291 q 953 253 964 275 q 896 220 931 229 q 882 210 890 112 l 882 223 q 847 391 768 283 l 882 408 m 882 378 l 880 389 q 882 239 833 315 l 882 378 m 186 151 l 186 322 q 205 292 197 311 q 235 146 281 235 q 194 268 267 235 q 191 205 189 243 l 191 127 q 140 102 175 102 q 186 151 110 162 m 845 924 q 699 1113 783 1029 l 618 1050 q 760 870 711 968 l 845 924 "},"":{"ha":694,"x_min":110,"x_max":995,"o":"m 667 368 l 634 201 q 618 85 618 119 q 716 -17 618 -17 q 983 142 834 -17 l 995 205 q 793 56 861 56 q 753 99 753 56 q 768 201 753 122 l 834 536 l 883 736 q 680 745 777 745 q 283 549 446 745 q 125 162 125 359 q 269 -17 125 -17 q 471 91 363 -17 q 655 368 578 198 l 667 368 m 722 640 l 691 486 q 499 206 608 328 q 331 83 389 83 q 269 190 269 83 q 355 522 269 337 q 553 677 429 677 q 722 640 636 677 m 460 583 l 501 583 l 531 575 q 382 301 686 429 l 387 312 q 520 442 479 345 q 441 562 555 586 q 428 529 425 548 q 479 486 482 521 q 414 464 460 453 q 460 583 357 540 m 607 553 q 640 540 626 556 q 623 510 640 521 q 607 553 577 515 m 607 475 q 640 461 626 477 q 623 431 640 442 q 607 475 577 437 m 882 408 l 882 451 q 896 408 904 451 q 964 340 966 405 q 915 332 942 321 q 937 375 890 367 q 896 332 890 440 l 896 237 q 953 291 942 239 l 964 291 q 953 253 964 275 q 896 220 931 229 q 882 210 890 112 l 882 223 q 847 391 768 283 l 882 408 m 882 378 l 880 389 q 882 239 833 315 l 882 378 m 186 151 l 186 322 q 205 292 197 311 q 235 146 281 235 q 194 268 267 235 q 191 205 189 243 l 191 127 q 140 102 175 102 q 186 151 110 162 m 904 919 q 811 1113 842 1007 l 719 1055 q 509 870 655 977 l 606 877 q 625 898 621 895 q 736 1019 699 972 q 821 870 770 926 l 904 919 "},"":{"ha":694,"x_min":110,"x_max":995,"o":"m 667 368 l 634 201 q 618 85 618 119 q 716 -17 618 -17 q 983 142 834 -17 l 995 205 q 793 56 861 56 q 753 99 753 56 q 768 201 753 122 l 834 536 l 883 736 q 680 745 777 745 q 283 549 446 745 q 125 162 125 359 q 269 -17 125 -17 q 471 91 363 -17 q 655 368 578 198 l 667 368 m 722 640 l 691 486 q 499 206 608 328 q 331 83 389 83 q 269 190 269 83 q 355 522 269 337 q 553 677 429 677 q 722 640 636 677 m 460 583 l 501 583 l 531 575 q 382 301 686 429 l 387 312 q 520 442 479 345 q 441 562 555 586 q 428 529 425 548 q 479 486 482 521 q 414 464 460 453 q 460 583 357 540 m 607 553 q 640 540 626 556 q 623 510 640 521 q 607 553 577 515 m 607 475 q 640 461 626 477 q 623 431 640 442 q 607 475 577 437 m 882 408 l 882 451 q 896 408 904 451 q 964 340 966 405 q 915 332 942 321 q 937 375 890 367 q 896 332 890 440 l 896 237 q 953 291 942 239 l 964 291 q 953 253 964 275 q 896 220 931 229 q 882 210 890 112 l 882 223 q 847 391 768 283 l 882 408 m 882 378 l 880 389 q 882 239 833 315 l 882 378 m 186 151 l 186 322 q 205 292 197 311 q 235 146 281 235 q 194 268 267 235 q 191 205 189 243 l 191 127 q 140 102 175 102 q 186 151 110 162 m 542 870 l 646 945 l 566 1054 l 459 973 l 542 870 m 867 870 l 971 946 l 890 1054 l 784 975 l 867 870 "},"":{"ha":694,"x_min":110,"x_max":995,"o":"m 667 368 l 634 201 q 618 85 618 119 q 716 -17 618 -17 q 983 142 834 -17 l 995 205 q 793 56 861 56 q 753 99 753 56 q 768 201 753 122 l 834 536 l 883 736 q 680 745 777 745 q 283 549 446 745 q 125 162 125 359 q 269 -17 125 -17 q 471 91 363 -17 q 655 368 578 198 l 667 368 m 722 640 l 691 486 q 499 206 608 328 q 331 83 389 83 q 269 190 269 83 q 355 522 269 337 q 553 677 429 677 q 722 640 636 677 m 460 583 l 501 583 l 531 575 q 382 301 686 429 l 387 312 q 520 442 479 345 q 441 562 555 586 q 428 529 425 548 q 479 486 482 521 q 414 464 460 453 q 460 583 357 540 m 607 553 q 640 540 626 556 q 623 510 640 521 q 607 553 577 515 m 607 475 q 640 461 626 477 q 623 431 640 442 q 607 475 577 437 m 882 408 l 882 451 q 896 408 904 451 q 964 340 966 405 q 915 332 942 321 q 937 375 890 367 q 896 332 890 440 l 896 237 q 953 291 942 239 l 964 291 q 953 253 964 275 q 896 220 931 229 q 882 210 890 112 l 882 223 q 847 391 768 283 l 882 408 m 882 378 l 880 389 q 882 239 833 315 l 882 378 m 186 151 l 186 322 q 205 292 197 311 q 235 146 281 235 q 194 268 267 235 q 191 205 189 243 l 191 127 q 140 102 175 102 q 186 151 110 162 m 554 880 q 618 939 578 939 q 688 914 644 939 l 720 897 q 811 870 768 870 q 958 1038 933 870 l 913 1025 q 844 958 882 958 q 767 985 817 958 l 744 998 q 657 1029 690 1029 q 559 985 601 1029 q 507 870 517 941 l 554 880 "},"":{"ha":694,"x_min":110,"x_max":995,"o":"m 667 368 l 634 201 q 618 85 618 119 q 716 -17 618 -17 q 983 142 834 -17 l 995 205 q 793 56 861 56 q 753 99 753 56 q 768 201 753 122 l 834 536 l 883 736 q 680 745 777 745 q 283 549 446 745 q 125 162 125 359 q 269 -17 125 -17 q 471 91 363 -17 q 655 368 578 198 l 667 368 m 722 640 l 691 486 q 499 206 608 328 q 331 83 389 83 q 269 190 269 83 q 355 522 269 337 q 553 677 429 677 q 722 640 636 677 m 460 583 l 501 583 l 531 575 q 382 301 686 429 l 387 312 q 520 442 479 345 q 441 562 555 586 q 428 529 425 548 q 479 486 482 521 q 414 464 460 453 q 460 583 357 540 m 607 553 q 640 540 626 556 q 623 510 640 521 q 607 553 577 515 m 607 475 q 640 461 626 477 q 623 431 640 442 q 607 475 577 437 m 882 408 l 882 451 q 896 408 904 451 q 964 340 966 405 q 915 332 942 321 q 937 375 890 367 q 896 332 890 440 l 896 237 q 953 291 942 239 l 964 291 q 953 253 964 275 q 896 220 931 229 q 882 210 890 112 l 882 223 q 847 391 768 283 l 882 408 m 882 378 l 880 389 q 882 239 833 315 l 882 378 m 186 151 l 186 322 q 205 292 197 311 q 235 146 281 235 q 194 268 267 235 q 191 205 189 243 l 191 127 q 140 102 175 102 q 186 151 110 162 m 745 866 q 823 898 791 866 q 854 975 854 930 q 823 1052 854 1020 q 745 1084 791 1084 q 669 1052 701 1084 q 637 975 637 1020 q 669 898 637 930 q 745 866 701 866 m 745 908 q 698 927 718 908 q 678 975 678 947 q 698 1022 678 1002 q 745 1042 718 1042 q 793 1022 773 1042 q 812 975 812 1003 q 793 927 812 947 q 745 908 773 908 "},"":{"ha":759,"x_min":136,"x_max":771,"o":"m 730 186 q 420 58 531 58 q 273 248 273 58 q 360 561 273 427 q 564 694 448 694 q 692 601 692 694 q 686 554 692 586 l 684 544 l 726 544 l 771 718 q 614 753 693 753 q 284 586 432 753 q 136 214 136 419 q 354 -18 136 5 l 294 -104 q 388 -162 388 -110 q 328 -210 388 -210 q 271 -189 303 -210 l 218 -261 q 284 -268 256 -268 q 400 -227 347 -268 q 454 -138 454 -186 q 384 -61 454 -81 l 419 -9 q 720 134 580 35 l 730 186 "},"":{"ha":694,"x_min":-120,"x_max":804,"o":"m 730 185 q 425 61 550 61 q 279 259 279 61 l 280 290 q 597 383 465 290 q 730 607 730 477 q 693 713 730 672 q 595 753 656 753 q 283 585 429 753 q 136 225 136 416 q 196 51 136 118 q 353 -17 256 -17 q 720 133 505 -17 l 730 185 m 281 332 q 372 577 296 469 q 529 685 448 685 q 604 581 604 685 q 519 410 604 476 q 281 332 433 344 m 720 441 l 720 484 q 734 441 742 484 q 802 373 804 438 q 753 365 780 354 q 774 408 728 400 q 734 365 728 473 l 734 270 q 791 324 780 273 l 802 324 q 791 286 802 308 q 734 254 769 262 q 720 243 728 145 l 720 256 q 685 425 606 316 l 720 441 m 720 411 l 718 422 q 720 273 671 349 l 720 411 m 73 867 l 94 864 q 64 625 165 742 l 64 614 q 75 571 67 595 q 178 492 157 576 q 111 381 189 419 q 89 240 149 283 q -3 270 35 218 l -6 283 q 67 319 7 343 q 35 251 94 267 q 111 313 116 221 l 100 378 l 97 384 q -63 522 -52 362 q 43 674 -33 606 q 73 867 -1 777 m 86 823 q 54 682 32 766 q 108 766 89 712 q 86 823 113 799 m 51 617 q 78 389 -120 433 l 97 400 l 92 419 l 89 441 l 78 487 l 75 500 l 70 522 l 67 533 q 75 406 -25 471 q 62 571 -74 479 q 51 617 62 593 m 86 533 q 105 422 86 506 l 108 408 l 113 403 q 154 479 157 425 q 86 533 140 525 m 507 870 q 749 1004 580 920 l 793 1113 q 529 931 620 1008 l 507 870 "},"":{"ha":694,"x_min":-120,"x_max":804,"o":"m 730 185 q 425 61 550 61 q 279 259 279 61 l 280 290 q 597 383 465 290 q 730 607 730 477 q 693 713 730 672 q 595 753 656 753 q 283 585 429 753 q 136 225 136 416 q 196 51 136 118 q 353 -17 256 -17 q 720 133 505 -17 l 730 185 m 281 332 q 372 577 296 469 q 529 685 448 685 q 604 581 604 685 q 519 410 604 476 q 281 332 433 344 m 720 441 l 720 484 q 734 441 742 484 q 802 373 804 438 q 753 365 780 354 q 774 408 728 400 q 734 365 728 473 l 734 270 q 791 324 780 273 l 802 324 q 791 286 802 308 q 734 254 769 262 q 720 243 728 145 l 720 256 q 685 425 606 316 l 720 441 m 720 411 l 718 422 q 720 273 671 349 l 720 411 m 73 867 l 94 864 q 64 625 165 742 l 64 614 q 75 571 67 595 q 178 492 157 576 q 111 381 189 419 q 89 240 149 283 q -3 270 35 218 l -6 283 q 67 319 7 343 q 35 251 94 267 q 111 313 116 221 l 100 378 l 97 384 q -63 522 -52 362 q 43 674 -33 606 q 73 867 -1 777 m 86 823 q 54 682 32 766 q 108 766 89 712 q 86 823 113 799 m 51 617 q 78 389 -120 433 l 97 400 l 92 419 l 89 441 l 78 487 l 75 500 l 70 522 l 67 533 q 75 406 -25 471 q 62 571 -74 479 q 51 617 62 593 m 86 533 q 105 422 86 506 l 108 408 l 113 403 q 154 479 157 425 q 86 533 140 525 m 714 924 q 568 1113 652 1029 l 488 1050 q 629 870 580 968 l 714 924 "},"":{"ha":694,"x_min":-120,"x_max":804,"o":"m 730 185 q 425 61 550 61 q 279 259 279 61 l 280 290 q 597 383 465 290 q 730 607 730 477 q 693 713 730 672 q 595 753 656 753 q 283 585 429 753 q 136 225 136 416 q 196 51 136 118 q 353 -17 256 -17 q 720 133 505 -17 l 730 185 m 281 332 q 372 577 296 469 q 529 685 448 685 q 604 581 604 685 q 519 410 604 476 q 281 332 433 344 m 720 441 l 720 484 q 734 441 742 484 q 802 373 804 438 q 753 365 780 354 q 774 408 728 400 q 734 365 728 473 l 734 270 q 791 324 780 273 l 802 324 q 791 286 802 308 q 734 254 769 262 q 720 243 728 145 l 720 256 q 685 425 606 316 l 720 441 m 720 411 l 718 422 q 720 273 671 349 l 720 411 m 73 867 l 94 864 q 64 625 165 742 l 64 614 q 75 571 67 595 q 178 492 157 576 q 111 381 189 419 q 89 240 149 283 q -3 270 35 218 l -6 283 q 67 319 7 343 q 35 251 94 267 q 111 313 116 221 l 100 378 l 97 384 q -63 522 -52 362 q 43 674 -33 606 q 73 867 -1 777 m 86 823 q 54 682 32 766 q 108 766 89 712 q 86 823 113 799 m 51 617 q 78 389 -120 433 l 97 400 l 92 419 l 89 441 l 78 487 l 75 500 l 70 522 l 67 533 q 75 406 -25 471 q 62 571 -74 479 q 51 617 62 593 m 86 533 q 105 422 86 506 l 108 408 l 113 403 q 154 479 157 425 q 86 533 140 525 m 773 919 q 680 1113 711 1007 l 588 1055 q 378 870 524 977 l 475 877 q 494 898 490 895 q 606 1019 568 972 q 690 870 640 926 l 773 919 "},"":{"ha":694,"x_min":-120,"x_max":857,"o":"m 730 185 q 425 61 550 61 q 279 259 279 61 l 280 290 q 597 383 465 290 q 730 607 730 477 q 693 713 730 672 q 595 753 656 753 q 283 585 429 753 q 136 225 136 416 q 196 51 136 118 q 353 -17 256 -17 q 720 133 505 -17 l 730 185 m 281 332 q 372 577 296 469 q 529 685 448 685 q 604 581 604 685 q 519 410 604 476 q 281 332 433 344 m 720 441 l 720 484 q 734 441 742 484 q 802 373 804 438 q 753 365 780 354 q 774 408 728 400 q 734 365 728 473 l 734 270 q 791 324 780 273 l 802 324 q 791 286 802 308 q 734 254 769 262 q 720 243 728 145 l 720 256 q 685 425 606 316 l 720 441 m 720 411 l 718 422 q 720 273 671 349 l 720 411 m 73 867 l 94 864 q 64 625 165 742 l 64 614 q 75 571 67 595 q 178 492 157 576 q 111 381 189 419 q 89 240 149 283 q -3 270 35 218 l -6 283 q 67 319 7 343 q 35 251 94 267 q 111 313 116 221 l 100 378 l 97 384 q -63 522 -52 362 q 43 674 -33 606 q 73 867 -1 777 m 86 823 q 54 682 32 766 q 108 766 89 712 q 86 823 113 799 m 51 617 q 78 389 -120 433 l 97 400 l 92 419 l 89 441 l 78 487 l 75 500 l 70 522 l 67 533 q 75 406 -25 471 q 62 571 -74 479 q 51 617 62 593 m 86 533 q 105 422 86 506 l 108 408 l 113 403 q 154 479 157 425 q 86 533 140 525 m 427 870 l 532 945 l 451 1054 l 345 973 l 427 870 m 752 870 l 857 946 l 776 1054 l 669 975 l 752 870 "},"":{"ha":694,"x_min":153,"x_max":646,"o":"m 601 205 q 399 56 466 56 q 359 100 359 56 q 374 201 359 122 l 441 536 l 492 753 l 161 644 l 153 602 q 262 626 231 626 q 306 569 306 626 q 287 435 306 536 l 240 199 q 224 85 224 120 q 322 -17 224 -17 q 589 142 440 -17 l 601 205 m 359 870 q 602 1004 432 920 l 646 1113 q 381 931 472 1008 l 359 870 "},"":{"ha":694,"x_min":153,"x_max":601,"o":"m 601 205 q 399 56 466 56 q 359 100 359 56 q 374 201 359 122 l 441 536 l 492 753 l 161 644 l 153 602 q 262 626 231 626 q 306 569 306 626 q 287 435 306 536 l 240 199 q 224 85 224 120 q 322 -17 224 -17 q 589 142 440 -17 l 601 205 m 591 924 q 446 1113 530 1029 l 365 1050 q 506 870 457 968 l 591 924 "},"":{"ha":694,"x_min":153,"x_max":616,"o":"m 601 205 q 399 56 466 56 q 359 100 359 56 q 374 201 359 122 l 441 536 l 492 753 l 161 644 l 153 602 q 262 626 231 626 q 306 569 306 626 q 287 435 306 536 l 240 199 q 224 85 224 120 q 322 -17 224 -17 q 589 142 440 -17 l 601 205 m 616 919 q 524 1113 554 1007 l 431 1055 q 222 870 368 977 l 318 877 q 337 898 334 895 q 449 1019 411 972 q 534 870 483 926 l 616 919 "},"":{"ha":694,"x_min":153,"x_max":692,"o":"m 601 205 q 399 56 466 56 q 359 100 359 56 q 374 201 359 122 l 441 536 l 492 753 l 161 644 l 153 602 q 262 626 231 626 q 306 569 306 626 q 287 435 306 536 l 240 199 q 224 85 224 120 q 322 -17 224 -17 q 589 142 440 -17 l 601 205 m 262 870 l 367 945 l 286 1054 l 180 973 l 262 870 m 587 870 l 692 946 l 611 1054 l 505 975 l 587 870 "},"":{"ha":694,"x_min":54,"x_max":1062,"o":"m 182 -8 l 326 0 l 375 242 q 734 653 605 653 q 775 598 775 653 q 767 533 775 572 l 701 201 q 685 85 685 119 q 783 -17 685 -17 q 1049 142 901 -17 l 1062 205 q 859 56 927 56 q 819 99 819 56 q 835 201 819 122 l 901 532 q 912 629 912 589 q 801 753 912 753 q 602 647 709 753 q 410 368 495 542 l 400 368 l 433 536 q 449 651 449 616 q 351 753 449 753 q 85 593 233 753 l 73 531 q 275 680 208 680 q 315 637 315 680 q 299 536 315 614 l 233 201 l 182 -8 m 108 464 q 132 382 192 453 q 81 144 214 252 q 62 98 67 125 l 54 98 l 54 404 l 56 420 q 108 464 73 450 m 67 380 l 64 214 l 67 184 q 127 380 189 250 q 67 380 100 366 m 412 110 q 561 37 496 107 q 602 18 577 26 q 634 39 618 23 q 618 83 640 64 q 558 80 588 61 q 623 104 569 126 q 604 -15 710 28 q 479 42 534 -15 l 436 72 q 401 75 420 77 q 406 15 357 34 q 447 28 422 28 q 458 4 455 20 q 360 12 409 -37 q 412 110 341 77 m 522 823 l 522 867 q 536 823 544 867 q 604 755 606 821 q 555 747 582 736 q 576 791 530 783 q 536 747 530 856 l 536 652 q 593 707 582 655 l 604 707 q 593 669 604 690 q 536 636 571 644 q 522 625 530 528 l 522 639 q 487 807 408 699 l 522 823 m 522 793 l 519 804 q 522 655 473 731 l 522 793 m 534 880 q 599 939 559 939 q 669 914 624 939 l 700 897 q 791 870 749 870 q 938 1038 913 870 l 893 1025 q 824 958 863 958 q 747 985 798 958 l 724 998 q 637 1029 670 1029 q 539 985 581 1029 q 487 870 498 941 l 534 880 "},"":{"ha":694,"x_min":26,"x_max":814,"o":"m 284 -21 q 615 142 467 -21 q 763 508 763 305 q 702 681 763 613 q 547 749 641 749 q 224 583 372 749 q 77 222 77 417 q 136 48 77 118 q 284 -21 195 -21 m 421 42 q 285 262 285 42 q 362 563 285 429 q 537 696 440 696 q 674 471 674 696 q 598 171 674 300 q 421 42 522 42 m 185 233 l 185 414 l 199 414 l 199 338 l 201 333 q 248 347 220 341 l 248 162 l 234 162 l 234 241 q 185 233 215 241 m 231 317 l 199 306 q 207 268 191 276 q 231 317 245 273 m 541 500 l 541 682 l 554 682 l 554 606 l 557 601 q 603 614 576 609 l 603 430 l 589 430 l 589 509 q 541 500 570 509 m 587 585 l 554 574 q 562 536 546 544 q 587 585 600 541 m 375 320 q 524 247 459 317 q 565 228 541 236 q 597 250 581 233 q 581 293 603 274 q 522 290 551 271 q 587 315 532 336 q 568 195 673 239 q 443 252 497 195 l 399 282 q 364 285 383 288 q 370 225 321 244 q 410 239 386 239 q 421 214 418 231 q 323 222 372 174 q 375 320 304 288 m 121 600 l 121 884 l 132 884 q 151 838 135 863 q 200 591 284 738 l 197 600 q 132 792 273 738 l 132 567 q 105 532 124 548 q 26 543 62 499 q 121 600 40 627 m 528 870 q 770 1004 601 920 l 814 1113 q 550 931 641 1008 l 528 870 "},"":{"ha":694,"x_min":26,"x_max":763,"o":"m 284 -21 q 615 142 467 -21 q 763 508 763 305 q 702 681 763 613 q 547 749 641 749 q 224 583 372 749 q 77 222 77 417 q 136 48 77 118 q 284 -21 195 -21 m 421 42 q 285 262 285 42 q 362 563 285 429 q 537 696 440 696 q 674 471 674 696 q 598 171 674 300 q 421 42 522 42 m 185 233 l 185 414 l 199 414 l 199 338 l 201 333 q 248 347 220 341 l 248 162 l 234 162 l 234 241 q 185 233 215 241 m 231 317 l 199 306 q 207 268 191 276 q 231 317 245 273 m 541 500 l 541 682 l 554 682 l 554 606 l 557 601 q 603 614 576 609 l 603 430 l 589 430 l 589 509 q 541 500 570 509 m 587 585 l 554 574 q 562 536 546 544 q 587 585 600 541 m 375 320 q 524 247 459 317 q 565 228 541 236 q 597 250 581 233 q 581 293 603 274 q 522 290 551 271 q 587 315 532 336 q 568 195 673 239 q 443 252 497 195 l 399 282 q 364 285 383 288 q 370 225 321 244 q 410 239 386 239 q 421 214 418 231 q 323 222 372 174 q 375 320 304 288 m 121 600 l 121 884 l 132 884 q 151 838 135 863 q 200 591 284 738 l 197 600 q 132 792 273 738 l 132 567 q 105 532 124 548 q 26 543 62 499 q 121 600 40 627 m 760 924 q 614 1113 699 1029 l 534 1050 q 675 870 626 968 l 760 924 "},"":{"ha":694,"x_min":26,"x_max":810,"o":"m 284 -21 q 615 142 467 -21 q 763 508 763 305 q 702 681 763 613 q 547 749 641 749 q 224 583 372 749 q 77 222 77 417 q 136 48 77 118 q 284 -21 195 -21 m 421 42 q 285 262 285 42 q 362 563 285 429 q 537 696 440 696 q 674 471 674 696 q 598 171 674 300 q 421 42 522 42 m 185 233 l 185 414 l 199 414 l 199 338 l 201 333 q 248 347 220 341 l 248 162 l 234 162 l 234 241 q 185 233 215 241 m 231 317 l 199 306 q 207 268 191 276 q 231 317 245 273 m 541 500 l 541 682 l 554 682 l 554 606 l 557 601 q 603 614 576 609 l 603 430 l 589 430 l 589 509 q 541 500 570 509 m 587 585 l 554 574 q 562 536 546 544 q 587 585 600 541 m 375 320 q 524 247 459 317 q 565 228 541 236 q 597 250 581 233 q 581 293 603 274 q 522 290 551 271 q 587 315 532 336 q 568 195 673 239 q 443 252 497 195 l 399 282 q 364 285 383 288 q 370 225 321 244 q 410 239 386 239 q 421 214 418 231 q 323 222 372 174 q 375 320 304 288 m 121 600 l 121 884 l 132 884 q 151 838 135 863 q 200 591 284 738 l 197 600 q 132 792 273 738 l 132 567 q 105 532 124 548 q 26 543 62 499 q 121 600 40 627 m 810 919 q 718 1113 748 1007 l 625 1055 q 416 870 562 977 l 512 877 q 531 898 528 895 q 643 1019 605 972 q 728 870 677 926 l 810 919 "},"":{"ha":694,"x_min":26,"x_max":886,"o":"m 284 -21 q 615 142 467 -21 q 763 508 763 305 q 702 681 763 613 q 547 749 641 749 q 224 583 372 749 q 77 222 77 417 q 136 48 77 118 q 284 -21 195 -21 m 421 42 q 285 262 285 42 q 362 563 285 429 q 537 696 440 696 q 674 471 674 696 q 598 171 674 300 q 421 42 522 42 m 185 233 l 185 414 l 199 414 l 199 338 l 201 333 q 248 347 220 341 l 248 162 l 234 162 l 234 241 q 185 233 215 241 m 231 317 l 199 306 q 207 268 191 276 q 231 317 245 273 m 541 500 l 541 682 l 554 682 l 554 606 l 557 601 q 603 614 576 609 l 603 430 l 589 430 l 589 509 q 541 500 570 509 m 587 585 l 554 574 q 562 536 546 544 q 587 585 600 541 m 375 320 q 524 247 459 317 q 565 228 541 236 q 597 250 581 233 q 581 293 603 274 q 522 290 551 271 q 587 315 532 336 q 568 195 673 239 q 443 252 497 195 l 399 282 q 364 285 383 288 q 370 225 321 244 q 410 239 386 239 q 421 214 418 231 q 323 222 372 174 q 375 320 304 288 m 121 600 l 121 884 l 132 884 q 151 838 135 863 q 200 591 284 738 l 197 600 q 132 792 273 738 l 132 567 q 105 532 124 548 q 26 543 62 499 q 121 600 40 627 m 456 870 l 561 945 l 480 1054 l 374 973 l 456 870 m 781 870 l 886 946 l 805 1054 l 699 975 l 781 870 "},"":{"ha":694,"x_min":26,"x_max":864,"o":"m 284 -21 q 615 142 467 -21 q 763 508 763 305 q 702 681 763 613 q 547 749 641 749 q 224 583 372 749 q 77 222 77 417 q 136 48 77 118 q 284 -21 195 -21 m 421 42 q 285 262 285 42 q 362 563 285 429 q 537 696 440 696 q 674 471 674 696 q 598 171 674 300 q 421 42 522 42 m 185 233 l 185 414 l 199 414 l 199 338 l 201 333 q 248 347 220 341 l 248 162 l 234 162 l 234 241 q 185 233 215 241 m 231 317 l 199 306 q 207 268 191 276 q 231 317 245 273 m 541 500 l 541 682 l 554 682 l 554 606 l 557 601 q 603 614 576 609 l 603 430 l 589 430 l 589 509 q 541 500 570 509 m 587 585 l 554 574 q 562 536 546 544 q 587 585 600 541 m 375 320 q 524 247 459 317 q 565 228 541 236 q 597 250 581 233 q 581 293 603 274 q 522 290 551 271 q 587 315 532 336 q 568 195 673 239 q 443 252 497 195 l 399 282 q 364 285 383 288 q 370 225 321 244 q 410 239 386 239 q 421 214 418 231 q 323 222 372 174 q 375 320 304 288 m 121 600 l 121 884 l 132 884 q 151 838 135 863 q 200 591 284 738 l 197 600 q 132 792 273 738 l 132 567 q 105 532 124 548 q 26 543 62 499 q 121 600 40 627 m 460 880 q 525 939 485 939 q 595 914 550 939 l 626 897 q 718 870 675 870 q 864 1038 840 870 l 819 1025 q 750 958 789 958 q 673 985 724 958 l 650 998 q 564 1029 596 1029 q 466 985 507 1029 q 413 870 424 941 l 460 880 "},"":{"ha":694,"x_min":72,"x_max":1158,"o":"m 718 368 l 684 201 q 667 85 667 120 q 766 -17 667 -17 q 1032 142 884 -17 l 1044 205 q 842 56 909 56 q 802 99 802 56 q 818 201 802 123 l 884 536 l 935 745 l 791 736 l 742 493 q 552 207 655 330 q 397 83 448 83 q 357 138 357 83 q 366 202 357 157 l 433 536 q 449 651 449 617 q 351 753 449 753 q 84 593 232 753 l 72 531 q 274 680 208 680 q 314 637 314 680 q 298 536 314 614 l 233 203 q 222 111 222 148 q 330 -17 222 -17 q 706 368 513 -17 l 718 368 m 545 651 q 570 570 629 640 q 518 331 651 439 q 499 285 505 312 l 491 285 l 491 591 l 494 608 q 545 651 510 637 m 505 567 l 502 401 l 505 372 q 564 567 627 437 q 505 567 537 553 m 492 842 q 641 768 576 839 q 682 749 657 758 q 714 771 698 755 q 698 814 720 795 q 638 812 668 793 q 703 836 649 858 q 684 717 790 760 q 559 774 614 717 l 516 804 q 481 806 500 809 q 486 747 437 766 q 527 760 503 760 q 538 736 535 752 q 440 744 489 695 q 492 842 421 809 m 932 471 l 973 471 l 1003 463 q 854 189 1158 317 l 859 200 q 992 330 951 233 q 913 450 1027 474 q 900 417 897 436 q 951 374 954 409 q 886 352 932 341 q 932 471 829 428 m 1079 441 q 1112 428 1098 444 q 1095 398 1112 409 q 1079 441 1049 404 m 1079 363 q 1112 349 1098 366 q 1095 319 1112 330 q 1079 363 1049 325 m 289 188 l 289 359 q 308 329 300 348 q 338 182 384 272 q 297 304 370 272 q 294 242 292 280 l 294 163 q 243 139 278 139 q 289 188 213 199 m 578 870 q 820 1004 650 920 l 864 1113 q 600 931 690 1008 l 578 870 "},"":{"ha":694,"x_min":72,"x_max":1158,"o":"m 718 368 l 684 201 q 667 85 667 120 q 766 -17 667 -17 q 1032 142 884 -17 l 1044 205 q 842 56 909 56 q 802 99 802 56 q 818 201 802 123 l 884 536 l 935 745 l 791 736 l 742 493 q 552 207 655 330 q 397 83 448 83 q 357 138 357 83 q 366 202 357 157 l 433 536 q 449 651 449 617 q 351 753 449 753 q 84 593 232 753 l 72 531 q 274 680 208 680 q 314 637 314 680 q 298 536 314 614 l 233 203 q 222 111 222 148 q 330 -17 222 -17 q 706 368 513 -17 l 718 368 m 545 651 q 570 570 629 640 q 518 331 651 439 q 499 285 505 312 l 491 285 l 491 591 l 494 608 q 545 651 510 637 m 505 567 l 502 401 l 505 372 q 564 567 627 437 q 505 567 537 553 m 492 842 q 641 768 576 839 q 682 749 657 758 q 714 771 698 755 q 698 814 720 795 q 638 812 668 793 q 703 836 649 858 q 684 717 790 760 q 559 774 614 717 l 516 804 q 481 806 500 809 q 486 747 437 766 q 527 760 503 760 q 538 736 535 752 q 440 744 489 695 q 492 842 421 809 m 932 471 l 973 471 l 1003 463 q 854 189 1158 317 l 859 200 q 992 330 951 233 q 913 450 1027 474 q 900 417 897 436 q 951 374 954 409 q 886 352 932 341 q 932 471 829 428 m 1079 441 q 1112 428 1098 444 q 1095 398 1112 409 q 1079 441 1049 404 m 1079 363 q 1112 349 1098 366 q 1095 319 1112 330 q 1079 363 1049 325 m 289 188 l 289 359 q 308 329 300 348 q 338 182 384 272 q 297 304 370 272 q 294 242 292 280 l 294 163 q 243 139 278 139 q 289 188 213 199 m 785 924 q 639 1113 723 1029 l 558 1050 q 699 870 650 968 l 785 924 "},"":{"ha":694,"x_min":72,"x_max":1158,"o":"m 718 368 l 684 201 q 667 85 667 120 q 766 -17 667 -17 q 1032 142 884 -17 l 1044 205 q 842 56 909 56 q 802 99 802 56 q 818 201 802 123 l 884 536 l 935 745 l 791 736 l 742 493 q 552 207 655 330 q 397 83 448 83 q 357 138 357 83 q 366 202 357 157 l 433 536 q 449 651 449 617 q 351 753 449 753 q 84 593 232 753 l 72 531 q 274 680 208 680 q 314 637 314 680 q 298 536 314 614 l 233 203 q 222 111 222 148 q 330 -17 222 -17 q 706 368 513 -17 l 718 368 m 545 651 q 570 570 629 640 q 518 331 651 439 q 499 285 505 312 l 491 285 l 491 591 l 494 608 q 545 651 510 637 m 505 567 l 502 401 l 505 372 q 564 567 627 437 q 505 567 537 553 m 492 842 q 641 768 576 839 q 682 749 657 758 q 714 771 698 755 q 698 814 720 795 q 638 812 668 793 q 703 836 649 858 q 684 717 790 760 q 559 774 614 717 l 516 804 q 481 806 500 809 q 486 747 437 766 q 527 760 503 760 q 538 736 535 752 q 440 744 489 695 q 492 842 421 809 m 932 471 l 973 471 l 1003 463 q 854 189 1158 317 l 859 200 q 992 330 951 233 q 913 450 1027 474 q 900 417 897 436 q 951 374 954 409 q 886 352 932 341 q 932 471 829 428 m 1079 441 q 1112 428 1098 444 q 1095 398 1112 409 q 1079 441 1049 404 m 1079 363 q 1112 349 1098 366 q 1095 319 1112 330 q 1079 363 1049 325 m 289 188 l 289 359 q 308 329 300 348 q 338 182 384 272 q 297 304 370 272 q 294 242 292 280 l 294 163 q 243 139 278 139 q 289 188 213 199 m 844 919 q 751 1113 781 1007 l 659 1055 q 449 870 595 977 l 545 877 q 564 898 561 895 q 676 1019 638 972 q 761 870 710 926 l 844 919 "},"":{"ha":694,"x_min":72,"x_max":1158,"o":"m 718 368 l 684 201 q 667 85 667 120 q 766 -17 667 -17 q 1032 142 884 -17 l 1044 205 q 842 56 909 56 q 802 99 802 56 q 818 201 802 123 l 884 536 l 935 745 l 791 736 l 742 493 q 552 207 655 330 q 397 83 448 83 q 357 138 357 83 q 366 202 357 157 l 433 536 q 449 651 449 617 q 351 753 449 753 q 84 593 232 753 l 72 531 q 274 680 208 680 q 314 637 314 680 q 298 536 314 614 l 233 203 q 222 111 222 148 q 330 -17 222 -17 q 706 368 513 -17 l 718 368 m 545 651 q 570 570 629 640 q 518 331 651 439 q 499 285 505 312 l 491 285 l 491 591 l 494 608 q 545 651 510 637 m 505 567 l 502 401 l 505 372 q 564 567 627 437 q 505 567 537 553 m 492 842 q 641 768 576 839 q 682 749 657 758 q 714 771 698 755 q 698 814 720 795 q 638 812 668 793 q 703 836 649 858 q 684 717 790 760 q 559 774 614 717 l 516 804 q 481 806 500 809 q 486 747 437 766 q 527 760 503 760 q 538 736 535 752 q 440 744 489 695 q 492 842 421 809 m 932 471 l 973 471 l 1003 463 q 854 189 1158 317 l 859 200 q 992 330 951 233 q 913 450 1027 474 q 900 417 897 436 q 951 374 954 409 q 886 352 932 341 q 932 471 829 428 m 1079 441 q 1112 428 1098 444 q 1095 398 1112 409 q 1079 441 1049 404 m 1079 363 q 1112 349 1098 366 q 1095 319 1112 330 q 1079 363 1049 325 m 289 188 l 289 359 q 308 329 300 348 q 338 182 384 272 q 297 304 370 272 q 294 242 292 280 l 294 163 q 243 139 278 139 q 289 188 213 199 m 498 870 l 602 945 l 522 1054 l 415 973 l 498 870 m 823 870 l 927 946 l 846 1054 l 740 975 l 823 870 "},"":{"ha":878,"x_min":234,"x_max":886,"o":"m 327 -218 l 467 -201 l 576 586 l 842 558 l 886 659 l 585 629 l 711 1029 l 572 1004 l 543 629 l 280 659 l 234 558 l 534 586 l 327 -218 "},"":{"ha":385,"x_min":255,"x_max":489,"o":"m 372 795 q 455 829 421 795 q 489 912 489 863 q 455 995 489 961 q 372 1029 421 1029 q 289 995 323 1029 q 255 912 255 961 q 289 829 255 863 q 372 795 323 795 m 372 837 q 319 859 342 837 q 297 912 297 882 q 319 965 297 942 q 372 987 342 987 q 425 965 402 987 q 447 912 447 942 q 425 859 447 882 q 372 837 402 837 "},"":{"ha":652,"x_min":134,"x_max":673,"o":"m 345 -17 l 386 -17 l 422 166 q 612 215 512 166 l 622 264 q 432 215 534 215 l 498 545 q 610 487 610 539 q 608 460 610 480 q 607 444 607 450 l 649 444 l 673 566 q 506 586 600 582 l 539 753 l 497 753 l 464 586 q 228 504 322 575 q 134 334 134 432 q 380 166 134 184 l 345 -17 m 391 219 q 256 361 256 240 q 456 545 256 515 l 391 219 "},"":{"ha":823,"x_min":16,"x_max":840,"o":"m 16 0 l 416 -18 l 443 -18 q 627 7 562 -18 q 761 107 692 33 l 771 157 q 640 97 698 111 q 452 83 582 83 l 259 83 q 403 196 360 142 q 464 338 446 250 l 470 368 l 696 368 l 705 410 l 478 410 l 503 536 q 551 669 523 635 q 640 703 578 703 q 765 584 765 703 q 763 564 765 573 l 761 552 l 808 552 l 840 721 q 677 753 751 753 q 468 679 552 753 q 356 469 383 604 l 344 410 l 193 410 l 185 368 l 336 368 l 327 323 q 257 129 298 175 q 115 83 216 83 l 102 83 l 16 0 "},"":{"ha":878,"x_min":101,"x_max":879,"o":"m 101 -144 q 374 -218 230 -218 q 645 -144 535 -218 q 755 37 755 -71 q 662 189 755 128 q 804 418 804 301 q 635 614 804 522 l 577 646 q 439 729 463 707 q 416 804 416 752 q 471 930 416 881 q 614 979 527 979 q 807 863 807 979 q 804 828 807 851 l 845 828 l 879 998 q 685 1029 766 1029 q 414 956 519 1029 q 309 768 309 883 q 385 614 309 675 q 232 385 232 498 q 414 182 232 267 l 484 151 q 608 76 576 107 q 639 -4 639 45 q 585 -120 639 -73 q 453 -168 532 -168 q 219 -75 328 -168 l 101 -144 m 628 215 q 538 263 572 248 l 447 307 q 334 430 334 360 q 419 588 334 513 q 526 530 467 559 l 592 497 q 704 372 704 442 q 628 215 704 300 "},"":{"ha":845,"x_min":397,"x_max":598,"o":"m 498 297 q 569 326 540 297 q 598 397 598 355 q 569 468 598 439 q 498 498 539 498 q 427 468 456 498 q 397 397 397 439 q 427 326 397 355 q 498 297 456 297 "},"":{"ha":878,"x_min":227,"x_max":892,"o":"m 344 -226 l 386 -226 l 524 467 q 644 484 562 467 l 503 -226 l 545 -226 l 689 499 q 808 552 747 517 l 819 605 q 699 552 748 568 l 781 964 q 884 931 846 947 l 892 976 q 790 1008 839 995 l 822 1171 l 780 1171 l 750 1017 q 662 1023 701 1023 l 634 1023 l 663 1171 l 621 1171 l 592 1023 q 327 911 426 998 q 227 704 227 825 q 481 467 227 510 l 344 -226 m 654 535 q 534 521 589 521 l 625 978 q 663 980 651 980 q 741 972 695 980 l 654 535 "},"":{"ha":838,"x_min":-329,"x_max":848,"o":"m -329 -433 q -211 -452 -265 -452 q 109 -317 -31 -452 q 300 102 241 -191 l 449 855 q 621 1105 499 1105 q 718 999 718 1105 q 639 831 718 897 l 619 815 l 566 777 q 472 627 472 707 q 609 397 472 547 l 661 341 q 750 177 750 244 q 709 88 750 126 q 612 50 668 50 q 457 109 526 50 l 376 15 q 499 -17 431 -17 q 745 57 644 -17 q 846 237 846 131 q 760 425 846 323 l 683 515 q 597 671 597 616 q 676 808 597 737 l 711 840 q 848 1057 848 962 q 808 1150 848 1112 q 711 1188 768 1188 q 450 1058 579 1188 q 280 677 332 941 l 129 -83 q 48 -309 96 -250 q -101 -368 0 -368 q -231 -340 -161 -368 l -329 -433 "},"":{"ha":845,"x_min":245,"x_max":848,"o":"m 547 418 q 760 507 671 418 q 848 720 848 595 q 760 932 848 844 q 547 1021 672 1021 q 334 932 422 1021 q 245 720 245 844 q 334 507 245 595 q 547 418 422 418 m 547 456 q 361 534 439 456 q 283 720 283 612 q 361 905 283 827 q 547 983 439 983 q 732 905 654 983 q 810 720 810 827 q 732 534 810 612 q 547 456 654 456 m 498 694 l 557 694 l 604 561 l 695 561 l 703 602 l 645 602 l 612 706 q 708 824 708 753 q 563 903 708 903 l 439 903 l 431 862 l 481 862 l 430 602 l 380 602 l 372 561 l 472 561 l 498 694 m 507 736 l 532 862 l 572 862 q 656 816 656 862 q 541 736 656 736 l 507 736 "},"":{"ha":1171,"x_min":157,"x_max":1211,"o":"m 684 -25 q 1057 130 902 -25 q 1211 502 1211 284 q 1057 874 1211 720 q 684 1029 902 1029 q 311 874 466 1029 q 157 502 157 720 q 311 130 157 284 q 684 -25 466 -25 m 684 17 q 341 159 484 17 q 199 502 199 302 q 341 845 199 703 q 684 987 484 987 q 1027 845 884 987 q 1169 502 1169 703 q 1027 159 1169 302 q 684 17 884 17 m 838 231 l 850 289 q 680 255 776 255 q 512 435 512 255 q 580 660 512 567 q 746 752 648 752 q 869 722 804 752 l 862 644 l 911 636 l 945 766 q 758 795 844 795 q 510 692 609 795 q 411 435 411 589 q 478 263 411 326 q 663 201 546 201 q 838 231 739 201 "},"":{"ha":1255,"x_min":212,"x_max":1396,"o":"m 414 962 l 330 536 l 238 536 l 229 494 l 514 494 l 522 536 l 430 536 l 515 962 l 640 962 l 623 870 l 681 870 l 707 1004 l 239 1004 l 212 870 l 271 870 l 289 962 l 414 962 m 952 536 l 981 536 l 1196 928 l 1109 494 l 1294 494 l 1303 536 l 1211 536 l 1295 962 l 1388 962 l 1396 1004 l 1192 1004 l 1028 704 l 976 1004 l 749 1004 l 741 962 l 833 962 l 748 536 l 656 536 l 648 494 l 807 494 l 888 901 l 952 536 "},"":{"ha":812,"x_min":522,"x_max":808,"o":"m 522 870 q 764 1004 595 920 l 808 1113 q 544 931 635 1008 l 522 870 "},"":{"ha":812,"x_min":384,"x_max":896,"o":"m 467 870 l 571 945 l 490 1054 l 384 973 l 467 870 m 791 870 l 896 946 l 815 1054 l 709 975 l 791 870 "},"":{"ha":878,"x_min":120,"x_max":918,"o":"m 120 247 l 361 247 l 247 96 l 334 96 l 449 247 l 857 247 l 871 322 l 508 322 l 631 481 l 903 481 l 918 556 l 689 556 l 802 707 l 719 707 l 604 556 l 182 556 l 167 481 l 546 481 l 421 322 l 135 322 l 120 247 "},"":{"ha":1603,"x_min":58,"x_max":1714,"o":"m 58 57 q 279 -25 151 -25 q 458 22 382 -25 q 629 191 534 70 l 723 314 l 1042 314 l 979 0 l 1320 -20 q 1362 -21 1347 -21 q 1572 97 1455 -21 l 1582 151 q 1379 75 1482 75 q 1205 91 1254 75 q 1156 147 1156 106 q 1162 206 1156 170 l 1222 502 l 1256 502 q 1466 482 1311 502 l 1535 552 l 1232 552 l 1310 954 l 1332 954 q 1555 933 1493 954 q 1617 859 1617 913 q 1611 812 1617 839 l 1654 812 l 1714 1004 l 1246 1004 q 762 964 892 1004 q 485 604 506 886 l 615 670 q 693 870 615 795 q 901 945 771 945 q 1128 921 1011 945 l 659 314 q 470 109 545 167 q 318 50 395 50 q 149 151 218 50 l 58 57 m 761 355 l 1153 871 l 1050 355 l 761 355 "},"":{"ha":1088,"x_min":159,"x_max":1127,"o":"m 229 -100 l 288 -100 l 357 9 q 536 -25 429 -25 q 951 177 775 -25 q 1127 656 1127 380 q 977 968 1127 863 l 1063 1105 l 1000 1105 l 931 994 q 773 1029 863 1029 q 343 829 527 1029 q 159 360 159 629 q 311 31 159 138 l 229 -100 m 365 114 q 314 322 314 203 q 399 726 314 557 q 546 916 459 844 q 718 987 633 987 q 887 926 817 987 l 365 114 m 923 883 q 976 663 976 793 q 849 207 976 393 q 538 21 723 21 q 399 75 470 21 l 923 883 "},"":{"ha":1171,"x_min":158,"x_max":1180,"o":"m 644 336 q 747 164 698 211 q 872 117 795 117 q 1085 228 991 117 q 1180 478 1180 339 q 1129 627 1180 568 q 999 686 1078 686 q 700 460 870 686 q 595 636 646 587 q 469 686 545 686 q 255 573 353 686 q 158 326 158 460 q 210 175 158 234 q 342 117 262 117 q 644 336 488 117 m 622 372 q 362 182 487 182 q 268 222 304 182 q 231 323 231 261 q 294 500 231 418 q 429 583 357 583 q 622 372 526 583 m 722 425 q 974 614 859 614 q 1071 574 1034 614 q 1108 469 1108 534 q 1044 296 1108 378 q 909 214 981 214 q 722 425 819 214 "},"":{"ha":878,"x_min":71,"x_max":915,"o":"m 71 0 l 808 0 l 823 75 l 86 75 l 71 0 m 441 201 l 517 201 l 570 465 l 900 465 l 915 540 l 585 540 l 637 803 l 562 803 l 509 540 l 178 540 l 163 465 l 494 465 l 441 201 "},"":{"ha":878,"x_min":71,"x_max":979,"o":"m 71 0 l 808 0 l 823 75 l 86 75 l 71 0 m 979 862 l 170 494 l 833 125 l 848 204 l 337 486 l 958 770 l 979 862 "},"":{"ha":878,"x_min":71,"x_max":905,"o":"m 71 0 l 808 0 l 823 75 l 86 75 l 71 0 m 96 125 l 905 494 l 243 862 l 227 783 l 738 502 l 117 216 l 96 125 "},"":{"ha":909,"x_min":100,"x_max":1036,"o":"m 146 0 l 503 -17 l 587 73 l 366 85 q 551 243 489 130 l 749 243 l 758 284 l 574 284 q 597 347 591 315 l 605 385 l 779 385 l 787 427 l 613 427 q 862 644 699 644 q 957 616 910 644 l 1036 721 q 915 753 984 753 q 576 445 694 753 l 576 488 q 425 753 576 753 q 253 683 345 753 q 100 503 162 612 l 130 479 q 236 601 168 548 q 353 654 304 654 q 437 594 404 654 q 470 442 470 534 q 469 427 470 438 l 292 427 l 283 385 l 469 385 q 460 284 466 326 l 264 284 l 256 243 l 450 243 q 262 92 391 92 q 233 94 254 92 l 146 0 "},"":{"ha":935,"x_min":94,"x_max":1013,"o":"m 94 -284 l 240 -268 l 294 0 q 675 368 487 0 l 685 368 l 652 201 q 636 85 636 121 q 734 -17 636 -17 q 1000 142 852 -17 l 1013 205 q 811 50 878 50 q 770 100 770 50 q 786 201 770 125 l 852 536 l 903 745 l 759 736 l 709 489 q 522 216 623 332 q 369 100 420 100 q 327 152 327 100 q 334 201 327 166 l 385 454 q 402 587 402 543 q 347 745 402 696 l 194 736 q 265 576 265 653 q 254 471 265 528 l 146 -71 l 94 -284 "},"":{"ha":878,"x_min":217,"x_max":826,"o":"m 250 877 q 488 970 363 970 q 784 570 784 970 q 588 686 700 686 q 334 538 452 686 q 217 219 217 391 q 273 48 217 113 q 421 -17 329 -17 q 711 164 595 -17 q 826 619 826 345 q 749 964 826 841 q 532 1088 671 1088 q 250 877 352 1088 m 780 510 q 671 197 760 323 q 474 70 583 70 q 379 128 416 70 q 343 279 343 186 q 420 536 343 425 q 597 648 496 648 q 780 510 706 648 "},"":{"ha":903,"x_min":33,"x_max":946,"o":"m 33 0 l 485 -22 q 596 -25 563 -25 q 727 -2 677 -25 q 874 100 778 20 l 884 147 q 667 84 789 84 q 608 86 638 84 l 288 102 q 487 296 349 140 l 731 574 l 397 954 l 552 954 q 791 933 732 954 q 850 849 850 913 q 846 813 850 833 l 843 799 l 888 799 l 946 1004 l 365 1004 l 279 877 l 591 527 l 477 376 q 201 108 293 132 q 132 100 172 100 l 33 0 "},"":{"ha":1246,"x_min":45,"x_max":1527,"o":"m 50 0 l 476 -17 l 570 83 l 309 89 q 463 229 413 155 q 537 431 512 303 l 631 903 l 1008 903 l 869 207 q 844 32 844 76 q 851 -17 844 9 l 1121 0 l 1131 47 q 1068 42 1088 42 q 1006 113 1006 42 q 1024 269 1006 179 l 1150 903 l 1190 903 q 1392 931 1320 903 q 1527 1033 1465 959 l 1497 1056 q 1277 1003 1439 1003 l 1155 1004 l 677 1004 q 45 571 107 1004 l 186 637 q 180 697 180 673 q 441 903 180 903 l 489 903 l 386 384 q 314 157 352 215 q 199 100 277 100 l 164 100 l 152 100 l 50 0 "},"":{"ha":1155,"x_min":112,"x_max":1184,"o":"m 233 -8 l 375 0 l 505 644 l 823 644 l 751 287 q 716 92 716 111 q 815 -17 716 -17 q 1090 142 950 -17 l 1103 203 q 895 56 979 56 q 852 100 852 56 q 882 270 852 121 l 957 644 l 1166 644 l 1184 736 l 336 736 q 136 682 217 736 l 112 562 q 340 644 214 644 l 371 644 l 283 201 l 233 -8 "},"":{"ha":878,"x_min":158,"x_max":880,"o":"m 789 977 q 756 918 756 951 q 800 870 756 870 q 855 896 830 870 q 880 952 880 922 q 793 1029 880 1029 q 600 895 677 1029 q 460 443 524 760 l 449 385 q 416 186 446 368 q 354 -94 382 -28 q 273 -159 327 -159 q 252 -154 264 -159 q 287 -94 287 -122 q 239 -50 287 -50 q 184 -75 210 -50 q 158 -127 158 -99 q 248 -201 158 -201 q 443 -66 365 -201 q 582 380 520 69 l 593 438 q 627 638 595 450 q 689 920 664 857 q 764 983 714 983 q 789 977 775 983 "},"":{"ha":669,"x_min":172,"x_max":806,"o":"m 806 679 q 650 559 699 559 q 623 592 623 559 q 639 694 623 609 l 667 833 l 713 1021 q 556 1029 618 1029 q 279 905 382 1029 q 172 622 172 774 q 260 485 172 485 q 391 561 319 485 q 515 753 463 636 l 543 753 l 523 675 q 508 571 508 614 q 587 486 508 486 q 791 610 672 486 l 806 679 m 559 882 q 321 590 387 590 q 281 663 281 590 q 334 884 281 795 q 465 972 387 972 q 573 946 517 972 l 559 882 "},"":{"ha":669,"x_min":220,"x_max":748,"o":"m 397 485 q 640 600 532 485 q 748 856 748 714 q 698 981 748 934 q 566 1029 648 1029 q 327 913 435 1029 q 220 656 220 798 q 269 532 220 579 q 397 485 318 485 m 445 535 q 347 683 347 535 q 401 888 347 797 q 522 979 454 979 q 621 836 621 979 q 566 628 621 722 q 445 535 511 535 "},"":{"ha":1165,"x_min":-14,"x_max":1166,"o":"m -3 -25 q 100 1 56 1 l 137 -1 l 450 -8 l 544 109 q 391 435 391 209 q 510 821 391 654 q 785 987 629 987 q 955 901 888 987 q 1021 680 1021 814 q 925 324 1021 490 q 694 109 830 157 l 604 0 l 843 -15 q 918 -17 876 -17 q 1126 96 1012 -17 l 1137 150 q 965 108 1079 108 l 869 109 l 786 109 q 1166 682 1166 317 q 1070 933 1166 838 q 813 1029 973 1029 q 417 844 595 1029 q 239 433 239 659 q 372 109 239 235 l 272 109 q 109 92 157 109 q -14 12 60 75 l -3 -25 "},"":{"ha":1272,"x_min":125,"x_max":1251,"o":"m 667 368 q 648 224 648 274 q 709 52 648 121 q 860 -18 770 -18 q 1240 139 1016 -18 l 1250 191 q 941 64 1047 64 q 791 264 791 64 l 791 296 q 1124 393 997 304 q 1251 616 1251 481 q 1213 715 1251 677 q 1113 753 1175 753 q 858 642 995 753 l 884 736 q 857 738 861 738 q 673 753 715 753 q 283 555 446 753 q 125 165 125 364 q 269 -17 125 -17 q 471 91 363 -17 q 655 368 578 198 l 667 368 m 720 644 l 689 490 q 496 211 606 334 q 329 88 387 88 q 266 195 266 88 q 353 526 266 342 q 550 683 427 683 q 720 644 634 683 m 791 334 q 885 580 808 471 q 1042 690 962 690 q 1118 584 1118 690 q 1031 413 1118 480 q 791 334 943 347 "},"":{"ha":809,"x_min":113,"x_max":847,"o":"m 168 -100 l 247 9 q 346 -17 302 -17 q 676 147 529 -17 q 823 514 823 311 q 749 702 823 612 l 847 837 l 796 837 l 715 724 q 603 753 663 753 q 285 586 432 753 q 138 223 138 418 q 213 35 138 115 l 113 -100 l 168 -100 m 291 142 q 277 249 277 209 q 359 558 277 420 q 543 696 441 696 q 649 635 615 696 l 291 142 m 669 591 q 685 472 685 522 q 601 172 685 307 q 414 37 517 37 q 311 97 347 37 l 669 591 "},"":{"ha":694,"x_min":60,"x_max":618,"o":"m 618 654 l 535 753 l 429 681 l 510 569 l 618 654 m 554 473 l 419 434 l 415 415 q 273 183 388 281 l 201 123 q 60 -109 60 3 q 129 -242 60 -192 q 310 -293 197 -293 q 559 -244 418 -293 l 591 -83 l 549 -83 q 353 -251 507 -251 q 247 -205 288 -251 q 206 -86 206 -160 q 368 210 206 73 l 395 234 q 554 473 541 359 "},"":{"ha":351,"x_min":68,"x_max":412,"o":"m 412 650 l 332 753 l 227 678 l 307 569 l 412 650 m 306 474 l 269 462 l 113 -64 l 68 -293 l 207 -268 l 247 -64 l 306 474 "},"":{"ha":878,"x_min":167,"x_max":918,"o":"m 167 481 l 815 481 l 766 234 l 854 234 l 918 556 l 182 556 l 167 481 "},"":{"ha":987,"x_min":229,"x_max":1333,"o":"m 244 257 l 372 322 l 551 -201 l 621 -201 l 1333 1105 l 1289 1105 l 613 -134 l 431 399 l 229 293 l 244 257 "},"":{"ha":639,"x_min":102,"x_max":810,"o":"m 149 -218 l 295 -201 l 403 343 l 578 343 l 587 385 l 411 385 l 431 482 q 606 686 471 686 q 720 638 671 686 l 810 739 q 718 753 770 753 q 436 652 562 753 q 281 402 311 552 l 277 385 l 110 385 l 102 343 l 269 343 l 197 -17 l 149 -218 "},"":{"ha":878,"x_min":103,"x_max":936,"o":"m 103 159 l 145 159 q 279 298 201 298 q 421 237 316 298 l 496 194 q 656 138 593 138 q 880 359 814 138 l 838 359 q 704 228 781 228 q 563 282 656 228 l 488 326 q 325 389 376 389 q 103 159 162 389 m 159 444 l 201 444 q 336 583 257 583 q 477 521 373 583 l 552 478 q 713 422 649 422 q 936 644 869 422 l 894 644 q 761 513 838 513 q 620 566 713 513 l 544 610 q 381 673 433 673 q 159 444 218 673 "},"":{"ha":1139,"x_min":7,"x_max":1089,"o":"m 7 0 l 985 -17 l 1089 91 q 1006 363 1041 205 l 909 803 l 868 1029 l 741 1004 l 411 417 q 156 122 245 122 q 127 125 146 122 l 7 0 m 254 123 q 425 339 340 194 l 743 878 l 916 107 l 254 123 "},"":{"ha":795,"x_min":154,"x_max":824,"o":"m 349 67 l 466 130 q 292 415 394 292 q 549 669 501 555 l 408 616 q 154 368 333 477 q 349 67 282 223 m 625 67 l 741 134 q 568 419 669 298 q 824 669 776 557 l 684 620 q 429 368 616 497 q 625 67 547 249 "},"":{"ha":795,"x_min":117,"x_max":787,"o":"m 592 669 l 475 606 q 649 321 548 443 q 393 67 440 180 l 533 121 q 787 368 609 260 q 592 669 660 513 m 317 669 l 200 602 q 374 317 273 439 q 117 67 165 180 l 258 117 q 512 368 325 239 q 317 669 394 487 "},"":{"ha":1389,"x_min":168,"x_max":1249,"o":"m 168 0 l 301 0 l 328 134 l 194 134 l 168 0 m 628 0 l 762 0 l 788 134 l 654 134 l 628 0 m 1088 0 l 1221 0 l 1249 134 l 1114 134 l 1088 0 "},"":{"ha":922,"x_min":0,"x_max":0,"o":""},"":{"ha":694,"x_min":62,"x_max":1434,"o":"m 62 57 q 279 -25 153 -25 q 507 49 411 -25 q 709 309 602 123 l 1079 309 l 1107 -25 l 1418 26 l 1427 71 q 1348 67 1359 67 q 1258 119 1283 67 q 1220 334 1234 171 l 1181 803 l 1172 1029 l 1034 1004 q 933 996 966 998 q 680 945 767 985 q 528 813 592 906 q 456 602 469 730 l 589 668 q 666 870 589 800 q 885 941 743 941 q 1012 932 938 941 l 720 428 q 510 133 597 216 q 322 50 422 50 q 153 149 218 50 l 62 57 m 739 359 l 1031 869 l 1074 359 l 739 359 m 371 716 l 393 713 q 363 475 463 591 l 363 464 q 374 420 366 445 q 477 342 455 426 q 409 231 488 269 q 387 90 447 133 q 295 119 333 68 l 292 133 q 366 168 306 193 q 333 100 393 117 q 409 163 414 71 l 398 228 l 395 233 q 235 372 246 212 q 341 524 265 456 q 371 716 298 627 m 385 673 q 352 532 330 616 q 385 673 441 613 m 349 467 q 376 239 178 282 l 395 250 l 390 269 l 387 290 l 376 336 l 374 350 l 368 372 l 366 382 q 374 255 273 320 q 360 420 224 328 q 349 467 360 442 m 385 382 q 404 271 385 355 l 406 258 l 412 252 l 431 263 q 385 382 496 353 m 1329 970 q 1353 889 1413 960 q 1301 650 1434 759 q 1282 604 1288 631 l 1274 604 l 1274 911 l 1277 927 q 1329 970 1293 957 m 1288 886 l 1285 721 l 1288 691 q 1348 886 1410 756 q 1288 886 1320 873 m 766 264 q 915 191 850 261 q 956 172 931 180 q 988 193 972 177 q 972 237 994 218 q 912 234 942 215 q 977 258 923 280 q 958 139 1064 182 q 833 196 888 139 l 790 226 q 755 229 774 231 q 760 169 711 188 q 801 182 777 182 q 812 158 809 174 q 714 166 763 117 q 766 264 695 231 m 1161 135 l 1161 306 q 1180 276 1172 295 q 1210 130 1256 219 q 1169 252 1242 219 q 1166 189 1164 227 l 1166 111 q 1115 86 1150 86 q 1161 135 1085 146 m 1116 677 l 1116 848 q 1135 818 1127 837 q 1165 671 1211 761 q 1124 793 1198 761 q 1122 731 1119 769 l 1122 652 q 1070 628 1105 628 q 1116 677 1040 688 m 1185 1141 q 1040 1331 1124 1246 l 959 1268 q 1100 1088 1051 1186 l 1185 1141 "},"":{"ha":694,"x_min":62,"x_max":1434,"o":"m 62 57 q 279 -25 153 -25 q 507 49 411 -25 q 709 309 602 123 l 1079 309 l 1107 -25 l 1418 26 l 1427 71 q 1348 67 1359 67 q 1258 119 1283 67 q 1220 334 1234 171 l 1181 803 l 1172 1029 l 1034 1004 q 933 996 966 998 q 680 945 767 985 q 528 813 592 906 q 456 602 469 730 l 589 668 q 666 870 589 800 q 885 941 743 941 q 1012 932 938 941 l 720 428 q 510 133 597 216 q 322 50 422 50 q 153 149 218 50 l 62 57 m 739 359 l 1031 869 l 1074 359 l 739 359 m 371 716 l 393 713 q 363 475 463 591 l 363 464 q 374 420 366 445 q 477 342 455 426 q 409 231 488 269 q 387 90 447 133 q 295 119 333 68 l 292 133 q 366 168 306 193 q 333 100 393 117 q 409 163 414 71 l 398 228 l 395 233 q 235 372 246 212 q 341 524 265 456 q 371 716 298 627 m 385 673 q 352 532 330 616 q 385 673 441 613 m 349 467 q 376 239 178 282 l 395 250 l 390 269 l 387 290 l 376 336 l 374 350 l 368 372 l 366 382 q 374 255 273 320 q 360 420 224 328 q 349 467 360 442 m 385 382 q 404 271 385 355 l 406 258 l 412 252 l 431 263 q 385 382 496 353 m 1329 970 q 1353 889 1413 960 q 1301 650 1434 759 q 1282 604 1288 631 l 1274 604 l 1274 911 l 1277 927 q 1329 970 1293 957 m 1288 886 l 1285 721 l 1288 691 q 1348 886 1410 756 q 1288 886 1320 873 m 766 264 q 915 191 850 261 q 956 172 931 180 q 988 193 972 177 q 972 237 994 218 q 912 234 942 215 q 977 258 923 280 q 958 139 1064 182 q 833 196 888 139 l 790 226 q 755 229 774 231 q 760 169 711 188 q 801 182 777 182 q 812 158 809 174 q 714 166 763 117 q 766 264 695 231 m 1161 135 l 1161 306 q 1180 276 1172 295 q 1210 130 1256 219 q 1169 252 1242 219 q 1166 189 1164 227 l 1166 111 q 1115 86 1150 86 q 1161 135 1085 146 m 1116 677 l 1116 848 q 1135 818 1127 837 q 1165 671 1211 761 q 1124 793 1198 761 q 1122 731 1119 769 l 1122 652 q 1070 628 1105 628 q 1116 677 1040 688 m 894 1097 q 958 1156 918 1156 q 1028 1132 983 1156 l 1059 1114 q 1151 1088 1108 1088 q 1297 1255 1273 1088 l 1253 1242 q 1183 1175 1222 1175 q 1107 1203 1157 1175 l 1084 1216 q 997 1246 1029 1246 q 899 1203 941 1246 q 846 1088 857 1159 l 894 1097 "},"":{"ha":694,"x_min":157,"x_max":1271,"o":"m 519 -25 q 947 174 768 -25 q 1126 650 1126 372 q 1029 927 1126 825 q 767 1029 932 1029 q 341 828 524 1029 q 157 360 157 627 q 255 79 157 182 q 519 -25 352 -25 m 545 21 q 314 359 314 21 q 441 802 314 617 q 744 986 568 986 q 974 655 974 986 q 848 208 974 394 q 545 21 722 21 m 617 829 q 766 756 701 827 q 807 737 783 745 q 840 759 823 743 q 823 802 845 783 q 764 800 793 781 q 829 824 774 846 q 810 705 916 748 q 685 762 739 705 l 642 791 q 606 794 625 797 q 612 734 563 753 q 652 748 628 748 q 663 724 661 740 q 566 732 614 683 q 617 829 547 797 m 1154 517 l 1176 515 q 1146 276 1246 393 l 1146 265 q 1157 222 1149 246 q 1260 143 1238 227 q 1192 32 1271 70 q 1171 -109 1230 -66 q 1078 -79 1116 -131 l 1076 -66 q 1149 -31 1089 -6 q 1116 -98 1176 -82 q 1192 -36 1198 -128 l 1181 29 l 1179 35 q 1019 173 1029 13 q 1124 325 1048 257 q 1154 517 1081 428 m 1168 474 q 1135 333 1114 417 q 1190 417 1171 363 q 1168 474 1195 450 m 1133 268 q 1160 40 962 83 l 1179 51 l 1173 70 l 1171 92 l 1160 138 l 1157 151 l 1152 173 l 1149 184 q 1157 56 1057 121 q 1143 222 1008 130 q 1133 268 1143 243 m 1168 184 q 1187 73 1168 157 l 1190 59 l 1195 54 q 1236 130 1238 75 q 1168 184 1222 176 m 508 490 l 549 490 l 578 481 q 429 208 733 335 l 435 218 q 568 349 527 251 q 489 468 603 492 q 475 435 473 454 q 527 392 530 427 q 462 370 508 359 q 508 490 405 446 m 654 460 q 687 446 673 463 q 671 416 687 427 q 654 460 625 422 m 654 381 q 687 368 673 384 q 671 338 687 349 q 654 381 625 343 m 236 345 l 236 516 q 255 486 247 505 q 285 340 331 429 q 244 462 317 429 q 241 399 239 437 l 241 321 q 190 296 225 296 q 236 345 160 356 m 1051 562 l 1051 732 q 1070 703 1062 722 q 1100 556 1146 646 q 1059 678 1133 646 q 1057 616 1054 654 l 1057 537 q 1005 513 1040 513 q 1051 562 975 572 m 635 1097 q 699 1156 659 1156 q 769 1132 724 1156 l 800 1114 q 892 1088 849 1088 q 1038 1255 1014 1088 l 994 1242 q 924 1175 963 1175 q 848 1203 898 1175 l 825 1216 q 738 1246 770 1246 q 640 1203 682 1246 q 587 1088 598 1159 l 635 1097 "},"":{"ha":1391,"x_min":157,"x_max":1501,"o":"m 769 0 l 1094 -20 q 1133 -21 1115 -21 q 1358 97 1241 -21 l 1369 151 q 1157 75 1270 75 q 943 146 943 75 q 953 205 943 157 l 1008 502 l 1042 502 q 1252 482 1098 502 l 1321 552 l 1019 552 l 1097 954 l 1118 954 q 1342 933 1280 954 q 1404 859 1404 913 q 1398 812 1404 839 l 1440 812 l 1501 1004 l 969 1004 l 958 949 q 753 1029 877 1029 q 337 825 517 1029 q 157 356 157 622 q 253 77 157 178 q 517 -25 349 -25 q 783 66 669 -25 l 769 0 m 837 340 q 551 16 770 16 q 374 111 437 16 q 310 372 310 205 q 439 795 310 603 q 724 987 569 987 q 863 933 810 987 q 917 792 917 879 q 905 681 917 740 l 837 340 "},"":{"ha":1272,"x_min":136,"x_max":1251,"o":"m 665 136 q 864 -17 713 -17 q 1240 137 1020 -17 l 1250 189 q 940 62 1048 62 q 791 262 791 62 l 791 293 q 1124 390 997 302 q 1251 613 1251 479 q 1212 714 1251 675 q 1114 753 1174 753 q 809 593 966 753 q 612 753 748 753 q 285 587 433 753 q 136 223 136 422 q 197 52 136 120 q 349 -17 257 -17 q 665 136 503 -17 m 406 33 q 275 256 275 33 q 360 559 275 425 q 550 694 444 694 q 649 633 612 694 q 686 471 686 572 q 599 168 686 303 q 406 33 513 33 m 795 334 q 887 580 810 470 q 1045 690 964 690 q 1122 584 1122 690 q 1034 413 1122 480 q 795 334 946 347 "},"":{"ha":694,"x_min":144,"x_max":713,"o":"m 144 368 l 696 368 l 713 452 l 161 452 l 144 368 "},"":{"ha":1389,"x_min":140,"x_max":1409,"o":"m 140 368 l 1395 368 l 1409 435 l 154 435 l 140 368 "},"":{"ha":644,"x_min":265,"x_max":804,"o":"m 747 903 l 663 1006 q 775 1146 677 1127 l 804 1188 q 558 930 578 1188 l 640 820 l 747 903 m 454 903 l 371 1006 q 482 1146 383 1127 l 511 1188 q 265 930 285 1188 l 347 820 l 454 903 "},"":{"ha":644,"x_min":232,"x_max":770,"o":"m 289 1107 l 372 1005 q 260 862 359 882 l 232 820 q 478 1081 458 820 l 396 1188 l 289 1107 m 581 1107 l 665 1005 q 553 862 652 882 l 525 820 q 770 1081 751 820 l 689 1188 l 581 1107 "},"":{"ha":351,"x_min":265,"x_max":511,"o":"m 454 903 l 371 1006 q 482 1146 383 1127 l 511 1188 q 265 930 285 1188 l 347 820 l 454 903 "},"":{"ha":351,"x_min":231,"x_max":477,"o":"m 288 1107 l 372 1005 q 260 862 359 882 l 231 820 q 477 1081 457 820 l 395 1188 l 288 1107 "},"":{"ha":878,"x_min":144,"x_max":895,"o":"m 389 63 l 515 63 l 540 189 l 414 189 l 389 63 m 144 364 l 880 364 l 895 439 l 159 439 l 144 364 m 499 615 l 625 615 l 650 741 l 524 741 l 499 615 "},"":{"ha":878,"x_min":144,"x_max":881,"o":"m 439 0 l 881 368 l 586 736 l 144 368 l 439 0 m 461 108 l 252 368 l 564 627 l 780 368 l 461 108 "},"":{"ha":694,"x_min":36,"x_max":985,"o":"m 167 -432 q 291 -452 218 -452 q 614 -323 482 -452 q 806 51 746 -194 l 925 533 l 985 745 l 841 736 l 789 519 q 638 268 652 290 q 519 151 562 151 q 468 272 484 151 l 439 498 q 396 704 419 655 q 319 753 373 753 q 117 612 224 753 l 104 543 q 240 661 198 661 q 302 515 283 661 l 334 251 q 377 53 353 106 q 452 0 402 0 q 581 103 499 0 q 743 368 663 207 l 751 368 l 646 -65 q 551 -309 604 -242 q 404 -376 498 -376 q 260 -337 328 -376 l 167 -432 m 229 309 l 250 306 q 220 67 321 184 l 220 56 q 231 13 223 37 q 334 -66 313 18 q 267 -177 345 -139 q 245 -318 304 -275 q 153 -288 191 -340 l 150 -275 q 223 -239 163 -215 q 191 -307 250 -291 q 267 -245 272 -337 l 256 -180 l 253 -174 q 93 -36 104 -196 q 199 116 123 48 q 229 309 155 219 m 242 265 q 210 124 188 208 q 242 265 299 205 m 207 59 q 234 -169 36 -125 l 253 -158 l 248 -139 l 245 -117 l 234 -71 l 231 -58 l 226 -36 l 223 -25 q 231 -153 131 -87 q 218 13 82 -79 q 207 59 218 35 m 242 -25 q 261 -136 242 -52 l 264 -150 l 269 -155 l 288 -144 q 242 -25 353 -55 m 751 100 l 751 271 q 770 241 762 260 q 800 94 846 184 q 759 216 832 184 q 756 154 753 192 l 756 75 q 705 51 740 51 q 751 100 675 111 m 365 503 l 365 674 q 384 644 376 663 q 414 498 460 587 q 373 620 446 587 q 370 557 368 595 l 370 479 q 319 454 354 454 q 365 503 289 514 m 808 -346 l 808 -175 q 827 -205 819 -186 q 857 -351 903 -262 q 816 -229 889 -262 q 813 -292 810 -254 l 813 -370 q 762 -395 797 -395 q 808 -346 732 -335 m 511 816 q 661 743 595 813 q 701 724 677 732 q 734 745 718 729 q 718 789 739 770 q 658 786 688 767 q 723 810 669 832 q 704 691 810 734 q 579 748 633 691 l 536 778 q 500 781 519 783 q 506 721 457 740 q 547 734 522 734 q 557 710 555 726 q 460 718 509 669 q 511 816 441 783 m 509 870 l 614 945 l 533 1054 l 427 973 l 509 870 m 834 870 l 939 946 l 858 1054 l 751 975 l 834 870 "},"":{"ha":694,"x_min":149,"x_max":1197,"o":"m 273 -223 q 493 -284 377 -284 q 1002 271 864 -284 l 1135 803 l 1197 1017 l 1040 1004 l 896 433 q 759 245 830 323 q 654 168 688 168 q 601 301 611 168 l 573 673 q 516 947 558 865 q 392 1029 475 1029 q 204 920 314 1029 l 193 865 q 335 945 283 945 q 424 742 408 945 l 464 237 q 572 38 479 38 q 869 331 688 38 l 812 102 q 558 -230 730 -230 q 366 -134 446 -230 l 273 -223 m 730 704 l 730 989 l 741 989 q 760 943 744 967 q 809 696 893 842 l 806 704 q 741 897 882 842 l 741 671 q 714 636 733 652 q 635 647 671 604 q 730 704 649 731 m 341 547 l 363 544 q 333 305 433 422 l 333 294 q 344 251 336 275 q 447 172 425 256 q 379 61 458 99 q 357 -80 417 -37 q 265 -50 303 -102 l 262 -37 q 336 -1 276 23 q 303 -69 363 -53 q 379 -7 385 -99 l 368 58 l 366 64 q 205 202 216 42 q 311 354 235 286 q 341 547 268 457 m 355 503 q 322 362 300 446 q 376 446 357 392 q 355 503 382 479 m 319 297 q 347 69 149 113 l 366 80 l 360 99 l 357 121 l 347 167 l 344 180 l 338 202 l 336 213 q 344 85 243 151 q 330 251 195 159 q 319 297 330 273 m 355 213 q 374 102 355 186 l 376 88 l 382 83 q 422 159 425 104 q 355 213 409 205 m 530 274 l 530 445 q 549 415 541 434 q 578 269 625 358 q 538 391 611 358 q 535 328 532 366 l 535 250 q 484 225 519 225 q 530 274 454 285 m 1025 646 l 1025 817 q 1044 787 1036 806 q 1074 640 1120 730 q 1033 762 1106 730 q 1030 700 1027 738 l 1030 621 q 979 597 1014 597 q 1025 646 949 656 m 901 111 l 901 281 q 920 252 911 271 q 949 105 996 195 q 909 227 982 195 q 906 165 903 203 l 906 86 q 854 62 890 62 q 901 111 825 121 m 673 1088 l 778 1162 l 697 1272 l 591 1191 l 673 1088 m 998 1088 l 1103 1164 l 1022 1272 l 916 1193 l 998 1088 "},"":{"ha":50,"x_min":-402,"x_max":652,"o":"m -402 -25 l -310 -25 l 652 1029 l 559 1029 l -402 -25 "},"":{"ha":878,"x_min":113,"x_max":960,"o":"m 724 304 q 844 562 844 429 q 803 700 844 629 l 960 831 l 936 860 l 780 730 q 597 803 701 803 q 383 730 491 803 l 279 860 l 244 831 l 348 700 q 229 443 229 577 q 269 304 229 374 l 113 174 l 136 144 l 292 275 q 475 201 371 201 q 689 275 581 201 l 793 144 l 828 174 l 724 304 m 770 545 q 684 356 770 439 q 489 272 598 272 q 355 324 408 272 q 302 457 302 376 q 388 648 302 564 q 584 732 473 732 q 718 680 665 732 q 770 545 770 627 "},"":{"ha":527,"x_min":158,"x_max":553,"o":"m 353 67 l 470 130 q 296 415 398 292 q 553 669 505 555 l 412 616 q 158 368 337 477 q 353 67 286 223 "},"":{"ha":527,"x_min":120,"x_max":515,"o":"m 319 669 l 203 606 q 376 321 276 442 q 120 67 168 181 l 260 121 q 515 368 336 259 q 319 669 387 513 "},"":{"ha":959,"x_min":-289,"x_max":1042,"o":"m -289 -443 q -178 -452 -231 -452 q 157 -307 24 -452 q 336 103 291 -163 l 435 686 l 626 686 q 756 614 756 686 q 743 510 756 580 l 681 201 q 665 85 665 120 q 763 -17 665 -17 q 1029 142 882 -17 l 1042 205 q 840 56 907 56 q 800 99 800 56 q 815 201 800 123 l 882 536 l 933 753 l 699 736 l 444 736 l 464 833 q 545 1053 496 994 q 696 1113 595 1113 q 825 1074 763 1113 l 922 1177 q 813 1188 872 1188 q 489 1065 627 1188 q 309 736 352 942 l 195 736 l 147 686 l 299 686 l 169 -85 q 91 -302 143 -237 q -59 -368 38 -368 q -192 -342 -127 -368 l -289 -443 m 794 871 l 972 963 l 1031 1088 l 839 963 l 794 871 "},"":{"ha":971,"x_min":-289,"x_max":1415,"o":"m -289 -440 q -175 -452 -229 -452 q 158 -306 24 -452 q 336 106 292 -159 l 434 686 l 469 686 q 643 679 553 686 l 697 736 l 444 736 l 455 792 q 547 1017 488 955 q 727 1079 606 1079 q 920 1015 823 1079 q 769 648 821 905 l 680 201 q 664 85 664 120 q 762 -17 664 -17 q 1028 142 880 -17 l 1041 205 q 838 56 906 56 q 798 99 798 56 q 814 201 798 123 l 922 745 q 1023 1037 964 953 q 1187 1121 1082 1121 q 1324 1083 1245 1121 l 1415 1177 q 1293 1188 1353 1188 q 1014 1100 1143 1188 q 808 1146 899 1146 q 494 1032 632 1146 q 311 736 356 918 l 196 736 l 148 686 l 300 686 l 170 -85 q 92 -302 144 -237 q -58 -368 39 -368 q -191 -342 -125 -368 l -289 -440 "},"":{"ha":878,"x_min":152,"x_max":886,"o":"m 329 -218 l 469 -201 l 494 174 l 757 145 l 805 245 l 503 216 l 576 581 l 838 552 l 886 652 l 584 622 l 713 1029 l 573 1004 l 542 622 l 280 652 l 233 552 l 534 581 l 461 216 l 199 245 l 152 145 l 453 174 l 329 -218 "},"":{"ha":878,"x_min":434,"x_max":604,"o":"m 434 330 l 576 330 l 604 473 l 463 473 l 434 330 "},"":{"ha":393,"x_min":34,"x_max":332,"o":"m 98 120 l 199 -17 q 72 -159 178 -149 l 34 -201 q 247 -126 170 -201 q 332 85 325 -52 l 233 218 l 98 120 "},"":{"ha":644,"x_min":28,"x_max":567,"o":"m 85 86 l 169 -16 q 57 -159 156 -139 l 28 -201 q 275 60 254 -201 l 193 168 l 85 86 m 378 86 l 462 -16 q 350 -159 448 -139 l 321 -201 q 567 60 548 -201 l 486 168 l 378 86 "},"":{"ha":1480,"x_min":123,"x_max":1561,"o":"m 363 502 q 551 596 474 502 q 629 825 629 690 q 582 956 629 907 q 455 1004 534 1004 q 270 909 347 1004 q 193 680 193 814 q 240 551 193 600 q 363 502 286 502 m 293 674 q 342 874 293 786 q 455 963 392 963 q 537 830 537 963 q 487 632 537 720 q 375 544 437 544 q 293 674 293 544 m 800 0 q 989 94 911 0 q 1066 323 1066 188 q 1019 454 1066 406 q 892 502 972 502 q 707 407 784 502 q 631 178 631 312 q 677 49 631 98 q 800 0 724 0 m 730 171 q 780 373 730 284 q 892 461 829 461 q 975 328 975 461 q 925 130 975 218 q 812 41 875 41 q 730 171 730 41 m 123 -25 l 212 -25 l 1136 1029 l 1047 1029 l 123 -25 m 1296 0 q 1484 94 1407 0 q 1561 323 1561 188 q 1514 454 1561 406 q 1388 502 1467 502 q 1202 407 1279 502 q 1126 178 1126 312 q 1173 49 1126 98 q 1296 0 1219 0 m 1225 172 q 1275 373 1225 284 q 1388 461 1324 461 q 1470 328 1470 461 q 1419 130 1470 218 q 1308 41 1369 41 q 1225 172 1225 41 "},"":{"ha":694,"x_min":62,"x_max":1434,"o":"m 62 57 q 279 -25 153 -25 q 507 49 411 -25 q 709 309 602 123 l 1079 309 l 1107 -25 l 1418 26 l 1427 71 q 1348 67 1359 67 q 1258 119 1283 67 q 1220 334 1234 171 l 1181 803 l 1172 1029 l 1034 1004 q 933 996 966 998 q 680 945 767 985 q 528 813 592 906 q 456 602 469 730 l 589 668 q 666 870 589 800 q 885 941 743 941 q 1012 932 938 941 l 720 428 q 510 133 597 216 q 322 50 422 50 q 153 149 218 50 l 62 57 m 739 359 l 1031 869 l 1074 359 l 739 359 m 371 716 l 393 713 q 363 475 463 591 l 363 464 q 374 420 366 445 q 477 342 455 426 q 409 231 488 269 q 387 90 447 133 q 295 119 333 68 l 292 133 q 366 168 306 193 q 333 100 393 117 q 409 163 414 71 l 398 228 l 395 233 q 235 372 246 212 q 341 524 265 456 q 371 716 298 627 m 385 673 q 352 532 330 616 q 385 673 441 613 m 349 467 q 376 239 178 282 l 395 250 l 390 269 l 387 290 l 376 336 l 374 350 l 368 372 l 366 382 q 374 255 273 320 q 360 420 224 328 q 349 467 360 442 m 385 382 q 404 271 385 355 l 406 258 l 412 252 l 431 263 q 385 382 496 353 m 1329 970 q 1353 889 1413 960 q 1301 650 1434 759 q 1282 604 1288 631 l 1274 604 l 1274 911 l 1277 927 q 1329 970 1293 957 m 1288 886 l 1285 721 l 1288 691 q 1348 886 1410 756 q 1288 886 1320 873 m 766 264 q 915 191 850 261 q 956 172 931 180 q 988 193 972 177 q 972 237 994 218 q 912 234 942 215 q 977 258 923 280 q 958 139 1064 182 q 833 196 888 139 l 790 226 q 755 229 774 231 q 760 169 711 188 q 801 182 777 182 q 812 158 809 174 q 714 166 763 117 q 766 264 695 231 m 1161 135 l 1161 306 q 1180 276 1172 295 q 1210 130 1256 219 q 1169 252 1242 219 q 1166 189 1164 227 l 1166 111 q 1115 86 1150 86 q 1161 135 1085 146 m 1116 677 l 1116 848 q 1135 818 1127 837 q 1165 671 1211 761 q 1124 793 1198 761 q 1122 731 1119 769 l 1122 652 q 1070 628 1105 628 q 1116 677 1040 688 m 1261 1137 q 1168 1331 1198 1225 l 1076 1272 q 866 1088 1012 1194 l 962 1095 q 981 1116 978 1112 q 1093 1236 1055 1190 q 1178 1088 1127 1144 l 1261 1137 "},"":{"ha":694,"x_min":142,"x_max":1132,"o":"m 142 0 l 733 -24 l 764 -25 q 990 96 870 -25 l 1001 151 q 794 75 905 75 l 723 77 l 397 90 q 553 233 505 161 q 625 429 602 305 l 640 502 l 673 502 q 883 482 729 502 l 952 552 l 650 552 l 728 954 l 749 954 q 973 933 911 954 q 1034 859 1034 913 q 1029 812 1034 838 l 1072 812 l 1132 1004 l 733 1004 q 305 905 450 1004 q 144 602 161 807 l 275 665 l 275 680 q 361 876 275 801 q 587 951 448 951 l 464 331 q 396 143 435 186 q 254 100 357 100 l 243 100 l 142 0 m 351 598 q 375 517 435 587 q 323 278 456 387 q 304 232 310 259 l 296 232 l 296 538 l 299 555 q 351 598 315 585 m 310 514 l 307 349 l 310 319 q 370 514 432 384 q 310 514 342 500 m 770 852 q 919 779 854 850 q 960 760 935 768 q 992 782 976 766 q 976 825 998 806 q 916 823 946 804 q 981 847 927 869 q 962 728 1068 771 q 838 785 892 728 l 794 814 q 759 817 778 820 q 764 758 715 777 q 805 771 781 771 q 816 747 813 763 q 718 755 767 706 q 770 852 699 820 m 840 336 l 840 379 q 853 336 861 379 q 921 268 924 333 q 872 260 899 249 q 894 303 848 295 q 853 260 848 368 l 853 165 q 910 219 899 168 l 921 219 q 910 181 921 203 q 853 149 888 157 q 840 138 848 40 l 840 151 q 804 319 726 211 l 840 336 m 840 306 l 837 317 q 840 168 791 243 l 840 306 m 532 358 l 532 529 q 551 499 543 518 q 581 353 627 442 q 541 475 614 442 q 538 412 535 450 l 538 334 q 486 309 522 309 q 532 358 456 369 m 606 692 l 606 863 q 625 833 617 852 q 655 687 701 777 q 614 809 688 777 q 612 747 609 785 l 612 668 q 560 644 595 644 q 606 692 530 703 m 1045 1137 q 952 1331 983 1225 l 860 1272 q 650 1088 796 1194 l 747 1095 q 766 1116 762 1112 q 878 1236 840 1190 q 962 1088 911 1144 l 1045 1137 "},"":{"ha":694,"x_min":62,"x_max":1434,"o":"m 62 57 q 279 -25 153 -25 q 507 49 411 -25 q 709 309 602 123 l 1079 309 l 1107 -25 l 1418 26 l 1427 71 q 1348 67 1359 67 q 1258 119 1283 67 q 1220 334 1234 171 l 1181 803 l 1172 1029 l 1034 1004 q 933 996 966 998 q 680 945 767 985 q 528 813 592 906 q 456 602 469 730 l 589 668 q 666 870 589 800 q 885 941 743 941 q 1012 932 938 941 l 720 428 q 510 133 597 216 q 322 50 422 50 q 153 149 218 50 l 62 57 m 739 359 l 1031 869 l 1074 359 l 739 359 m 371 716 l 393 713 q 363 475 463 591 l 363 464 q 374 420 366 445 q 477 342 455 426 q 409 231 488 269 q 387 90 447 133 q 295 119 333 68 l 292 133 q 366 168 306 193 q 333 100 393 117 q 409 163 414 71 l 398 228 l 395 233 q 235 372 246 212 q 341 524 265 456 q 371 716 298 627 m 385 673 q 352 532 330 616 q 385 673 441 613 m 349 467 q 376 239 178 282 l 395 250 l 390 269 l 387 290 l 376 336 l 374 350 l 368 372 l 366 382 q 374 255 273 320 q 360 420 224 328 q 349 467 360 442 m 385 382 q 404 271 385 355 l 406 258 l 412 252 l 431 263 q 385 382 496 353 m 1329 970 q 1353 889 1413 960 q 1301 650 1434 759 q 1282 604 1288 631 l 1274 604 l 1274 911 l 1277 927 q 1329 970 1293 957 m 1288 886 l 1285 721 l 1288 691 q 1348 886 1410 756 q 1288 886 1320 873 m 766 264 q 915 191 850 261 q 956 172 931 180 q 988 193 972 177 q 972 237 994 218 q 912 234 942 215 q 977 258 923 280 q 958 139 1064 182 q 833 196 888 139 l 790 226 q 755 229 774 231 q 760 169 711 188 q 801 182 777 182 q 812 158 809 174 q 714 166 763 117 q 766 264 695 231 m 1161 135 l 1161 306 q 1180 276 1172 295 q 1210 130 1256 219 q 1169 252 1242 219 q 1166 189 1164 227 l 1166 111 q 1115 86 1150 86 q 1161 135 1085 146 m 1116 677 l 1116 848 q 1135 818 1127 837 q 1165 671 1211 761 q 1124 793 1198 761 q 1122 731 1119 769 l 1122 652 q 1070 628 1105 628 q 1116 677 1040 688 m 1021 1088 q 1263 1222 1093 1137 l 1307 1331 q 1042 1149 1133 1225 l 1021 1088 "},"":{"ha":694,"x_min":142,"x_max":1132,"o":"m 142 0 l 733 -24 l 764 -25 q 990 96 870 -25 l 1001 151 q 794 75 905 75 l 723 77 l 397 90 q 553 233 505 161 q 625 429 602 305 l 640 502 l 673 502 q 883 482 729 502 l 952 552 l 650 552 l 728 954 l 749 954 q 973 933 911 954 q 1034 859 1034 913 q 1029 812 1034 838 l 1072 812 l 1132 1004 l 733 1004 q 305 905 450 1004 q 144 602 161 807 l 275 665 l 275 680 q 361 876 275 801 q 587 951 448 951 l 464 331 q 396 143 435 186 q 254 100 357 100 l 243 100 l 142 0 m 351 598 q 375 517 435 587 q 323 278 456 387 q 304 232 310 259 l 296 232 l 296 538 l 299 555 q 351 598 315 585 m 310 514 l 307 349 l 310 319 q 370 514 432 384 q 310 514 342 500 m 770 852 q 919 779 854 850 q 960 760 935 768 q 992 782 976 766 q 976 825 998 806 q 916 823 946 804 q 981 847 927 869 q 962 728 1068 771 q 838 785 892 728 l 794 814 q 759 817 778 820 q 764 758 715 777 q 805 771 781 771 q 816 747 813 763 q 718 755 767 706 q 770 852 699 820 m 840 336 l 840 379 q 853 336 861 379 q 921 268 924 333 q 872 260 899 249 q 894 303 848 295 q 853 260 848 368 l 853 165 q 910 219 899 168 l 921 219 q 910 181 921 203 q 853 149 888 157 q 840 138 848 40 l 840 151 q 804 319 726 211 l 840 336 m 840 306 l 837 317 q 840 168 791 243 l 840 306 m 532 358 l 532 529 q 551 499 543 518 q 581 353 627 442 q 541 475 614 442 q 538 412 535 450 l 538 334 q 486 309 522 309 q 532 358 456 369 m 606 692 l 606 863 q 625 833 617 852 q 655 687 701 777 q 614 809 688 777 q 612 747 609 785 l 612 668 q 560 644 595 644 q 606 692 530 703 m 674 1088 l 779 1162 l 698 1272 l 591 1191 l 674 1088 m 999 1088 l 1103 1164 l 1023 1272 l 916 1193 l 999 1088 "},"":{"ha":694,"x_min":142,"x_max":1132,"o":"m 142 0 l 733 -24 l 764 -25 q 990 96 870 -25 l 1001 151 q 794 75 905 75 l 723 77 l 397 90 q 553 233 505 161 q 625 429 602 305 l 640 502 l 673 502 q 883 482 729 502 l 952 552 l 650 552 l 728 954 l 749 954 q 973 933 911 954 q 1034 859 1034 913 q 1029 812 1034 838 l 1072 812 l 1132 1004 l 733 1004 q 305 905 450 1004 q 144 602 161 807 l 275 665 l 275 680 q 361 876 275 801 q 587 951 448 951 l 464 331 q 396 143 435 186 q 254 100 357 100 l 243 100 l 142 0 m 351 598 q 375 517 435 587 q 323 278 456 387 q 304 232 310 259 l 296 232 l 296 538 l 299 555 q 351 598 315 585 m 310 514 l 307 349 l 310 319 q 370 514 432 384 q 310 514 342 500 m 770 852 q 919 779 854 850 q 960 760 935 768 q 992 782 976 766 q 976 825 998 806 q 916 823 946 804 q 981 847 927 869 q 962 728 1068 771 q 838 785 892 728 l 794 814 q 759 817 778 820 q 764 758 715 777 q 805 771 781 771 q 816 747 813 763 q 718 755 767 706 q 770 852 699 820 m 840 336 l 840 379 q 853 336 861 379 q 921 268 924 333 q 872 260 899 249 q 894 303 848 295 q 853 260 848 368 l 853 165 q 910 219 899 168 l 921 219 q 910 181 921 203 q 853 149 888 157 q 840 138 848 40 l 840 151 q 804 319 726 211 l 840 336 m 840 306 l 837 317 q 840 168 791 243 l 840 306 m 532 358 l 532 529 q 551 499 543 518 q 581 353 627 442 q 541 475 614 442 q 538 412 535 450 l 538 334 q 486 309 522 309 q 532 358 456 369 m 606 692 l 606 863 q 625 833 617 852 q 655 687 701 777 q 614 809 688 777 q 612 747 609 785 l 612 668 q 560 644 595 644 q 606 692 530 703 m 961 1141 q 815 1331 899 1246 l 734 1268 q 876 1088 827 1186 l 961 1141 "},"":{"ha":694,"x_min":8,"x_max":802,"o":"m 8 0 l 431 -17 l 529 83 l 265 90 q 493 423 449 203 l 589 903 l 699 903 l 802 1004 l 361 1004 l 262 903 l 446 903 l 336 350 q 270 151 307 201 q 155 100 233 100 l 110 100 l 8 0 m 257 583 l 257 868 l 268 868 q 287 822 271 846 q 336 575 420 722 l 333 583 q 268 776 409 722 l 268 551 q 241 515 260 532 q 162 526 197 483 q 257 583 176 610 m 475 254 q 625 181 559 252 q 665 162 641 170 q 698 184 682 168 q 682 227 703 208 q 622 224 652 205 q 687 249 633 271 q 668 130 774 173 q 543 186 597 130 l 500 216 q 465 219 484 222 q 470 159 421 178 q 511 173 486 173 q 522 149 519 165 q 424 157 473 108 q 475 254 405 222 m 391 368 l 391 539 q 410 509 402 528 q 440 363 486 452 q 399 485 473 452 q 397 422 394 460 l 397 344 q 345 319 380 319 q 391 368 315 379 m 503 819 l 503 990 q 522 960 514 979 q 552 814 598 903 q 511 936 585 903 q 509 873 506 911 l 509 795 q 457 770 492 770 q 503 819 427 830 m 481 1088 q 723 1222 553 1137 l 767 1331 q 503 1149 593 1225 l 481 1088 "},"":{"ha":694,"x_min":8,"x_max":802,"o":"m 8 0 l 431 -17 l 529 83 l 265 90 q 493 423 449 203 l 589 903 l 699 903 l 802 1004 l 361 1004 l 262 903 l 446 903 l 336 350 q 270 151 307 201 q 155 100 233 100 l 110 100 l 8 0 m 257 583 l 257 868 l 268 868 q 287 822 271 846 q 336 575 420 722 l 333 583 q 268 776 409 722 l 268 551 q 241 515 260 532 q 162 526 197 483 q 257 583 176 610 m 475 254 q 625 181 559 252 q 665 162 641 170 q 698 184 682 168 q 682 227 703 208 q 622 224 652 205 q 687 249 633 271 q 668 130 774 173 q 543 186 597 130 l 500 216 q 465 219 484 222 q 470 159 421 178 q 511 173 486 173 q 522 149 519 165 q 424 157 473 108 q 475 254 405 222 m 391 368 l 391 539 q 410 509 402 528 q 440 363 486 452 q 399 485 473 452 q 397 422 394 460 l 397 344 q 345 319 380 319 q 391 368 315 379 m 503 819 l 503 990 q 522 960 514 979 q 552 814 598 903 q 511 936 585 903 q 509 873 506 911 l 509 795 q 457 770 492 770 q 503 819 427 830 m 763 1137 q 670 1331 701 1225 l 578 1272 q 368 1088 514 1194 l 465 1095 q 484 1116 480 1112 q 595 1236 557 1190 q 680 1088 629 1144 l 763 1137 "},"":{"ha":694,"x_min":8,"x_max":830,"o":"m 8 0 l 431 -17 l 529 83 l 265 90 q 493 423 449 203 l 589 903 l 699 903 l 802 1004 l 361 1004 l 262 903 l 446 903 l 336 350 q 270 151 307 201 q 155 100 233 100 l 110 100 l 8 0 m 257 583 l 257 868 l 268 868 q 287 822 271 846 q 336 575 420 722 l 333 583 q 268 776 409 722 l 268 551 q 241 515 260 532 q 162 526 197 483 q 257 583 176 610 m 475 254 q 625 181 559 252 q 665 162 641 170 q 698 184 682 168 q 682 227 703 208 q 622 224 652 205 q 687 249 633 271 q 668 130 774 173 q 543 186 597 130 l 500 216 q 465 219 484 222 q 470 159 421 178 q 511 173 486 173 q 522 149 519 165 q 424 157 473 108 q 475 254 405 222 m 391 368 l 391 539 q 410 509 402 528 q 440 363 486 452 q 399 485 473 452 q 397 422 394 460 l 397 344 q 345 319 380 319 q 391 368 315 379 m 503 819 l 503 990 q 522 960 514 979 q 552 814 598 903 q 511 936 585 903 q 509 873 506 911 l 509 795 q 457 770 492 770 q 503 819 427 830 m 401 1088 l 505 1162 l 425 1272 l 318 1191 l 401 1088 m 726 1088 l 830 1164 l 749 1272 l 643 1193 l 726 1088 "},"":{"ha":694,"x_min":8,"x_max":802,"o":"m 8 0 l 431 -17 l 529 83 l 265 90 q 493 423 449 203 l 589 903 l 699 903 l 802 1004 l 361 1004 l 262 903 l 446 903 l 336 350 q 270 151 307 201 q 155 100 233 100 l 110 100 l 8 0 m 257 583 l 257 868 l 268 868 q 287 822 271 846 q 336 575 420 722 l 333 583 q 268 776 409 722 l 268 551 q 241 515 260 532 q 162 526 197 483 q 257 583 176 610 m 475 254 q 625 181 559 252 q 665 162 641 170 q 698 184 682 168 q 682 227 703 208 q 622 224 652 205 q 687 249 633 271 q 668 130 774 173 q 543 186 597 130 l 500 216 q 465 219 484 222 q 470 159 421 178 q 511 173 486 173 q 522 149 519 165 q 424 157 473 108 q 475 254 405 222 m 391 368 l 391 539 q 410 509 402 528 q 440 363 486 452 q 399 485 473 452 q 397 422 394 460 l 397 344 q 345 319 380 319 q 391 368 315 379 m 503 819 l 503 990 q 522 960 514 979 q 552 814 598 903 q 511 936 585 903 q 509 873 506 911 l 509 795 q 457 770 492 770 q 503 819 427 830 m 712 1141 q 566 1331 650 1246 l 486 1268 q 627 1088 578 1186 l 712 1141 "},"":{"ha":694,"x_min":157,"x_max":1271,"o":"m 519 -25 q 947 174 768 -25 q 1126 650 1126 372 q 1029 927 1126 825 q 767 1029 932 1029 q 341 828 524 1029 q 157 360 157 627 q 255 79 157 182 q 519 -25 352 -25 m 545 21 q 314 359 314 21 q 441 802 314 617 q 744 986 568 986 q 974 655 974 986 q 848 208 974 394 q 545 21 722 21 m 617 829 q 766 756 701 827 q 807 737 783 745 q 840 759 823 743 q 823 802 845 783 q 764 800 793 781 q 829 824 774 846 q 810 705 916 748 q 685 762 739 705 l 642 791 q 606 794 625 797 q 612 734 563 753 q 652 748 628 748 q 663 724 661 740 q 566 732 614 683 q 617 829 547 797 m 1154 517 l 1176 515 q 1146 276 1246 393 l 1146 265 q 1157 222 1149 246 q 1260 143 1238 227 q 1192 32 1271 70 q 1171 -109 1230 -66 q 1078 -79 1116 -131 l 1076 -66 q 1149 -31 1089 -6 q 1116 -98 1176 -82 q 1192 -36 1198 -128 l 1181 29 l 1179 35 q 1019 173 1029 13 q 1124 325 1048 257 q 1154 517 1081 428 m 1168 474 q 1135 333 1114 417 q 1190 417 1171 363 q 1168 474 1195 450 m 1133 268 q 1160 40 962 83 l 1179 51 l 1173 70 l 1171 92 l 1160 138 l 1157 151 l 1152 173 l 1149 184 q 1157 56 1057 121 q 1143 222 1008 130 q 1133 268 1143 243 m 1168 184 q 1187 73 1168 157 l 1190 59 l 1195 54 q 1236 130 1238 75 q 1168 184 1222 176 m 508 490 l 549 490 l 578 481 q 429 208 733 335 l 435 218 q 568 349 527 251 q 489 468 603 492 q 475 435 473 454 q 527 392 530 427 q 462 370 508 359 q 508 490 405 446 m 654 460 q 687 446 673 463 q 671 416 687 427 q 654 460 625 422 m 654 381 q 687 368 673 384 q 671 338 687 349 q 654 381 625 343 m 236 345 l 236 516 q 255 486 247 505 q 285 340 331 429 q 244 462 317 429 q 241 399 239 437 l 241 321 q 190 296 225 296 q 236 345 160 356 m 1051 562 l 1051 732 q 1070 703 1062 722 q 1100 556 1146 646 q 1059 678 1133 646 q 1057 616 1054 654 l 1057 537 q 1005 513 1040 513 q 1051 562 975 572 m 686 1088 q 928 1222 758 1137 l 972 1331 q 707 1149 798 1225 l 686 1088 "},"":{"ha":694,"x_min":157,"x_max":1271,"o":"m 519 -25 q 947 174 768 -25 q 1126 650 1126 372 q 1029 927 1126 825 q 767 1029 932 1029 q 341 828 524 1029 q 157 360 157 627 q 255 79 157 182 q 519 -25 352 -25 m 545 21 q 314 359 314 21 q 441 802 314 617 q 744 986 568 986 q 974 655 974 986 q 848 208 974 394 q 545 21 722 21 m 617 829 q 766 756 701 827 q 807 737 783 745 q 840 759 823 743 q 823 802 845 783 q 764 800 793 781 q 829 824 774 846 q 810 705 916 748 q 685 762 739 705 l 642 791 q 606 794 625 797 q 612 734 563 753 q 652 748 628 748 q 663 724 661 740 q 566 732 614 683 q 617 829 547 797 m 1154 517 l 1176 515 q 1146 276 1246 393 l 1146 265 q 1157 222 1149 246 q 1260 143 1238 227 q 1192 32 1271 70 q 1171 -109 1230 -66 q 1078 -79 1116 -131 l 1076 -66 q 1149 -31 1089 -6 q 1116 -98 1176 -82 q 1192 -36 1198 -128 l 1181 29 l 1179 35 q 1019 173 1029 13 q 1124 325 1048 257 q 1154 517 1081 428 m 1168 474 q 1135 333 1114 417 q 1190 417 1171 363 q 1168 474 1195 450 m 1133 268 q 1160 40 962 83 l 1179 51 l 1173 70 l 1171 92 l 1160 138 l 1157 151 l 1152 173 l 1149 184 q 1157 56 1057 121 q 1143 222 1008 130 q 1133 268 1143 243 m 1168 184 q 1187 73 1168 157 l 1190 59 l 1195 54 q 1236 130 1238 75 q 1168 184 1222 176 m 508 490 l 549 490 l 578 481 q 429 208 733 335 l 435 218 q 568 349 527 251 q 489 468 603 492 q 475 435 473 454 q 527 392 530 427 q 462 370 508 359 q 508 490 405 446 m 654 460 q 687 446 673 463 q 671 416 687 427 q 654 460 625 422 m 654 381 q 687 368 673 384 q 671 338 687 349 q 654 381 625 343 m 236 345 l 236 516 q 255 486 247 505 q 285 340 331 429 q 244 462 317 429 q 241 399 239 437 l 241 321 q 190 296 225 296 q 236 345 160 356 m 1051 562 l 1051 732 q 1070 703 1062 722 q 1100 556 1146 646 q 1059 678 1133 646 q 1057 616 1054 654 l 1057 537 q 1005 513 1040 513 q 1051 562 975 572 m 968 1137 q 875 1331 905 1225 l 783 1272 q 573 1088 719 1194 l 669 1095 q 688 1116 685 1112 q 800 1236 762 1190 q 885 1088 834 1144 l 968 1137 "},"":{"ha":694,"x_min":157,"x_max":1271,"o":"m 519 -25 q 947 174 768 -25 q 1126 650 1126 372 q 1029 927 1126 825 q 767 1029 932 1029 q 341 828 524 1029 q 157 360 157 627 q 255 79 157 182 q 519 -25 352 -25 m 545 21 q 314 359 314 21 q 441 802 314 617 q 744 986 568 986 q 974 655 974 986 q 848 208 974 394 q 545 21 722 21 m 617 829 q 766 756 701 827 q 807 737 783 745 q 840 759 823 743 q 823 802 845 783 q 764 800 793 781 q 829 824 774 846 q 810 705 916 748 q 685 762 739 705 l 642 791 q 606 794 625 797 q 612 734 563 753 q 652 748 628 748 q 663 724 661 740 q 566 732 614 683 q 617 829 547 797 m 1154 517 l 1176 515 q 1146 276 1246 393 l 1146 265 q 1157 222 1149 246 q 1260 143 1238 227 q 1192 32 1271 70 q 1171 -109 1230 -66 q 1078 -79 1116 -131 l 1076 -66 q 1149 -31 1089 -6 q 1116 -98 1176 -82 q 1192 -36 1198 -128 l 1181 29 l 1179 35 q 1019 173 1029 13 q 1124 325 1048 257 q 1154 517 1081 428 m 1168 474 q 1135 333 1114 417 q 1190 417 1171 363 q 1168 474 1195 450 m 1133 268 q 1160 40 962 83 l 1179 51 l 1173 70 l 1171 92 l 1160 138 l 1157 151 l 1152 173 l 1149 184 q 1157 56 1057 121 q 1143 222 1008 130 q 1133 268 1143 243 m 1168 184 q 1187 73 1168 157 l 1190 59 l 1195 54 q 1236 130 1238 75 q 1168 184 1222 176 m 508 490 l 549 490 l 578 481 q 429 208 733 335 l 435 218 q 568 349 527 251 q 489 468 603 492 q 475 435 473 454 q 527 392 530 427 q 462 370 508 359 q 508 490 405 446 m 654 460 q 687 446 673 463 q 671 416 687 427 q 654 460 625 422 m 654 381 q 687 368 673 384 q 671 338 687 349 q 654 381 625 343 m 236 345 l 236 516 q 255 486 247 505 q 285 340 331 429 q 244 462 317 429 q 241 399 239 437 l 241 321 q 190 296 225 296 q 236 345 160 356 m 1051 562 l 1051 732 q 1070 703 1062 722 q 1100 556 1146 646 q 1059 678 1133 646 q 1057 616 1054 654 l 1057 537 q 1005 513 1040 513 q 1051 562 975 572 m 926 1141 q 780 1331 864 1246 l 699 1268 q 840 1088 791 1186 l 926 1141 "},"":{"ha":694,"x_min":140,"x_max":1345,"o":"m 987 -25 l 1333 35 l 1342 78 q 1261 71 1293 71 q 1171 144 1171 71 q 1197 317 1171 184 l 1294 803 l 1345 1021 l 1192 1004 l 1055 318 q 916 122 996 193 q 754 52 836 52 q 633 114 676 52 q 589 286 589 176 q 633 598 589 387 q 739 1004 677 810 l 690 1004 q 140 604 170 1004 l 271 669 q 346 867 271 787 q 532 947 420 947 q 581 941 546 947 q 485 568 526 766 q 444 283 444 370 q 515 59 444 142 q 707 -25 587 -25 q 1029 184 879 -25 l 987 -25 m 491 333 l 491 515 l 505 515 l 505 439 l 507 433 q 553 447 526 441 l 553 262 l 540 262 l 540 341 q 491 333 521 341 m 537 417 l 505 406 q 513 368 496 376 q 537 417 551 374 m 994 793 l 994 975 l 1008 975 l 1008 896 q 1048 907 1027 899 l 1057 907 l 1057 722 l 1043 722 l 1043 801 q 994 793 1024 801 m 1040 877 l 1008 866 q 1016 828 1000 836 q 1040 877 1054 833 m 732 335 q 882 262 817 332 q 922 243 898 251 q 955 264 939 248 q 939 308 960 289 q 879 305 909 286 q 944 330 890 351 q 925 210 1031 254 q 800 267 854 210 l 757 297 q 722 300 741 302 q 727 240 678 259 q 768 254 743 254 q 779 229 776 245 q 681 237 730 189 q 732 335 662 302 m 595 755 l 595 926 q 614 897 606 916 q 644 750 690 840 q 603 872 676 840 q 600 810 597 848 l 600 731 q 549 707 584 707 q 595 755 519 766 m 1127 277 l 1127 448 q 1146 418 1138 437 q 1176 272 1222 361 q 1135 394 1208 361 q 1133 332 1130 370 l 1133 253 q 1081 229 1116 229 q 1127 277 1051 288 m 1207 729 l 1207 900 q 1226 870 1218 889 q 1256 724 1302 813 q 1215 846 1289 813 q 1213 783 1210 821 l 1213 705 q 1161 680 1196 680 q 1207 729 1131 740 m 869 1088 q 1112 1222 942 1137 l 1156 1331 q 891 1149 982 1225 l 869 1088 "},"":{"ha":694,"x_min":140,"x_max":1345,"o":"m 987 -25 l 1333 35 l 1342 78 q 1261 71 1293 71 q 1171 144 1171 71 q 1197 317 1171 184 l 1294 803 l 1345 1021 l 1192 1004 l 1055 318 q 916 122 996 193 q 754 52 836 52 q 633 114 676 52 q 589 286 589 176 q 633 598 589 387 q 739 1004 677 810 l 690 1004 q 140 604 170 1004 l 271 669 q 346 867 271 787 q 532 947 420 947 q 581 941 546 947 q 485 568 526 766 q 444 283 444 370 q 515 59 444 142 q 707 -25 587 -25 q 1029 184 879 -25 l 987 -25 m 491 333 l 491 515 l 505 515 l 505 439 l 507 433 q 553 447 526 441 l 553 262 l 540 262 l 540 341 q 491 333 521 341 m 537 417 l 505 406 q 513 368 496 376 q 537 417 551 374 m 994 793 l 994 975 l 1008 975 l 1008 896 q 1048 907 1027 899 l 1057 907 l 1057 722 l 1043 722 l 1043 801 q 994 793 1024 801 m 1040 877 l 1008 866 q 1016 828 1000 836 q 1040 877 1054 833 m 732 335 q 882 262 817 332 q 922 243 898 251 q 955 264 939 248 q 939 308 960 289 q 879 305 909 286 q 944 330 890 351 q 925 210 1031 254 q 800 267 854 210 l 757 297 q 722 300 741 302 q 727 240 678 259 q 768 254 743 254 q 779 229 776 245 q 681 237 730 189 q 732 335 662 302 m 595 755 l 595 926 q 614 897 606 916 q 644 750 690 840 q 603 872 676 840 q 600 810 597 848 l 600 731 q 549 707 584 707 q 595 755 519 766 m 1127 277 l 1127 448 q 1146 418 1138 437 q 1176 272 1222 361 q 1135 394 1208 361 q 1133 332 1130 370 l 1133 253 q 1081 229 1116 229 q 1127 277 1051 288 m 1207 729 l 1207 900 q 1226 870 1218 889 q 1256 724 1302 813 q 1215 846 1289 813 q 1213 783 1210 821 l 1213 705 q 1161 680 1196 680 q 1207 729 1131 740 m 1168 1137 q 1076 1331 1106 1225 l 983 1272 q 774 1088 920 1194 l 870 1095 q 889 1116 886 1112 q 1001 1236 963 1190 q 1086 1088 1035 1144 l 1168 1137 "},"":{"ha":694,"x_min":140,"x_max":1345,"o":"m 987 -25 l 1333 35 l 1342 78 q 1261 71 1293 71 q 1171 144 1171 71 q 1197 317 1171 184 l 1294 803 l 1345 1021 l 1192 1004 l 1055 318 q 916 122 996 193 q 754 52 836 52 q 633 114 676 52 q 589 286 589 176 q 633 598 589 387 q 739 1004 677 810 l 690 1004 q 140 604 170 1004 l 271 669 q 346 867 271 787 q 532 947 420 947 q 581 941 546 947 q 485 568 526 766 q 444 283 444 370 q 515 59 444 142 q 707 -25 587 -25 q 1029 184 879 -25 l 987 -25 m 491 333 l 491 515 l 505 515 l 505 439 l 507 433 q 553 447 526 441 l 553 262 l 540 262 l 540 341 q 491 333 521 341 m 537 417 l 505 406 q 513 368 496 376 q 537 417 551 374 m 994 793 l 994 975 l 1008 975 l 1008 896 q 1048 907 1027 899 l 1057 907 l 1057 722 l 1043 722 l 1043 801 q 994 793 1024 801 m 1040 877 l 1008 866 q 1016 828 1000 836 q 1040 877 1054 833 m 732 335 q 882 262 817 332 q 922 243 898 251 q 955 264 939 248 q 939 308 960 289 q 879 305 909 286 q 944 330 890 351 q 925 210 1031 254 q 800 267 854 210 l 757 297 q 722 300 741 302 q 727 240 678 259 q 768 254 743 254 q 779 229 776 245 q 681 237 730 189 q 732 335 662 302 m 595 755 l 595 926 q 614 897 606 916 q 644 750 690 840 q 603 872 676 840 q 600 810 597 848 l 600 731 q 549 707 584 707 q 595 755 519 766 m 1127 277 l 1127 448 q 1146 418 1138 437 q 1176 272 1222 361 q 1135 394 1208 361 q 1133 332 1130 370 l 1133 253 q 1081 229 1116 229 q 1127 277 1051 288 m 1207 729 l 1207 900 q 1226 870 1218 889 q 1256 724 1302 813 q 1215 846 1289 813 q 1213 783 1210 821 l 1213 705 q 1161 680 1196 680 q 1207 729 1131 740 m 1068 1141 q 922 1331 1006 1246 l 842 1268 q 983 1088 934 1186 l 1068 1141 "},"":{"ha":523,"x_min":153,"x_max":601,"o":"m 601 205 q 399 56 466 56 q 359 100 359 56 q 374 201 359 122 l 441 536 l 492 753 l 161 644 l 153 602 q 262 626 231 626 q 306 569 306 626 q 287 435 306 536 l 240 199 q 224 85 224 120 q 322 -17 224 -17 q 589 142 440 -17 l 601 205 "},"":{"ha":812,"x_min":425,"x_max":820,"o":"m 820 919 q 727 1113 758 1007 l 635 1055 q 425 870 571 977 l 522 877 q 541 898 537 895 q 652 1019 614 972 q 737 870 686 926 l 820 919 "},"":{"ha":812,"x_min":402,"x_max":853,"o":"m 450 880 q 514 939 474 939 q 584 914 539 939 l 615 897 q 707 870 664 870 q 853 1038 829 870 l 808 1025 q 739 958 778 958 q 663 985 713 958 l 640 998 q 553 1029 585 1029 q 455 985 496 1029 q 402 870 413 941 l 450 880 "},"":{"ha":812,"x_min":409,"x_max":847,"o":"m 409 870 l 798 870 l 847 954 l 461 954 l 409 870 "},"":{"ha":812,"x_min":482,"x_max":842,"o":"m 486 1049 q 482 998 482 1018 q 594 870 482 870 q 757 934 692 870 q 842 1113 822 998 l 767 1073 q 657 918 751 918 q 585 1017 585 918 q 601 1113 585 1059 l 486 1049 "},"":{"ha":812,"x_min":551,"x_max":743,"o":"m 637 870 l 743 945 l 661 1054 l 551 969 l 637 870 "},"":{"ha":778,"x_min":495,"x_max":713,"o":"m 604 870 q 681 902 649 870 q 713 979 713 934 q 681 1056 713 1024 q 604 1088 649 1088 q 527 1056 559 1088 q 495 979 495 1024 q 527 902 495 934 q 604 870 559 870 m 604 912 q 556 931 576 912 q 536 979 536 951 q 556 1026 536 1006 q 604 1046 576 1046 q 651 1026 631 1046 q 671 979 671 1007 q 651 931 671 951 q 604 912 631 912 "},"":{"ha":812,"x_min":223,"x_max":457,"o":"m 430 0 l 371 0 l 299 -105 q 392 -161 392 -105 q 332 -210 392 -210 q 275 -189 307 -210 l 223 -261 q 286 -268 256 -268 q 404 -227 350 -268 q 457 -138 457 -186 q 390 -60 457 -81 l 430 0 "},"":{"ha":812,"x_min":488,"x_max":865,"o":"m 488 870 l 625 980 l 673 1113 l 519 953 l 488 870 m 680 870 l 817 980 l 865 1113 l 712 953 l 680 870 "},"":{"ha":812,"x_min":210,"x_max":422,"o":"m 411 0 l 357 0 q 210 -188 210 -104 q 328 -268 210 -268 q 370 -265 346 -268 l 422 -195 q 367 -203 391 -203 q 298 -150 298 -203 q 411 0 298 -79 "},"":{"ha":812,"x_min":425,"x_max":820,"o":"m 425 1064 q 518 870 488 975 l 610 928 q 820 1113 674 1006 l 724 1106 q 705 1085 708 1088 q 593 964 631 1011 q 508 1113 559 1057 l 425 1064 "},"":{"ha":694,"x_min":79,"x_max":1009,"o":"m 79 38 q 337 -25 204 -25 q 636 68 511 -25 q 762 293 762 162 q 628 507 762 393 l 548 576 q 422 701 452 658 q 392 795 392 743 q 452 923 392 871 q 599 975 511 975 q 735 936 684 975 q 787 832 787 897 q 785 803 787 824 l 828 803 l 862 973 q 641 1029 735 1029 q 385 938 492 1029 q 278 719 278 846 q 303 617 278 655 q 435 486 329 579 l 531 401 q 642 221 642 302 q 583 86 642 138 q 431 33 524 33 q 173 134 298 33 l 79 38 m 330 422 l 330 465 q 343 422 351 465 q 411 354 414 419 q 362 346 389 335 q 384 389 338 381 q 343 346 338 454 l 343 251 q 400 305 389 254 l 411 305 q 400 267 411 289 q 343 235 378 243 q 330 224 338 126 l 330 237 q 294 406 216 297 l 330 422 m 330 392 l 327 403 q 330 254 281 330 l 330 392 m 892 965 l 914 962 q 884 724 985 840 l 884 713 q 895 669 887 694 q 998 591 977 675 q 930 479 1009 517 q 909 338 968 382 q 817 368 854 317 l 814 382 q 887 417 827 441 q 854 349 914 366 q 930 412 936 319 l 920 477 l 917 482 q 757 621 768 460 q 863 772 787 705 q 892 965 819 876 m 906 922 q 873 781 852 865 q 928 865 909 810 q 906 922 933 897 m 871 715 q 898 488 700 531 l 917 498 l 911 517 l 909 539 l 898 585 l 895 599 l 890 621 l 887 631 q 895 504 795 569 q 882 669 746 577 q 871 715 882 691 m 906 631 q 925 520 906 604 l 928 507 l 933 501 q 974 577 977 523 q 906 631 960 623 m 239 883 l 239 1168 l 250 1168 q 269 1122 252 1146 q 317 875 401 1021 l 315 883 q 250 1076 391 1021 l 250 850 q 222 815 241 831 q 144 826 179 783 q 239 883 157 910 m 883 90 l 883 261 q 902 231 894 250 q 932 85 978 174 q 891 207 964 174 q 888 144 886 182 l 888 66 q 837 41 872 41 q 883 90 807 101 m 555 1282 q 648 1088 618 1193 l 740 1146 q 949 1331 804 1223 l 854 1324 q 835 1303 838 1306 q 723 1182 761 1229 q 637 1331 688 1274 l 555 1282 "},"":{"ha":694,"x_min":-82,"x_max":774,"o":"m 47 23 q 237 -17 151 -17 q 456 54 359 -17 q 552 216 552 125 q 461 385 552 282 l 406 446 q 327 589 327 535 q 459 694 327 694 q 577 603 577 694 q 576 589 577 595 l 574 577 l 616 577 l 646 727 q 508 753 570 753 q 308 681 395 753 q 220 517 220 610 q 311 352 220 451 l 372 284 q 449 153 449 201 q 410 80 449 109 q 315 50 372 50 q 136 115 224 50 l 47 23 m 179 342 q 212 328 198 345 q 195 298 212 309 q 179 342 149 304 m 172 269 q 204 256 191 272 q 188 226 204 237 q 172 269 142 231 m 21 399 l 62 399 l 92 391 q -58 117 246 244 l -52 127 q 81 258 40 160 q 2 377 116 401 q -12 345 -14 363 q 40 301 43 336 q -25 279 21 269 q 21 399 -82 355 m 479 622 l 479 665 q 492 622 500 665 q 560 554 563 619 q 511 546 538 535 q 533 589 487 581 q 492 546 487 654 l 492 451 q 549 505 538 454 l 560 505 q 549 467 560 489 q 492 435 528 443 q 479 424 487 326 l 479 437 q 444 606 365 497 l 479 622 m 479 592 l 476 603 q 479 454 430 530 l 479 592 m 593 53 l 593 338 l 604 338 q 623 292 607 316 q 672 45 756 191 l 669 53 q 604 245 745 191 l 604 20 q 577 -15 596 1 q 498 -4 534 -47 q 593 53 512 80 m 379 1064 q 472 870 442 975 l 564 928 q 774 1113 628 1006 l 678 1106 q 659 1085 662 1088 q 547 964 585 1011 q 462 1113 513 1057 l 379 1064 "},"":{"ha":334,"x_min":81,"x_max":427,"o":"m 81 -201 l 174 -201 l 283 351 l 191 351 l 81 -201 m 224 519 l 317 519 l 427 1071 l 334 1071 l 224 519 "}}}
